<?xml version="1.0" encoding="UTF-8"?>
<!DOCTYPE svg PUBLIC "-//W3C//DTD SVG 1.1//EN" "http://www.w3.org/Graphics/SVG/1.1/DTD/svg11.dtd">
<svg xmlns="http://www.w3.org/2000/svg" version="1.1" width="613px" height="515px" style="shape-rendering:geometricPrecision; text-rendering:geometricPrecision; image-rendering:optimizeQuality; fill-rule:evenodd; clip-rule:evenodd" xmlns:xlink="http://www.w3.org/1999/xlink">
<g><path style="opacity:0.975" fill="#4b9efe" d="M 381.5,-0.5 C 384.167,-0.5 386.833,-0.5 389.5,-0.5C 393.595,1.26017 396.262,4.26017 397.5,8.5C 394.304,7.20834 391.304,7.70834 388.5,10C 298.778,61.8568 209.112,113.69 119.5,165.5C 115.728,163.066 111.728,161.066 107.5,159.5C 108.591,156.572 110.591,154.406 113.5,153C 203.059,102.059 292.392,50.8925 381.5,-0.5 Z"/></g>
<g><path style="opacity:1" fill="#2661da" d="M 397.5,8.5 C 398.462,15.4122 398.795,22.4122 398.5,29.5C 395.35,32.5792 391.683,34.9125 387.5,36.5C 387.666,32.1539 387.499,27.8206 387,23.5C 385.493,22.4652 383.993,22.6319 382.5,24C 298.833,72.5 215.167,121 131.5,169.5C 130.667,170.5 129.833,171.5 129,172.5C 128.333,237.5 128.333,302.5 129,367.5C 129.414,367.957 129.914,368.291 130.5,368.5C 215.038,319.467 299.704,270.634 384.5,222C 386.93,219.695 387.93,216.862 387.5,213.5C 390.291,211.265 393.291,209.265 396.5,207.5C 397.493,215.65 397.826,223.983 397.5,232.5C 396.137,236.702 393.47,239.869 389.5,242C 357.139,260.512 324.806,279.012 292.5,297.5C 267.966,311.596 243.633,325.929 219.5,340.5C 216.605,341.399 213.938,342.733 211.5,344.5C 182.388,361.106 153.388,377.939 124.5,395C 123.207,395.49 121.873,395.657 120.5,395.5C 119.505,318.697 119.171,242.03 119.5,165.5C 209.112,113.69 298.778,61.8568 388.5,10C 391.304,7.70834 394.304,7.20834 397.5,8.5 Z"/></g>
<g><path style="opacity:0.993" fill="#4f9ffd" d="M 430.5,34.5 C 430.167,34.5 429.833,34.5 429.5,34.5C 429.5,31.5 429.5,28.5 429.5,25.5C 377.947,53.6127 326.947,82.7793 276.5,113C 272.94,111.908 269.273,110.741 265.5,109.5C 266.625,107.871 267.959,106.371 269.5,105C 309.06,82.3924 348.393,59.5591 387.5,36.5C 391.683,34.9125 395.35,32.5792 398.5,29.5C 405.816,25.8418 413.15,22.1751 420.5,18.5C 429.356,20.1876 432.689,25.521 430.5,34.5 Z"/></g>
<g><path style="opacity:1" fill="#fafcfe" d="M 387.5,36.5 C 348.393,59.5591 309.06,82.3924 269.5,105C 267.959,106.371 266.625,107.871 265.5,109.5C 265.5,109.833 265.5,110.167 265.5,110.5C 264.335,163.332 264.168,216.332 265,269.5C 266.868,274.19 270.368,276.523 275.5,276.5C 277.308,276.509 278.975,276.009 280.5,275C 315.895,253.971 351.562,233.471 387.5,213.5C 387.93,216.862 386.93,219.695 384.5,222C 299.704,270.634 215.038,319.467 130.5,368.5C 129.914,368.291 129.414,367.957 129,367.5C 128.333,302.5 128.333,237.5 129,172.5C 129.833,171.5 130.667,170.5 131.5,169.5C 215.167,121 298.833,72.5 382.5,24C 383.993,22.6319 385.493,22.4652 387,23.5C 387.499,27.8206 387.666,32.1539 387.5,36.5 Z"/></g>
<g><path style="opacity:1" fill="#2760d8" d="M 429.5,34.5 C 428.833,35.1667 428.167,35.8333 427.5,36.5C 376.337,65.5806 325.337,94.9139 274.5,124.5C 271.777,122.719 268.943,121.052 266,119.5C 265.502,116.518 265.335,113.518 265.5,110.5C 265.5,110.167 265.5,109.833 265.5,109.5C 269.273,110.741 272.94,111.908 276.5,113C 326.947,82.7793 377.947,53.6127 429.5,25.5C 429.5,28.5 429.5,31.5 429.5,34.5 Z"/></g>
<g><path style="opacity:0.975" fill="#d9eeff" d="M 501.5,26.5 C 512.822,26.9754 520.322,32.6421 524,43.5C 525.31,47.0704 526.143,50.737 526.5,54.5C 531.212,54.7731 535.045,56.7731 538,60.5C 541.218,65.0344 543.385,70.0344 544.5,75.5C 551.585,78.4133 555.918,83.58 557.5,91C 557.054,93.7414 555.554,95.5747 553,96.5C 534.607,86.7206 516.44,76.5539 498.5,66C 493.884,63.4401 489.718,60.2735 486,56.5C 481.425,45.2967 484.592,41.9633 495.5,46.5C 496.329,41.1975 496.829,35.8642 497,30.5C 498.397,28.9297 499.897,27.5964 501.5,26.5 Z"/></g>
<g><path style="opacity:1" fill="#d7ecfe" d="M 427.5,36.5 C 429.495,86.1555 430.162,136.156 429.5,186.5C 429.141,188.371 428.141,189.871 426.5,191C 420.14,194.512 413.806,198.012 407.5,201.5C 404.634,203.432 401.634,205.099 398.5,206.5C 397.508,206.328 396.842,206.662 396.5,207.5C 393.291,209.265 390.291,211.265 387.5,213.5C 351.562,233.471 315.895,253.971 280.5,275C 278.975,276.009 277.308,276.509 275.5,276.5C 274.505,225.905 274.172,175.238 274.5,124.5C 325.337,94.9139 376.337,65.5806 427.5,36.5 Z"/></g>
<g><path style="opacity:1" fill="#abd5fd" d="M 419.5,78.5 C 420.833,78.5 422.167,78.5 423.5,78.5C 423.986,112.92 423.486,147.253 422,181.5C 377.249,207.793 332.415,233.96 287.5,260C 285.655,261.128 283.655,261.628 281.5,261.5C 281.333,227.498 281.5,193.498 282,159.5C 283.167,158.333 284.333,157.167 285.5,156C 330.393,130.392 375.06,104.559 419.5,78.5 Z"/></g>
<g><path style="opacity:1" fill="#2e65db" d="M 342.5,96.5 C 343.5,96.5 344.5,96.5 345.5,96.5C 345.78,99.2724 345.113,101.772 343.5,104C 331.563,110.799 319.563,117.299 307.5,123.5C 306.875,120.03 307.875,117.196 310.5,115C 321.393,109.059 332.06,102.892 342.5,96.5 Z"/></g>
<g><path style="opacity:0.776" fill="#aad3fe" d="M 429.5,34.5 C 429.833,34.5 430.167,34.5 430.5,34.5C 430.832,85.3361 430.499,136.003 429.5,186.5C 430.162,136.156 429.495,86.1555 427.5,36.5C 428.167,35.8333 428.833,35.1667 429.5,34.5 Z"/></g>
<g><path style="opacity:1" fill="#57a4ff" d="M 330.5,115.5 C 332.981,116.696 332.981,118.196 330.5,120C 323.004,123.914 315.671,128.08 308.5,132.5C 307.246,130.741 307.579,129.241 309.5,128C 316.894,124.311 323.894,120.144 330.5,115.5 Z"/></g>
<g><path style="opacity:1" fill="#7eecd9" d="M 254.5,126.5 C 253.127,126.343 251.793,126.51 250.5,127C 217.606,145.941 184.939,165.108 152.5,184.5C 149.339,183.087 146.339,181.42 143.5,179.5C 143.937,177.926 144.937,176.759 146.5,176C 178.33,157.919 209.997,139.586 241.5,121C 247.603,119.102 251.936,120.936 254.5,126.5 Z"/></g>
<g><path style="opacity:1" fill="#acd5fd" d="M 265.5,110.5 C 265.335,113.518 265.502,116.518 266,119.5C 268.943,121.052 271.777,122.719 274.5,124.5C 274.172,175.238 274.505,225.905 275.5,276.5C 270.368,276.523 266.868,274.19 265,269.5C 264.168,216.332 264.335,163.332 265.5,110.5 Z"/></g>
<g><path style="opacity:1" fill="#50a0ff" d="M 292.5,121.5 C 295.652,120.959 298.152,121.959 300,124.5C 301.149,134.035 297.649,141.202 289.5,146C 286.166,147.212 283.666,146.379 282,143.5C 280.931,133.973 284.431,126.639 292.5,121.5 Z"/></g>
<g><path style="opacity:1" fill="#31dcbf" d="M 254.5,126.5 C 255.661,139.994 255.827,153.66 255,167.5C 254.535,168.931 253.701,170.097 252.5,171C 219.089,190.703 185.422,209.87 151.5,228.5C 150.584,228.457 149.917,228.124 149.5,227.5C 150.552,227.649 151.552,227.483 152.5,227C 151.175,212.833 151.175,198.667 152.5,184.5C 184.939,165.108 217.606,145.941 250.5,127C 251.793,126.51 253.127,126.343 254.5,126.5 Z"/></g>
<g><path style="opacity:1" fill="#f4fdfb" d="M 225.5,148.5 C 226.5,148.5 227.5,148.5 228.5,148.5C 228.703,150.39 228.037,151.89 226.5,153C 214.903,159.38 203.403,165.88 192,172.5C 191.5,172.167 191,171.833 190.5,171.5C 191.305,169.528 192.639,168.028 194.5,167C 205.228,161.311 215.561,155.144 225.5,148.5 Z"/></g>
<g><path style="opacity:1" fill="#2669d7" d="M 246.5,147.5 C 248.981,148.696 248.981,150.196 246.5,152C 228.167,162.5 209.833,173 191.5,183.5C 191.167,183 190.833,182.5 190.5,182C 191.34,180.233 192.673,178.899 194.5,178C 212.061,168.059 229.394,157.892 246.5,147.5 Z"/></g>
<g><path style="opacity:1" fill="#2668d8" d="M 245.5,155.5 C 246.5,155.5 247.5,155.5 248.5,155.5C 248.67,156.822 248.337,157.989 247.5,159C 229.065,169.634 210.565,180.134 192,190.5C 191.5,190.167 191,189.833 190.5,189.5C 191.313,188.186 192.313,187.019 193.5,186C 211.061,176.059 228.394,165.892 245.5,155.5 Z"/></g>
<g><path style="opacity:0.965" fill="#112477" d="M 496.5,157.5 C 499.813,158.297 502.813,159.797 505.5,162C 505.219,165.017 505.219,168.183 505.5,171.5C 503.265,172.228 501.432,173.561 500,175.5C 498.711,172.072 497.544,168.572 496.5,165C 491.115,164.786 485.781,164.286 480.5,163.5C 479.359,166.062 478.526,168.728 478,171.5C 477.762,167.35 477.596,163.35 477.5,159.5C 477.529,157.971 478.196,156.804 479.5,156C 485.264,155.437 490.93,155.937 496.5,157.5 Z"/></g>
<g><path style="opacity:1" fill="#2848bd" d="M 107.5,159.5 C 111.728,161.066 115.728,163.066 119.5,165.5C 119.171,242.03 119.505,318.697 120.5,395.5C 112.971,395.991 108.138,392.658 106,385.5C 105.5,334.501 105.333,283.501 105.5,232.5C 105.333,208.831 105.5,185.164 106,161.5C 106.278,160.584 106.778,159.918 107.5,159.5 Z"/></g>
<g><path style="opacity:1" fill="#2668d7" d="M 246.5,162.5 C 248.981,163.696 248.981,165.196 246.5,167C 228.167,177.5 209.833,188 191.5,198.5C 191.167,198 190.833,197.5 190.5,197C 191.34,195.233 192.673,193.899 194.5,193C 212.061,183.059 229.394,172.892 246.5,162.5 Z"/></g>
<g><path style="opacity:0.991" fill="#f59fa1" d="M 496.5,157.5 C 490.93,155.937 485.264,155.437 479.5,156C 478.196,156.804 477.529,157.971 477.5,159.5C 477.596,163.35 477.762,167.35 478,171.5C 478.526,168.728 479.359,166.062 480.5,163.5C 485.781,164.286 491.115,164.786 496.5,165C 497.544,168.572 498.711,172.072 500,175.5C 501.432,173.561 503.265,172.228 505.5,171.5C 508.251,175.678 507.251,178.678 502.5,180.5C 501.504,180.586 500.671,180.252 500,179.5C 499.22,181.387 499.387,183.054 500.5,184.5C 499.659,186.379 499.325,188.379 499.5,190.5C 497.208,195.646 493.208,197.646 487.5,196.5C 487.575,193.794 487.908,191.127 488.5,188.5C 487.081,187.549 485.415,187.216 483.5,187.5C 481.588,185.343 479.921,183.009 478.5,180.5C 478.663,178.143 478.497,175.81 478,173.5C 475.246,171.873 472.412,170.373 469.5,169C 467.536,167.549 466.203,165.716 465.5,163.5C 469.173,153.321 473.339,143.321 478,133.5C 486.431,129.27 493.765,130.936 500,138.5C 501.422,141.03 501.755,143.697 501,146.5C 499.485,150.192 497.985,153.859 496.5,157.5 Z"/></g>
<g><path style="opacity:1" fill="#c2e3f9" d="M 465.5,163.5 C 466.203,165.716 467.536,167.549 469.5,169C 472.412,170.373 475.246,171.873 478,173.5C 478.497,175.81 478.663,178.143 478.5,180.5C 471.844,179.178 466.511,175.844 462.5,170.5C 463.264,167.982 464.264,165.649 465.5,163.5 Z"/></g>
<g><path style="opacity:1" fill="#36bea0" d="M 462.5,170.5 C 466.511,175.844 471.844,179.178 478.5,180.5C 479.921,183.009 481.588,185.343 483.5,187.5C 483.5,188.167 483.5,188.833 483.5,189.5C 483.167,189.5 482.833,189.5 482.5,189.5C 473.724,188.28 466.057,184.613 459.5,178.5C 459.98,175.557 460.98,172.89 462.5,170.5 Z"/></g>
<g><path style="opacity:1" fill="#fddb51" d="M 183.5,190.5 C 181.852,189.19 180.186,187.857 178.5,186.5C 175.976,190.743 173.643,195.076 171.5,199.5C 170.131,197.876 168.464,197.376 166.5,198C 164.181,202.162 161.514,205.995 158.5,209.5C 158.334,202.492 158.5,195.492 159,188.5C 166.695,182.906 174.862,178.239 183.5,174.5C 183.5,179.833 183.5,185.167 183.5,190.5 Z"/></g>
<g><path style="opacity:1" fill="#f4f9fe" d="M 385.5,119.5 C 387.144,119.286 388.644,119.62 390,120.5C 390.975,139.923 390.641,159.257 389,178.5C 387.442,180.359 385.609,181.859 383.5,183C 361.908,194.934 340.575,207.267 319.5,220C 318.167,220.667 316.833,220.667 315.5,220C 314.839,210.408 314.506,200.741 314.5,191C 314.356,180.739 314.856,170.572 316,160.5C 339.147,146.681 362.314,133.014 385.5,119.5 Z"/></g>
<g><path style="opacity:1" fill="#acd5fd" d="M 339.5,176.5 C 347.617,181.443 355.617,186.61 363.5,192C 351.332,199.585 338.999,206.918 326.5,214C 323.029,216.072 319.362,217.572 315.5,218.5C 315.337,216.143 315.503,213.81 316,211.5C 323.843,199.805 331.677,188.138 339.5,176.5 Z"/></g>
<g><path style="opacity:1" fill="#acd5fd" d="M 370.5,149.5 C 372.371,149.859 373.871,150.859 375,152.5C 378.955,158.123 383.288,163.457 388,168.5C 389.151,172.829 388.318,176.662 385.5,180C 378.67,183.581 372.003,187.414 365.5,191.5C 360.858,189.028 356.858,185.862 353.5,182C 359.044,171.077 364.711,160.243 370.5,149.5 Z"/></g>
<g><path style="opacity:1" fill="#acd5fd" d="M 386.5,120.5 C 387.831,127.636 388.497,135.136 388.5,143C 388.333,150.5 388.167,158 388,165.5C 382.789,159.958 377.956,154.125 373.5,148C 372.056,147.219 370.723,147.386 369.5,148.5C 363.833,159.167 358.167,169.833 352.5,180.5C 351.635,181.583 350.635,181.749 349.5,181C 346.057,177.423 342.057,175.923 337.5,176.5C 330.333,187.5 323.167,198.5 316,209.5C 315.333,194.167 315.333,178.833 316,163.5C 317.873,161.291 320.04,159.458 322.5,158C 344.262,146.035 365.596,133.535 386.5,120.5 Z"/></g>
<g><path style="opacity:1" fill="#f2f8fe" d="M 329.5,158.5 C 332.325,158.081 334.491,159.081 336,161.5C 337.109,167.851 334.942,172.684 329.5,176C 323.143,177.481 320.643,174.981 322,168.5C 323.947,164.724 326.447,161.39 329.5,158.5 Z"/></g>
<g><path style="opacity:1" fill="#add6fd" d="M 329.5,160.5 C 331.144,160.286 332.644,160.62 334,161.5C 335.436,168.296 332.936,172.962 326.5,175.5C 324.539,174.921 323.539,173.587 323.5,171.5C 324.211,167.073 326.211,163.407 329.5,160.5 Z"/></g>
<g><path style="opacity:1" fill="#c1e2f7" d="M 459.5,178.5 C 466.057,184.613 473.724,188.28 482.5,189.5C 482.34,191.153 481.674,192.486 480.5,193.5C 471.112,193.305 463.445,189.638 457.5,182.5C 457.66,180.847 458.326,179.514 459.5,178.5 Z"/></g>
<g><path style="opacity:1" fill="#2dbfa1" d="M 143.5,179.5 C 146.339,181.42 149.339,183.087 152.5,184.5C 151.175,198.667 151.175,212.833 152.5,227C 151.552,227.483 150.552,227.649 149.5,227.5C 145.557,226.724 143.057,224.391 142,220.5C 141.333,207.5 141.333,194.5 142,181.5C 142.278,180.584 142.778,179.918 143.5,179.5 Z"/></g>
<g><path style="opacity:1" fill="#7eecd9" d="M 254.5,185.5 C 253.448,185.351 252.448,185.517 251.5,186C 218.275,205.443 184.942,224.61 151.5,243.5C 148.86,242.18 146.193,240.847 143.5,239.5C 143.937,237.926 144.937,236.759 146.5,236C 178.67,217.081 211.003,198.414 243.5,180C 248.254,179.71 251.92,181.544 254.5,185.5 Z"/></g>
<g><path style="opacity:0.822" fill="#1d2a79" d="M 502.5,180.5 C 502.34,182.153 501.674,183.486 500.5,184.5C 499.387,183.054 499.22,181.387 500,179.5C 500.671,180.252 501.504,180.586 502.5,180.5 Z"/></g>
<g><path style="opacity:0.998" fill="#feda4e" d="M 457.5,182.5 C 463.445,189.638 471.112,193.305 480.5,193.5C 477.696,201.246 474.696,208.912 471.5,216.5C 471.5,217.167 471.5,217.833 471.5,218.5C 469.261,222.649 467.261,226.982 465.5,231.5C 461.544,232.707 457.544,232.374 453.5,230.5C 452.812,232.718 453.812,234.218 456.5,235C 453.183,235.498 449.85,235.665 446.5,235.5C 446.924,240.918 449.924,243.585 455.5,243.5C 457.258,243.408 458.924,243.075 460.5,242.5C 450.874,267.059 440.874,291.392 430.5,315.5C 419.784,317.974 412.117,314.307 407.5,304.5C 419.168,275.828 430.835,247.162 442.5,218.5C 445.341,216.108 448.675,214.608 452.5,214C 454.278,211.865 454.945,209.365 454.5,206.5C 452.085,206.627 449.751,206.793 447.5,207C 448.38,205.644 448.714,204.144 448.5,202.5C 451.5,195.833 454.5,189.167 457.5,182.5 Z"/></g>
<g><path style="opacity:1" fill="#31dcbf" d="M 254.5,185.5 C 255.15,192.59 255.483,199.757 255.5,207C 255.634,214.6 255.134,222.1 254,229.5C 220.801,250.014 186.968,269.347 152.5,287.5C 151.526,272.703 151.193,258.036 151.5,243.5C 184.942,224.61 218.275,205.443 251.5,186C 252.448,185.517 253.448,185.351 254.5,185.5 Z"/></g>
<g><path style="opacity:1" fill="#fedb51" d="M 183.5,193.5 C 183.665,196.518 183.498,199.518 183,202.5C 181.871,204.141 180.371,205.141 178.5,205.5C 173.503,204.01 172.336,201.01 175,196.5C 176.333,193.833 177.667,191.167 179,188.5C 180.707,190.037 182.207,191.704 183.5,193.5 Z"/></g>
<g><path style="opacity:1" fill="#fffbeb" d="M 164.5,186.5 C 167.473,186.965 168.64,188.632 168,191.5C 166.67,195.007 164.17,196.673 160.5,196.5C 159.749,192.18 161.083,188.847 164.5,186.5 Z"/></g>
<g><path style="opacity:1" fill="#ffde61" d="M 164.5,188.5 C 166.768,191.117 166.101,193.45 162.5,195.5C 161.386,194.277 161.219,192.944 162,191.5C 163.045,190.627 163.878,189.627 164.5,188.5 Z"/></g>
<g><path style="opacity:1" fill="#fcdb51" d="M 176.5,206.5 C 171.11,210.863 165.11,214.197 158.5,216.5C 158.5,215.167 158.5,213.833 158.5,212.5C 161.809,208.185 165.143,203.852 168.5,199.5C 171.186,201.856 173.853,204.189 176.5,206.5 Z"/></g>
<g><path style="opacity:0.96" fill="#073791" d="M 488.5,188.5 C 487.908,191.127 487.575,193.794 487.5,196.5C 493.208,197.646 497.208,195.646 499.5,190.5C 502.166,190.933 504.832,191.433 507.5,192C 509.01,193.351 510.01,195.018 510.5,197C 510.443,209.333 510.443,221.833 510.5,234.5C 510.059,239.77 507.059,242.604 501.5,243C 492.999,244.478 484.999,243.311 477.5,239.5C 477.5,238.5 477.5,237.5 477.5,236.5C 485.042,231.633 491.708,225.633 497.5,218.5C 494.914,216.957 492.414,215.291 490,213.5C 486.624,218.377 482.457,222.377 477.5,225.5C 477.5,223.833 477.5,222.167 477.5,220.5C 477.813,217.753 477.48,215.086 476.5,212.5C 474.814,213.857 473.148,215.19 471.5,216.5C 474.696,208.912 477.696,201.246 480.5,193.5C 481.674,192.486 482.34,191.153 482.5,189.5C 482.833,189.5 483.167,189.5 483.5,189.5C 485.042,188.699 486.708,188.366 488.5,188.5 Z"/></g>
<g><path style="opacity:1" fill="#fffae6" d="M 183.5,190.5 C 184.625,191.652 184.625,192.652 183.5,193.5C 182.207,191.704 180.707,190.037 179,188.5C 177.667,191.167 176.333,193.833 175,196.5C 172.336,201.01 173.503,204.01 178.5,205.5C 178.158,206.338 177.492,206.672 176.5,206.5C 173.853,204.189 171.186,201.856 168.5,199.5C 165.143,203.852 161.809,208.185 158.5,212.5C 158.5,211.5 158.5,210.5 158.5,209.5C 161.514,205.995 164.181,202.162 166.5,198C 168.464,197.376 170.131,197.876 171.5,199.5C 173.643,195.076 175.976,190.743 178.5,186.5C 180.186,187.857 181.852,189.19 183.5,190.5 Z"/></g>
<g><path style="opacity:0.975" fill="#feaaa5" d="M 448.5,202.5 C 448.714,204.144 448.38,205.644 447.5,207C 449.751,206.793 452.085,206.627 454.5,206.5C 454.945,209.365 454.278,211.865 452.5,214C 448.675,214.608 445.341,216.108 442.5,218.5C 441.12,218.038 440.453,217.038 440.5,215.5C 441.156,213.547 441.489,211.547 441.5,209.5C 443.803,207.022 445.969,204.355 448,201.5C 448.399,201.728 448.565,202.062 448.5,202.5 Z"/></g>
<g><path style="opacity:0.2" fill="#dbeffe" d="M 407.5,201.5 C 418.553,204.782 429.886,207.448 441.5,209.5C 441.489,211.547 441.156,213.547 440.5,215.5C 440.453,217.038 441.12,218.038 442.5,218.5C 430.835,247.162 419.168,275.828 407.5,304.5C 406.085,312.961 405.419,321.628 405.5,330.5C 403.516,329.844 401.516,329.178 399.5,328.5C 357.963,351.519 316.796,375.185 276,399.5C 275.37,401.903 276.203,403.737 278.5,405C 305.708,420.769 333.042,436.269 360.5,451.5C 361.416,451.457 362.083,451.124 362.5,450.5C 402.139,427.678 441.806,404.845 481.5,382C 483.553,380.322 483.887,378.489 482.5,376.5C 459.665,362.581 436.665,348.915 413.5,335.5C 419.167,328.833 424.833,322.167 430.5,315.5C 440.874,291.392 450.874,267.059 460.5,242.5C 466.06,240.221 471.726,238.221 477.5,236.5C 477.5,237.5 477.5,238.5 477.5,239.5C 475.183,252.705 473.516,266.039 472.5,279.5C 473.734,294.486 476.067,309.153 479.5,323.5C 479.5,325.5 479.5,327.5 479.5,329.5C 479.167,329.5 478.833,329.5 478.5,329.5C 468.79,330.191 460.457,333.858 453.5,340.5C 450.524,345.814 451.191,350.647 455.5,355C 475.771,366.814 496.438,367.481 517.5,357C 526.386,350.536 526.719,343.703 518.5,336.5C 523.265,333.854 528.265,331.687 533.5,330C 538.221,324.624 537.054,321.124 530,319.5C 528.56,320.148 527.06,320.481 525.5,320.5C 531.049,317.125 536.216,313.125 541,308.5C 542.379,304.525 541.213,301.691 537.5,300C 529.944,298.963 523.444,301.13 518,306.5C 515.812,309.567 513.645,312.567 511.5,315.5C 512.936,305.459 512.77,295.459 511,285.5C 510.5,268.503 510.333,251.503 510.5,234.5C 545.709,249.546 574.543,272.546 597,303.5C 605.908,318.055 611.074,333.721 612.5,350.5C 612.5,353.167 612.5,355.833 612.5,358.5C 610.309,379.227 602.809,397.894 590,414.5C 565.193,442.623 535.36,463.79 500.5,478C 443.852,500.382 385.186,512.549 324.5,514.5C 311.833,514.5 299.167,514.5 286.5,514.5C 231.441,512.39 177.774,502.223 125.5,484C 87.9356,470.4 55.1023,449.566 27,421.5C 13.0167,405.533 3.85003,387.2 -0.5,366.5C -0.5,357.833 -0.5,349.167 -0.5,340.5C 6.02766,312.632 20.361,289.465 42.5,271C 61.823,255.529 82.823,242.695 105.5,232.5C 105.333,283.501 105.5,334.501 106,385.5C 108.138,392.658 112.971,395.991 120.5,395.5C 121.873,395.657 123.207,395.49 124.5,395C 153.388,377.939 182.388,361.106 211.5,344.5C 209.811,350.054 209.311,355.72 210,361.5C 221.65,369.408 233.817,376.408 246.5,382.5C 249.597,383.788 252.597,383.288 255.5,381C 277.5,368.333 299.5,355.667 321.5,343C 325.861,340.774 327.361,337.274 326,332.5C 325.617,331.944 325.117,331.611 324.5,331.5C 314.463,324.82 304.463,318.154 294.5,311.5C 293.963,306.779 293.296,302.112 292.5,297.5C 324.806,279.012 357.139,260.512 389.5,242C 393.47,239.869 396.137,236.702 397.5,232.5C 398.493,224.016 398.826,215.349 398.5,206.5C 401.634,205.099 404.634,203.432 407.5,201.5 Z"/></g>
<g><path style="opacity:0.451" fill="#699df2" d="M 396.5,207.5 C 396.842,206.662 397.508,206.328 398.5,206.5C 398.826,215.349 398.493,224.016 397.5,232.5C 397.826,223.983 397.493,215.65 396.5,207.5 Z"/></g>
<g><path style="opacity:1" fill="#f5fdfb" d="M 225.5,208.5 C 226.5,208.5 227.5,208.5 228.5,208.5C 228.548,211.292 227.215,213.125 224.5,214C 213.23,220.465 201.896,226.632 190.5,232.5C 190.297,230.61 190.963,229.11 192.5,228C 203.893,221.978 214.893,215.478 225.5,208.5 Z"/></g>
<g><path style="opacity:1" fill="#2669d7" d="M 246.5,207.5 C 248.981,208.696 248.981,210.196 246.5,212C 228.167,222.5 209.833,233 191.5,243.5C 191.167,243 190.833,242.5 190.5,242C 191.34,240.233 192.673,238.899 194.5,238C 212.061,228.059 229.394,217.892 246.5,207.5 Z"/></g>
<g><path style="opacity:1" fill="#fca8a7" d="M 477.5,236.5 C 471.726,238.221 466.06,240.221 460.5,242.5C 458.924,243.075 457.258,243.408 455.5,243.5C 449.924,243.585 446.924,240.918 446.5,235.5C 449.85,235.665 453.183,235.498 456.5,235C 453.812,234.218 452.812,232.718 453.5,230.5C 457.544,232.374 461.544,232.707 465.5,231.5C 469.783,230.025 473.783,228.025 477.5,225.5C 482.457,222.377 486.624,218.377 490,213.5C 492.414,215.291 494.914,216.957 497.5,218.5C 491.708,225.633 485.042,231.633 477.5,236.5 Z"/></g>
<g><path style="opacity:1" fill="#2668d8" d="M 245.5,215.5 C 246.675,215.281 247.675,215.614 248.5,216.5C 247.687,217.814 246.687,218.981 245.5,220C 227.732,230.3 209.899,240.467 192,250.5C 191.5,250.167 191,249.833 190.5,249.5C 191.313,248.186 192.313,247.019 193.5,246C 211.061,236.059 228.394,225.892 245.5,215.5 Z"/></g>
<g><path style="opacity:0.199" fill="#dcf0fd" d="M 471.5,218.5 C 473.214,219.738 475.214,220.405 477.5,220.5C 477.5,222.167 477.5,223.833 477.5,225.5C 473.783,228.025 469.783,230.025 465.5,231.5C 467.261,226.982 469.261,222.649 471.5,218.5 Z"/></g>
<g><path style="opacity:1" fill="#2669d7" d="M 246.5,222.5 C 248.225,222.843 248.725,223.843 248,225.5C 229.418,236.207 210.918,247.041 192.5,258C 189.981,257.291 189.981,255.957 192.5,254C 210.727,243.726 228.727,233.226 246.5,222.5 Z"/></g>
<g><path style="opacity:1" fill="#fddb52" d="M 183.5,250.5 C 181.852,249.19 180.186,247.857 178.5,246.5C 175.976,250.743 173.643,255.076 171.5,259.5C 170.131,257.876 168.464,257.376 166.5,258C 163.97,262.013 161.304,265.846 158.5,269.5C 158.334,262.492 158.5,255.492 159,248.5C 166.585,242.734 174.751,238.067 183.5,234.5C 183.5,239.833 183.5,245.167 183.5,250.5 Z"/></g>
<g><path style="opacity:1" fill="#2962d9" d="M 510.5,234.5 C 510.333,251.503 510.5,268.503 511,285.5C 512.77,295.459 512.936,305.459 511.5,315.5C 511.5,317.833 511.5,320.167 511.5,322.5C 511.5,323.5 511.5,324.5 511.5,325.5C 510.735,328.096 510.401,330.763 510.5,333.5C 508.283,334.369 505.95,334.702 503.5,334.5C 502.976,332.694 502.309,331.028 501.5,329.5C 497.574,306.942 494.407,284.276 492,261.5C 490.357,268.884 488.523,276.217 486.5,283.5C 487.726,296.824 487.726,310.157 486.5,323.5C 484.167,323.5 481.833,323.5 479.5,323.5C 476.067,309.153 473.734,294.486 472.5,279.5C 473.516,266.039 475.183,252.705 477.5,239.5C 484.999,243.311 492.999,244.478 501.5,243C 507.059,242.604 510.059,239.77 510.5,234.5 Z"/></g>
<g><path style="opacity:1" fill="#2dbfa1" d="M 143.5,239.5 C 146.193,240.847 148.86,242.18 151.5,243.5C 151.193,258.036 151.526,272.703 152.5,287.5C 147.39,287.531 143.89,285.198 142,280.5C 141.333,267.5 141.333,254.5 142,241.5C 142.278,240.584 142.778,239.918 143.5,239.5 Z"/></g>
<g><path style="opacity:1" fill="#7eecd9" d="M 254.5,245.5 C 252.692,245.491 251.025,245.991 249.5,247C 216.942,266.11 184.275,284.943 151.5,303.5C 148.581,301.872 145.581,300.538 142.5,299.5C 143.716,297.549 145.382,296.049 147.5,295C 179.5,276.667 211.5,258.333 243.5,240C 246.783,239.257 249.783,239.924 252.5,242C 253.823,242.816 254.489,243.983 254.5,245.5 Z"/></g>
<g><path style="opacity:1" fill="#30dcbf" d="M 254.5,245.5 C 255.15,252.59 255.483,259.757 255.5,267C 255.634,274.6 255.134,282.1 254,289.5C 220.476,309.508 186.642,328.841 152.5,347.5C 151.526,332.703 151.193,318.036 151.5,303.5C 184.275,284.943 216.942,266.11 249.5,247C 251.025,245.991 252.692,245.491 254.5,245.5 Z"/></g>
<g><path style="opacity:1" fill="#fedb4f" d="M 183.5,252.5 C 183.665,255.85 183.498,259.183 183,262.5C 181.871,264.141 180.371,265.141 178.5,265.5C 175.468,264.001 173.968,261.668 174,258.5C 175.667,255.167 177.333,251.833 179,248.5C 180.371,250.041 181.871,251.375 183.5,252.5 Z"/></g>
<g><path style="opacity:1" fill="#fff9e6" d="M 163.5,246.5 C 168.377,246.963 169.544,249.296 167,253.5C 164.132,257.621 161.966,257.454 160.5,253C 160.84,250.489 161.84,248.322 163.5,246.5 Z"/></g>
<g><path style="opacity:1" fill="#ffdd5c" d="M 163.5,248.5 C 164.5,248.5 165.5,248.5 166.5,248.5C 166.676,252.192 165.009,254.192 161.5,254.5C 161.704,252.315 162.37,250.315 163.5,248.5 Z"/></g>
<g><path style="opacity:1" fill="#fcdb51" d="M 176.5,266.5 C 171.11,270.863 165.11,274.197 158.5,276.5C 158.5,275.167 158.5,273.833 158.5,272.5C 161.582,268.016 164.916,263.683 168.5,259.5C 171.212,261.885 173.878,264.218 176.5,266.5 Z"/></g>
<g><path style="opacity:1" fill="#fffae5" d="M 183.5,250.5 C 183.5,251.167 183.5,251.833 183.5,252.5C 181.871,251.375 180.371,250.041 179,248.5C 177.333,251.833 175.667,255.167 174,258.5C 173.968,261.668 175.468,264.001 178.5,265.5C 178.158,266.338 177.492,266.672 176.5,266.5C 173.878,264.218 171.212,261.885 168.5,259.5C 164.916,263.683 161.582,268.016 158.5,272.5C 158.5,271.5 158.5,270.5 158.5,269.5C 161.304,265.846 163.97,262.013 166.5,258C 168.464,257.376 170.131,257.876 171.5,259.5C 173.643,255.076 175.976,250.743 178.5,246.5C 180.186,247.857 181.852,249.19 183.5,250.5 Z"/></g>
<g><path style="opacity:0.2" fill="#d9eefe" d="M 501.5,329.5 C 496.473,329.497 491.473,329.164 486.5,328.5C 486.5,326.833 486.5,325.167 486.5,323.5C 487.726,310.157 487.726,296.824 486.5,283.5C 488.523,276.217 490.357,268.884 492,261.5C 494.407,284.276 497.574,306.942 501.5,329.5 Z"/></g>
<g><path style="opacity:1" fill="#f4fdfb" d="M 226.5,267.5 C 228.71,268.455 229.043,269.955 227.5,272C 215.663,279.086 203.663,285.92 191.5,292.5C 190.275,290.157 190.941,288.323 193.5,287C 204.893,280.978 215.893,274.478 226.5,267.5 Z"/></g>
<g><path style="opacity:1" fill="#2668d7" d="M 246.5,267.5 C 248.225,267.843 248.725,268.843 248,270.5C 229.48,281.427 210.813,292.093 192,302.5C 190.274,301.352 190.441,300.185 192.5,299C 210.727,288.726 228.727,278.226 246.5,267.5 Z"/></g>
<g><path style="opacity:1" fill="#2669d7" d="M 246.5,274.5 C 248.225,274.843 248.725,275.843 248,277.5C 229.916,288.459 211.749,299.293 193.5,310C 189.884,310.259 189.551,309.092 192.5,306.5C 210.893,296.311 228.893,285.644 246.5,274.5 Z"/></g>
<g><path style="opacity:1" fill="#2668d7" d="M 246.5,282.5 C 248.225,282.843 248.725,283.843 248,285.5C 229.48,296.427 210.813,307.093 192,317.5C 190.274,316.352 190.441,315.185 192.5,314C 210.727,303.726 228.727,293.226 246.5,282.5 Z"/></g>
<g><path style="opacity:1" fill="#fddb52" d="M 183.5,309.5 C 182.373,308.878 181.373,308.045 180.5,307C 179.365,306.251 178.365,306.417 177.5,307.5C 175.484,311.531 173.484,315.531 171.5,319.5C 170.131,317.876 168.464,317.376 166.5,318C 163.97,322.013 161.304,325.846 158.5,329.5C 158.201,322.109 158.535,314.776 159.5,307.5C 166.958,302.105 174.958,297.772 183.5,294.5C 183.5,299.5 183.5,304.5 183.5,309.5 Z"/></g>
<g><path style="opacity:1" fill="#2244bb" d="M 270.5,294.5 C 271.833,294.5 273.167,294.5 274.5,294.5C 274.747,297.505 273.747,300.005 271.5,302C 262.054,307.721 252.388,312.887 242.5,317.5C 242.22,314.728 242.887,312.228 244.5,310C 253.395,305.059 262.062,299.892 270.5,294.5 Z"/></g>
<g><path style="opacity:1" fill="#012277" d="M 292.5,297.5 C 293.296,302.112 293.963,306.779 294.5,311.5C 294.063,313.074 293.063,314.241 291.5,315C 266.643,328.926 241.976,343.092 217.5,357.5C 217.314,351.69 217.98,346.023 219.5,340.5C 243.633,325.929 267.966,311.596 292.5,297.5 Z"/></g>
<g><path style="opacity:1" fill="#2dbfa1" d="M 142.5,299.5 C 145.581,300.538 148.581,301.872 151.5,303.5C 151.193,318.036 151.526,332.703 152.5,347.5C 147.368,347.523 143.868,345.19 142,340.5C 141.202,326.788 141.369,313.122 142.5,299.5 Z"/></g>
<g><path style="opacity:0.999" fill="#26bda0" d="M 525.5,320.5 C 519.583,323.749 514.583,328.082 510.5,333.5C 510.401,330.763 510.735,328.096 511.5,325.5C 515.381,319.276 520.048,313.609 525.5,308.5C 519.827,312.173 515.161,316.839 511.5,322.5C 511.5,320.167 511.5,317.833 511.5,315.5C 513.645,312.567 515.812,309.567 518,306.5C 523.444,301.13 529.944,298.963 537.5,300C 541.213,301.691 542.379,304.525 541,308.5C 536.216,313.125 531.049,317.125 525.5,320.5 Z"/></g>
<g><path style="opacity:1" fill="#cff0ea" d="M 525.5,308.5 C 528.385,305.058 532.051,303.224 536.5,303C 532.78,304.86 529.114,306.693 525.5,308.5 Z"/></g>
<g><path style="opacity:1" fill="#fffae8" d="M 163.5,306.5 C 164.833,306.5 166.167,306.5 167.5,306.5C 168.558,311.137 167.058,314.47 163,316.5C 161.053,315.956 160.22,314.623 160.5,312.5C 160.628,310.045 161.628,308.045 163.5,306.5 Z"/></g>
<g><path style="opacity:1" fill="#fda9a7" d="M 407.5,304.5 C 412.117,314.307 419.784,317.974 430.5,315.5C 424.833,322.167 419.167,328.833 413.5,335.5C 412.5,336.167 411.5,336.833 410.5,337.5C 408.668,336.752 407.001,335.752 405.5,334.5C 405.5,333.167 405.5,331.833 405.5,330.5C 405.419,321.628 406.085,312.961 407.5,304.5 Z"/></g>
<g><path style="opacity:1" fill="#ffde5f" d="M 163.5,308.5 C 164.5,308.5 165.5,308.5 166.5,308.5C 166.676,312.192 165.009,314.192 161.5,314.5C 161.604,312.297 162.27,310.297 163.5,308.5 Z"/></g>
<g><path style="opacity:1" fill="#fedb4f" d="M 183.5,313.5 C 183.665,316.518 183.498,319.518 183,322.5C 181.729,323.883 180.229,324.883 178.5,325.5C 175.468,324.001 173.968,321.668 174,318.5C 175.682,315.136 177.349,311.802 179,308.5C 180.707,310.037 182.207,311.704 183.5,313.5 Z"/></g>
<g><path style="opacity:1" fill="#fef9e3" d="M 183.5,309.5 C 184.686,310.961 184.686,312.295 183.5,313.5C 182.207,311.704 180.707,310.037 179,308.5C 177.349,311.802 175.682,315.136 174,318.5C 173.968,321.668 175.468,324.001 178.5,325.5C 178.158,326.338 177.492,326.672 176.5,326.5C 173.562,324.066 170.729,321.399 168,318.5C 165.058,323.406 161.891,328.072 158.5,332.5C 158.5,331.5 158.5,330.5 158.5,329.5C 161.304,325.846 163.97,322.013 166.5,318C 168.464,317.376 170.131,317.876 171.5,319.5C 173.484,315.531 175.484,311.531 177.5,307.5C 178.365,306.417 179.365,306.251 180.5,307C 181.373,308.045 182.373,308.878 183.5,309.5 Z"/></g>
<g><path style="opacity:1" fill="#4b9dfd" d="M 294.5,311.5 C 304.463,318.154 314.463,324.82 324.5,331.5C 324.063,333.074 323.063,334.241 321.5,335C 299.5,347.667 277.5,360.333 255.5,373C 253.257,374.136 250.924,374.97 248.5,375.5C 237.383,370.778 227.05,364.778 217.5,357.5C 241.976,343.092 266.643,328.926 291.5,315C 293.063,314.241 294.063,313.074 294.5,311.5 Z"/></g>
<g><path style="opacity:1" fill="#d6f2ec" d="M 525.5,308.5 C 520.048,313.609 515.381,319.276 511.5,325.5C 511.5,324.5 511.5,323.5 511.5,322.5C 515.161,316.839 519.827,312.173 525.5,308.5 Z"/></g>
<g><path style="opacity:1" fill="#fbdb52" d="M 176.5,326.5 C 170.787,330.356 164.787,333.69 158.5,336.5C 158.5,335.167 158.5,333.833 158.5,332.5C 161.891,328.072 165.058,323.406 168,318.5C 170.729,321.399 173.562,324.066 176.5,326.5 Z"/></g>
<g><path style="opacity:0.999" fill="#25bea0" d="M 92.5,412.5 C 95.4424,408.277 97.6091,403.61 99,398.5C 100.188,394.259 99.3549,390.592 96.5,387.5C 99.4548,362.874 91.7882,342.04 73.5,325C 72.6683,324.312 72.0016,324.479 71.5,325.5C 89.3949,341.323 97.3949,361.323 95.5,385.5C 93.4959,384.327 91.9959,382.66 91,380.5C 91.5403,375.474 91.3737,370.474 90.5,365.5C 87.2823,362.871 83.6157,361.204 79.5,360.5C 75.0106,353.528 70.5106,346.528 66,339.5C 63.9327,335.361 63.266,331.027 64,326.5C 66.7675,320.828 71.2675,318.994 77.5,321C 90.4686,327.65 98.6353,338.15 102,352.5C 105.265,370.49 105.265,388.49 102,406.5C 98.8896,408.636 95.7229,410.636 92.5,412.5 Z"/></g>
<g><path style="opacity:0.997" fill="#4be0c5" d="M 518.5,336.5 C 516.445,338.555 514.112,340.221 511.5,341.5C 511.5,340.833 511.167,340.5 510.5,340.5C 510.5,338.167 510.5,335.833 510.5,333.5C 514.583,328.082 519.583,323.749 525.5,320.5C 527.06,320.481 528.56,320.148 530,319.5C 537.054,321.124 538.221,324.624 533.5,330C 528.265,331.687 523.265,333.854 518.5,336.5 Z"/></g>
<g><path style="opacity:1" fill="#efa1a7" d="M 479.5,323.5 C 481.833,323.5 484.167,323.5 486.5,323.5C 486.5,325.167 486.5,326.833 486.5,328.5C 486.167,329.167 485.833,329.833 485.5,330.5C 482.988,332.179 480.988,331.845 479.5,329.5C 479.5,327.5 479.5,325.5 479.5,323.5 Z"/></g>
<g><path style="opacity:1" fill="#defaf5" d="M 527.5,323.5 C 529.199,323.34 530.866,323.506 532.5,324C 528.391,325.408 524.391,326.741 520.5,328C 522.898,326.476 525.231,324.976 527.5,323.5 Z"/></g>
<g><path style="opacity:1" fill="#d5ecfe" d="M 405.5,330.5 C 405.5,331.833 405.5,333.167 405.5,334.5C 405.5,335.167 405.5,335.833 405.5,336.5C 404.862,338.573 403.862,340.573 402.5,342.5C 420.798,353.319 439.131,364.152 457.5,375C 459.074,375.699 460.407,375.365 461.5,374C 443.329,363.303 425.329,352.47 407.5,341.5C 408.5,340.167 409.5,338.833 410.5,337.5C 411.5,336.833 412.5,336.167 413.5,335.5C 436.665,348.915 459.665,362.581 482.5,376.5C 442.558,400.478 402.224,423.978 361.5,447C 360.015,448.756 360.348,449.923 362.5,450.5C 362.083,451.124 361.416,451.457 360.5,451.5C 333.042,436.269 305.708,420.769 278.5,405C 276.203,403.737 275.37,401.903 276,399.5C 316.796,375.185 357.963,351.519 399.5,328.5C 401.516,329.178 403.516,329.844 405.5,330.5 Z"/></g>
<g><path style="opacity:0.997" fill="#aad3fb" d="M 486.5,328.5 C 491.473,329.164 496.473,329.497 501.5,329.5C 502.309,331.028 502.976,332.694 503.5,334.5C 503.5,336.5 503.5,338.5 503.5,340.5C 501.002,345.513 497.502,349.846 493,353.5C 492.226,356.727 493.559,358.06 497,357.5C 500.28,357.296 503.28,356.296 506,354.5C 506.749,351.243 508.416,348.576 511,346.5C 511.494,344.866 511.66,343.199 511.5,341.5C 514.112,340.221 516.445,338.555 518.5,336.5C 526.719,343.703 526.386,350.536 517.5,357C 496.438,367.481 475.771,366.814 455.5,355C 451.191,350.647 450.524,345.814 453.5,340.5C 460.457,333.858 468.79,330.191 478.5,329.5C 478.063,331.074 477.063,332.241 475.5,333C 471.952,334.941 468.286,336.607 464.5,338C 463.167,339.333 463.167,340.667 464.5,342C 467.5,342.667 470.5,342.667 473.5,342C 477.943,340.06 482.61,339.06 487.5,339C 489.056,335.608 488.389,332.775 485.5,330.5C 485.833,329.833 486.167,329.167 486.5,328.5 Z"/></g>
<g><path style="opacity:1" fill="#09267a" d="M 478.5,329.5 C 478.833,329.5 479.167,329.5 479.5,329.5C 480.988,331.845 482.988,332.179 485.5,330.5C 488.389,332.775 489.056,335.608 487.5,339C 482.61,339.06 477.943,340.06 473.5,342C 470.5,342.667 467.5,342.667 464.5,342C 463.167,340.667 463.167,339.333 464.5,338C 468.286,336.607 471.952,334.941 475.5,333C 477.063,332.241 478.063,331.074 478.5,329.5 Z"/></g>
<g><path style="opacity:1" fill="#2861d8" d="M 324.5,331.5 C 325.117,331.611 325.617,331.944 326,332.5C 327.361,337.274 325.861,340.774 321.5,343C 299.5,355.667 277.5,368.333 255.5,381C 252.597,383.288 249.597,383.788 246.5,382.5C 248.344,380.721 249.01,378.388 248.5,375.5C 250.924,374.97 253.257,374.136 255.5,373C 277.5,360.333 299.5,347.667 321.5,335C 323.063,334.241 324.063,333.074 324.5,331.5 Z"/></g>
<g><path style="opacity:1" fill="#f3a7a7" d="M 510.5,333.5 C 510.5,335.833 510.5,338.167 510.5,340.5C 508.021,341.623 505.688,341.623 503.5,340.5C 503.5,338.5 503.5,336.5 503.5,334.5C 505.95,334.702 508.283,334.369 510.5,333.5 Z"/></g>
<g><path style="opacity:1" fill="#0c2477" d="M 405.5,334.5 C 407.001,335.752 408.668,336.752 410.5,337.5C 409.5,338.833 408.5,340.167 407.5,341.5C 406.883,341.611 406.383,341.944 406,342.5C 405.505,340.527 405.338,338.527 405.5,336.5C 405.5,335.833 405.5,335.167 405.5,334.5 Z"/></g>
<g><path style="opacity:1" fill="#ebf9f6" d="M 96.5,387.5 C 96.1667,386.833 95.8333,386.167 95.5,385.5C 97.3949,361.323 89.3949,341.323 71.5,325.5C 72.0016,324.479 72.6683,324.312 73.5,325C 91.7882,342.04 99.4548,362.874 96.5,387.5 Z"/></g>
<g><path style="opacity:0.999" fill="#2645ba" d="M 219.5,340.5 C 217.98,346.023 217.314,351.69 217.5,357.5C 227.05,364.778 237.383,370.778 248.5,375.5C 249.01,378.388 248.344,380.721 246.5,382.5C 233.817,376.408 221.65,369.408 210,361.5C 209.311,355.72 209.811,350.054 211.5,344.5C 213.938,342.733 216.605,341.399 219.5,340.5 Z"/></g>
<g><path style="opacity:1" fill="#59a2fb" d="M 405.5,336.5 C 405.338,338.527 405.505,340.527 406,342.5C 406.383,341.944 406.883,341.611 407.5,341.5C 425.329,352.47 443.329,363.303 461.5,374C 460.407,375.365 459.074,375.699 457.5,375C 439.131,364.152 420.798,353.319 402.5,342.5C 403.862,340.573 404.862,338.573 405.5,336.5 Z"/></g>
<g><path style="opacity:1" fill="#062578" d="M 503.5,340.5 C 505.688,341.623 508.021,341.623 510.5,340.5C 511.167,340.5 511.5,340.833 511.5,341.5C 511.66,343.199 511.494,344.866 511,346.5C 508.416,348.576 506.749,351.243 506,354.5C 503.28,356.296 500.28,357.296 497,357.5C 493.559,358.06 492.226,356.727 493,353.5C 497.502,349.846 501.002,345.513 503.5,340.5 Z"/></g>
<g><path style="opacity:1" fill="#58a4ff" d="M 392.5,346.5 C 393.873,346.343 395.207,346.51 396.5,347C 415.199,357.344 433.532,368.177 451.5,379.5C 449.926,380.631 448.259,380.798 446.5,380C 429.833,370.333 413.167,360.667 396.5,351C 394.365,350.124 393.031,348.624 392.5,346.5 Z"/></g>
<g><path style="opacity:0.999" fill="#2ddec0" d="M 79.5,360.5 C 83.6157,361.204 87.2823,362.871 90.5,365.5C 91.3737,370.474 91.5403,375.474 91,380.5C 91.9959,382.66 93.4959,384.327 95.5,385.5C 95.8333,386.167 96.1667,386.833 96.5,387.5C 99.3549,390.592 100.188,394.259 99,398.5C 97.6091,403.61 95.4424,408.277 92.5,412.5C 89.1401,414.18 85.8068,415.847 82.5,417.5C 82.9938,405.457 81.6604,393.624 78.5,382C 79.4672,376.233 82.1339,371.399 86.5,367.5C 85.9984,366.479 85.3317,366.312 84.5,367C 80.8549,370.453 78.3549,374.62 77,379.5C 72.9046,368.294 66.5713,358.627 58,350.5C 57.6848,351.908 58.0181,353.241 59,354.5C 67.7078,363.581 73.5411,374.248 76.5,386.5C 73.6887,386.174 71.022,385.341 68.5,384C 51.1666,384.002 51.1666,384.669 68.5,386C 76.1767,386.675 80.01,390.842 80,398.5C 80.4996,405.492 80.6663,412.492 80.5,419.5C 75.8673,421.483 71.534,423.983 67.5,427C 60.7477,427.939 56.2477,425.106 54,418.5C 53.411,411.644 54.0776,404.977 56,398.5C 53.3702,394.868 50.3702,391.535 47,388.5C 45.1198,384.195 45.7865,380.195 49,376.5C 53.5008,373.174 55.5008,368.841 55,363.5C 52.428,360.287 50.928,356.62 50.5,352.5C 51.5784,346.905 54.9117,345.072 60.5,347C 66.0274,349.522 70.6941,353.189 74.5,358C 76.0779,359.094 77.7446,359.928 79.5,360.5 Z"/></g>
<g><path style="opacity:1" fill="#58a4ff" d="M 382.5,352.5 C 384.989,352.298 387.323,352.798 389.5,354C 405.908,364.066 422.574,373.733 439.5,383C 442.165,385.711 441.498,386.711 437.5,386C 420.167,376 402.833,366 385.5,356C 383.937,355.241 382.937,354.074 382.5,352.5 Z"/></g>
<g><path style="opacity:1" fill="#5aa5ff" d="M 373.5,357.5 C 393.718,367.612 413.385,378.778 432.5,391C 430.586,392.827 428.586,392.827 426.5,391C 408.5,380.333 390.5,369.667 372.5,359C 373.056,358.617 373.389,358.117 373.5,357.5 Z"/></g>
<g><path style="opacity:1" fill="#58a4ff" d="M 345.5,373.5 C 346.873,373.343 348.207,373.51 349.5,374C 367.833,384.833 386.167,395.667 404.5,406.5C 402.926,407.631 401.259,407.798 399.5,407C 382.167,397 364.833,387 347.5,377C 346.177,376.184 345.511,375.017 345.5,373.5 Z"/></g>
<g><path style="opacity:1" fill="#eefcf9" d="M 82.5,417.5 C 82.5,418.833 81.8333,419.5 80.5,419.5C 80.6663,412.492 80.4996,405.492 80,398.5C 80.01,390.842 76.1767,386.675 68.5,386C 51.1666,384.669 51.1666,384.002 68.5,384C 71.022,385.341 73.6887,386.174 76.5,386.5C 73.5411,374.248 67.7078,363.581 59,354.5C 58.0181,353.241 57.6848,351.908 58,350.5C 66.5713,358.627 72.9046,368.294 77,379.5C 78.3549,374.62 80.8549,370.453 84.5,367C 85.3317,366.312 85.9984,366.479 86.5,367.5C 82.1339,371.399 79.4672,376.233 78.5,382C 81.6604,393.624 82.9938,405.457 82.5,417.5 Z"/></g>
<g><path style="opacity:0.982" fill="#aed6fd" d="M 482.5,376.5 C 483.887,378.489 483.553,380.322 481.5,382C 441.806,404.845 402.139,427.678 362.5,450.5C 360.348,449.923 360.015,448.756 361.5,447C 402.224,423.978 442.558,400.478 482.5,376.5 Z"/></g>
<g><path style="opacity:1" fill="#57a4ff" d="M 335.5,379.5 C 339.105,379.799 342.439,380.965 345.5,383C 362.201,392.345 378.534,402.178 394.5,412.5C 392.45,413.663 390.45,413.496 388.5,412C 372.092,401.934 355.426,392.267 338.5,383C 336.937,382.241 335.937,381.074 335.5,379.5 Z"/></g>
<g><path style="opacity:1" fill="#57a4ff" d="M 381.5,383.5 C 383.199,383.34 384.866,383.506 386.5,384C 395.833,389.667 405.167,395.333 414.5,401C 412.586,402.827 410.586,402.827 408.5,401C 399.833,396 391.167,391 382.5,386C 381.748,385.329 381.414,384.496 381.5,383.5 Z"/></g>
<g><path style="opacity:1" fill="#59a5ff" d="M 326.5,384.5 C 328.308,384.491 329.975,384.991 331.5,386C 349.5,396.667 367.5,407.333 385.5,418C 384.407,419.365 383.074,419.699 381.5,419C 363.63,408.3 345.63,397.8 327.5,387.5C 326.614,386.675 326.281,385.675 326.5,384.5 Z"/></g>
<g><path style="opacity:1" fill="#356adc" d="M 315.5,404.5 C 326.217,409.361 336.551,415.027 346.5,421.5C 344.102,422.724 341.769,422.558 339.5,421C 331.5,416.333 323.5,411.667 315.5,407C 314.402,406.23 314.402,405.397 315.5,404.5 Z"/></g>
<g><path style="opacity:1" fill="#51a1ff" d="M 351.5,422.5 C 355.936,422.21 360.27,422.71 364.5,424C 367.215,427.72 366.215,430.387 361.5,432C 356.848,433.193 352.681,432.36 349,429.5C 348.833,428.667 348.667,427.833 348.5,427C 349.008,425.107 350.008,423.607 351.5,422.5 Z"/></g>
</svg>
