<?xml version="1.0" encoding="UTF-8"?>
<!DOCTYPE svg PUBLIC "-//W3C//DTD SVG 1.1//EN" "http://www.w3.org/Graphics/SVG/1.1/DTD/svg11.dtd">
<svg xmlns="http://www.w3.org/2000/svg" version="1.1" width="641px" height="488px" style="shape-rendering:geometricPrecision; text-rendering:geometricPrecision; image-rendering:optimizeQuality; fill-rule:evenodd; clip-rule:evenodd" xmlns:xlink="http://www.w3.org/1999/xlink">
<g><path style="opacity:0.993" fill="#f4f4f4" d="M 255.5,-0.5 C 256.833,-0.5 258.167,-0.5 259.5,-0.5C 262.009,0.921263 264.343,2.58793 266.5,4.5C 247.726,14.7226 229.059,25.2226 210.5,36C 209.167,36.6667 207.833,36.6667 206.5,36C 204.308,34.9331 202.642,33.4331 201.5,31.5C 219.5,20.8333 237.5,10.1667 255.5,-0.5 Z"/></g>
<g><path style="opacity:0.961" fill="#e7e7e7" d="M 266.5,4.5 C 266.5,14.1667 266.5,23.8333 266.5,33.5C 262.988,34.2934 259.654,33.4601 256.5,31C 254.998,28.4259 253.998,25.5926 253.5,22.5C 250.661,24.4203 247.661,26.0869 244.5,27.5C 243.727,29.813 243.06,32.1463 242.5,34.5C 242.702,44.2675 242.702,54.2675 242.5,64.5C 243.154,66.1151 243.654,67.7818 244,69.5C 245.753,68.373 247.587,67.373 249.5,66.5C 253.202,68.1549 256.202,70.4882 258.5,73.5C 245.303,82.6909 231.47,91.0242 217,98.5C 205.664,93.8607 205.831,89.3607 217.5,85C 219,82.8333 220.5,80.6667 222,78.5C 223.753,65.877 223.92,53.2103 222.5,40.5C 213.604,45.9615 209.771,53.9615 211,64.5C 207.174,65.6092 203.841,64.6092 201,61.5C 200.175,51.3247 200.342,41.3247 201.5,31.5C 202.642,33.4331 204.308,34.9331 206.5,36C 207.833,36.6667 209.167,36.6667 210.5,36C 229.059,25.2226 247.726,14.7226 266.5,4.5 Z"/></g>
<g><path style="opacity:0.987" fill="#eeeeee" d="M 480.5,43.5 C 473.552,45.7738 467.052,49.1071 461,53.5C 460.667,50.1667 460.333,46.8333 460,43.5C 456.924,41.5743 453.758,39.9076 450.5,38.5C 459.437,32.3566 468.77,26.6899 478.5,21.5C 481.661,22.9131 484.661,24.5797 487.5,26.5C 488.66,30.4589 488.827,34.4589 488,38.5C 485.176,39.8181 482.676,41.4848 480.5,43.5 Z"/></g>
<g><path style="opacity:0.968" fill="#e0e0e0" d="M 450.5,38.5 C 453.758,39.9076 456.924,41.5743 460,43.5C 460.333,46.8333 460.667,50.1667 461,53.5C 467.052,49.1071 473.552,45.7738 480.5,43.5C 481.694,44.2719 482.694,45.2719 483.5,46.5C 479.061,48.554 474.728,50.8873 470.5,53.5C 469.669,60.4764 469.169,67.4764 469,74.5C 467.234,82.5308 463.067,89.0308 456.5,94C 462.265,102.769 468.432,111.269 475,119.5C 475.333,110.5 475.667,101.5 476,92.5C 476.17,102.009 476.67,111.342 477.5,120.5C 477.5,120.833 477.5,121.167 477.5,121.5C 476.833,121.5 476.5,121.833 476.5,122.5C 472.888,120.728 469.388,118.728 466,116.5C 459.36,107.026 452.527,97.693 445.5,88.5C 457.457,80.2365 461.957,68.9031 459,54.5C 456.502,52.583 453.835,50.9164 451,49.5C 450.501,45.8484 450.335,42.1817 450.5,38.5 Z"/></g>
<g><path style="opacity:0.981" fill="#e9e9e9" d="M 483.5,46.5 C 483.334,52.5092 483.501,58.5092 484,64.5C 485.645,64.6932 487.479,64.8598 489.5,65C 492.167,66.6667 494.833,68.3333 497.5,70C 490.414,86.6712 483.747,103.505 477.5,120.5C 476.67,111.342 476.17,102.009 476,92.5C 475.667,101.5 475.333,110.5 475,119.5C 468.432,111.269 462.265,102.769 456.5,94C 463.067,89.0308 467.234,82.5308 469,74.5C 469.169,67.4764 469.669,60.4764 470.5,53.5C 474.728,50.8873 479.061,48.554 483.5,46.5 Z"/></g>
<g><path style="opacity:0.645" fill="#ececec" d="M 476.5,122.5 C 477.167,122.5 477.5,122.167 477.5,121.5C 501.499,104.841 513.999,81.8406 515,52.5C 517.086,49.9603 518.586,50.127 519.5,53C 516.683,76.1521 507.35,96.1521 491.5,113C 497.633,110.6 503.633,107.6 509.5,104C 512.626,102.371 515.293,100.205 517.5,97.5C 520.019,99.3591 520.019,101.359 517.5,103.5C 516.28,104.711 515.113,104.711 514,103.5C 488.915,118.293 463.749,132.96 438.5,147.5C 437.5,149.167 436.167,150.5 434.5,151.5C 433.09,149.051 433.424,146.884 435.5,145C 436.449,144.383 437.282,144.549 438,145.5C 446.084,140.541 454.251,135.707 462.5,131C 449.102,131.916 440.269,126.083 436,113.5C 434.882,108.843 434.215,104.176 434,99.5C 435.612,96.9211 437.112,96.9211 438.5,99.5C 435.796,109.242 438.129,117.742 445.5,125C 456.325,130.07 466.659,129.237 476.5,122.5 Z"/></g>
<g><path style="opacity:0.994" fill="#273238" d="M 367.5,113.5 C 368.05,105.332 367.217,97.3318 365,89.5C 364,88.1667 363,86.8333 362,85.5C 353.66,94.2551 343.494,99.7551 331.5,102C 330.104,114.318 328.104,114.318 325.5,102C 322.211,101.254 319.711,102.42 318,105.5C 316.123,114.435 319.623,119.102 328.5,119.5C 328.5,121.833 328.5,124.167 328.5,126.5C 316.646,121.471 310.813,112.471 311,99.5C 305.184,100.584 301.184,98.251 299,92.5C 297.38,80.4634 302.547,74.2967 314.5,74C 317.237,75.0635 319.737,76.5635 322,78.5C 338.072,68.8846 352.405,70.8846 365,84.5C 371.109,93.8533 371.942,103.52 367.5,113.5 Z"/></g>
<g><path style="opacity:0.99" fill="#f9a4a3" d="M 367.5,113.5 C 367,119.85 364.667,125.35 360.5,130C 356.586,131.529 352.586,131.696 348.5,130.5C 348.5,132.167 348.5,133.833 348.5,135.5C 348.062,135.435 347.728,135.601 347.5,136C 352.081,140.99 351.415,144.99 345.5,148C 337.393,148.78 331.393,145.614 327.5,138.5C 327.395,134.452 327.728,130.452 328.5,126.5C 328.5,124.167 328.5,121.833 328.5,119.5C 319.623,119.102 316.123,114.435 318,105.5C 319.711,102.42 322.211,101.254 325.5,102C 328.104,114.318 330.104,114.318 331.5,102C 343.494,99.7551 353.66,94.2551 362,85.5C 363,86.8333 364,88.1667 365,89.5C 367.217,97.3318 368.05,105.332 367.5,113.5 Z"/></g>
<g><path style="opacity:1" fill="#2f363c" d="M 347.5,98.5 C 351.276,98.4692 351.443,99.1359 348,100.5C 346.316,100.317 346.15,99.6499 347.5,98.5 Z"/></g>
<g><path style="opacity:1" fill="#444247" d="M 363.5,98.5 C 365.973,98.6043 366.639,99.6043 365.5,101.5C 363.129,101.108 362.462,100.108 363.5,98.5 Z"/></g>
<g><path style="opacity:1" fill="#454247" d="M 348.5,104.5 C 351.861,105.203 352.194,106.537 349.5,108.5C 347.358,107.563 347.024,106.23 348.5,104.5 Z"/></g>
<g><path style="opacity:1" fill="#454247" d="M 362.5,103.5 C 365.861,104.203 366.194,105.537 363.5,107.5C 361.358,106.563 361.024,105.23 362.5,103.5 Z"/></g>
<g><path style="opacity:0.929" fill="#fba6a6" d="M 349.5,135.5 C 359.847,133.139 365.514,137.472 366.5,148.5C 365.691,150.071 365.357,151.738 365.5,153.5C 365.5,154.167 365.167,154.5 364.5,154.5C 360.223,147.621 355.223,141.288 349.5,135.5 Z"/></g>
<g><path style="opacity:1" fill="#f8f8f8" d="M 164.5,150.5 C 165.084,153.67 165.75,156.837 166.5,160C 166.167,160.833 165.833,161.667 165.5,162.5C 153.785,169.383 141.951,176.05 130,182.5C 129.228,182.355 128.561,182.022 128,181.5C 127.594,178.258 126.761,175.258 125.5,172.5C 123.999,166.828 122.833,161.161 122,155.5C 132.75,148.874 143.584,142.374 154.5,136C 156.65,134.589 158.984,133.755 161.5,133.5C 162.66,139.14 163.66,144.807 164.5,150.5 Z"/></g>
<g><path style="opacity:0.999" fill="#05358d" d="M 348.5,135.5 C 348.833,135.5 349.167,135.5 349.5,135.5C 355.223,141.288 360.223,147.621 364.5,154.5C 367.317,164.259 366.983,173.926 363.5,183.5C 362.71,184.609 362.21,185.942 362,187.5C 361.501,193.157 361.334,198.824 361.5,204.5C 361.5,209.833 361.5,215.167 361.5,220.5C 357.395,225.102 352.562,228.769 347,231.5C 345.687,228.605 344.52,225.605 343.5,222.5C 340.107,216.737 338.107,217.237 337.5,224C 338.426,227.541 339.426,231.041 340.5,234.5C 334.879,235.354 329.212,235.687 323.5,235.5C 317.491,229.49 311.825,223.157 306.5,216.5C 308.839,212.643 311.006,208.643 313,204.5C 313.837,200.852 313.337,197.519 311.5,194.5C 315.35,182.266 318.016,169.766 319.5,157C 319.596,151.203 317.93,146.037 314.5,141.5C 318.9,140.698 323.233,139.698 327.5,138.5C 331.393,145.614 337.393,148.78 345.5,148C 351.415,144.99 352.081,140.99 347.5,136C 347.728,135.601 348.062,135.435 348.5,135.5 Z"/></g>
<g><path style="opacity:0.998" fill="#fca7a6" d="M 314.5,141.5 C 317.93,146.037 319.596,151.203 319.5,157C 318.016,169.766 315.35,182.266 311.5,194.5C 309.403,199.96 307.57,205.627 306,211.5C 305.22,213.387 305.387,215.054 306.5,216.5C 311.825,223.157 317.491,229.49 323.5,235.5C 325.569,238.573 328.236,240.906 331.5,242.5C 335.298,243.483 339.298,243.817 343.5,243.5C 345.736,248.619 349.736,251.619 355.5,252.5C 362.217,255.778 361.884,258.445 354.5,260.5C 352.597,260.796 350.93,261.463 349.5,262.5C 345.167,263.833 340.833,263.833 336.5,262.5C 334.819,260.992 332.819,259.992 330.5,259.5C 326.233,256.573 322.233,253.24 318.5,249.5C 312.146,243.817 305.48,238.484 298.5,233.5C 293.818,229.98 289.984,225.647 287,220.5C 287.178,214.442 288.011,208.442 289.5,202.5C 293.298,187.637 296.632,172.637 299.5,157.5C 300.677,155.321 301.677,152.987 302.5,150.5C 305.017,145.57 309.017,142.57 314.5,141.5 Z"/></g>
<g><path style="opacity:0.933" fill="#d9dbdb" d="M 528.5,146.5 C 527.508,146.328 526.842,146.662 526.5,147.5C 498.031,163.569 469.697,179.902 441.5,196.5C 440.817,196.137 440.15,195.804 439.5,195.5C 446.167,191.167 452.833,186.833 459.5,182.5C 465.165,180.003 470.498,177.003 475.5,173.5C 491.776,163.355 508.443,153.688 525.5,144.5C 526.739,144.942 527.739,145.609 528.5,146.5 Z"/></g>
<g><path style="opacity:1" fill="#445963" d="M 526.5,147.5 C 527.497,168.327 527.831,189.327 527.5,210.5C 525.116,212.885 522.45,214.885 519.5,216.5C 513.298,220.101 506.964,223.434 500.5,226.5C 499.583,219.351 498.583,212.351 497.5,205.5C 496.399,204.402 495.066,204.235 493.5,205C 489.673,206.746 486.007,208.746 482.5,211C 481.748,211.671 481.414,212.504 481.5,213.5C 480.844,214.622 480.511,215.955 480.5,217.5C 481.741,224.176 482.741,230.843 483.5,237.5C 469.625,245.023 455.791,252.689 442,260.5C 441.228,260.355 440.561,260.022 440,259.5C 439.832,248.818 439.332,238.151 438.5,227.5C 426.274,234.777 413.941,241.777 401.5,248.5C 401.631,247.761 401.464,247.094 401,246.5C 398.833,245.512 397,244.179 395.5,242.5C 396.5,242.5 397.5,242.5 398.5,242.5C 399.151,243.091 399.818,243.757 400.5,244.5C 404.979,241.268 409.645,238.601 414.5,236.5C 415.605,235.4 416.938,234.733 418.5,234.5C 419.338,234.158 419.672,233.492 419.5,232.5C 423.479,231.369 427.146,229.536 430.5,227C 428.441,225.815 428.274,224.648 430,223.5C 433.004,225.91 435.838,225.577 438.5,222.5C 439.498,213.525 439.832,204.525 439.5,195.5C 440.15,195.804 440.817,196.137 441.5,196.5C 469.697,179.902 498.031,163.569 526.5,147.5 Z"/></g>
<g><path style="opacity:0.922" fill="#697a82" d="M 526.5,147.5 C 526.842,146.662 527.508,146.328 528.5,146.5C 528.5,161.833 528.5,177.167 528.5,192.5C 528.823,198.69 528.49,204.69 527.5,210.5C 527.831,189.327 527.497,168.327 526.5,147.5 Z"/></g>
<g><path style="opacity:1" fill="#e2e2e2" d="M 145.5,151.5 C 147.39,151.297 148.89,151.963 150,153.5C 150.353,157.117 151.186,160.617 152.5,164C 152.241,165.261 151.574,166.261 150.5,167C 148.261,168.644 145.927,170.144 143.5,171.5C 142.353,171.182 141.519,170.516 141,169.5C 139.858,164.119 141.691,160.119 146.5,157.5C 144.157,156.275 142.323,156.941 141,159.5C 140.308,158.975 139.808,158.308 139.5,157.5C 141.215,155.118 143.215,153.118 145.5,151.5 Z"/></g>
<g><path style="opacity:1" fill="#495d67" d="M 302.5,150.5 C 301.677,152.987 300.677,155.321 299.5,157.5C 292.384,160.225 285.384,163.225 278.5,166.5C 277.167,165.833 275.833,165.167 274.5,164.5C 281.833,160.5 289.167,156.5 296.5,152.5C 298.5,151.833 300.5,151.167 302.5,150.5 Z"/></g>
<g><path style="opacity:0.993" fill="#f9f9f9" d="M 296.5,152.5 C 289.167,156.5 281.833,160.5 274.5,164.5C 273.34,177.327 273.173,190.327 274,203.5C 274.816,204.823 275.983,205.489 277.5,205.5C 277.917,206.124 278.584,206.457 279.5,206.5C 282.85,205.157 286.183,203.823 289.5,202.5C 288.011,208.442 287.178,214.442 287,220.5C 289.984,225.647 293.818,229.98 298.5,233.5C 297.518,236.962 297.185,240.629 297.5,244.5C 292.136,246.601 287.302,249.601 283,253.5C 281.596,259.044 281.096,264.71 281.5,270.5C 275.024,274.574 268.357,278.408 261.5,282C 260.619,282.708 259.953,283.542 259.5,284.5C 257.53,288.581 258.697,291.581 263,293.5C 263.5,322.165 263.667,350.831 263.5,379.5C 262.005,379.415 261.005,380.081 260.5,381.5C 293.181,401.844 326.514,421.178 360.5,439.5C 423.2,404.734 485.367,369.068 547,332.5C 547.519,330.511 546.686,329.511 544.5,329.5C 544.5,329.167 544.5,328.833 544.5,328.5C 545.568,325.925 547.235,323.758 549.5,322C 554.876,318.761 560.542,316.095 566.5,314C 571.546,311.656 574.046,307.823 574,302.5C 573.167,301.667 572.333,300.833 571.5,300C 567.051,298.561 562.718,298.061 558.5,298.5C 565.724,293.968 572.89,289.302 580,284.5C 585.059,279.271 584.559,274.771 578.5,271C 566.138,269.431 556.638,273.931 550,284.5C 547.628,287.91 545.795,291.577 544.5,295.5C 543.338,278.338 543.171,261.005 544,243.5C 548.8,240.995 549.633,237.662 546.5,233.5C 537.331,228.083 528.331,222.417 519.5,216.5C 522.45,214.885 525.116,212.885 527.5,210.5C 528.49,204.69 528.823,198.69 528.5,192.5C 558.705,205.55 585.538,223.55 609,246.5C 625.963,265.091 636.463,286.757 640.5,311.5C 640.5,317.167 640.5,322.833 640.5,328.5C 636.965,351.572 627.465,371.905 612,389.5C 586.541,415.991 556.708,436.158 522.5,450C 464.231,472.953 403.898,485.453 341.5,487.5C 326.833,487.5 312.167,487.5 297.5,487.5C 241.805,485.326 187.471,475.159 134.5,457C 94.2108,443.121 59.0441,421.288 29,391.5C 13.8164,374.466 3.9831,354.8 -0.5,332.5C -0.5,323.833 -0.5,315.167 -0.5,306.5C 6.14696,277.067 21.147,252.567 44.5,233C 65.3927,216.381 88.0594,202.548 112.5,191.5C 112.5,196.5 112.5,201.5 112.5,206.5C 108.119,208.684 104.119,211.35 100.5,214.5C 100.5,224.5 100.5,234.5 100.5,244.5C 98.0637,244.317 95.897,244.984 94,246.5C 91.0009,239.472 85.8342,235.638 78.5,235C 76.912,241.356 77.5786,247.522 80.5,253.5C 74.5905,256.26 73.0905,260.594 76,266.5C 78.4794,269.069 81.146,271.402 84,273.5C 79.9376,285.373 84.1042,292.373 96.5,294.5C 99.0804,294.276 101.414,293.609 103.5,292.5C 105.085,293.474 106.085,294.974 106.5,297C 124.833,307.5 143.167,318 161.5,328.5C 162.833,327.833 164.167,327.167 165.5,326.5C 166.484,323.572 166.817,320.572 166.5,317.5C 166.953,316.542 167.619,315.708 168.5,315C 183.663,306.586 198.663,297.919 213.5,289C 217.041,290.259 220.708,291.259 224.5,292C 225.025,291.308 225.692,290.808 226.5,290.5C 227.167,287.167 227.833,283.833 228.5,280.5C 229.748,279.96 230.915,279.293 232,278.5C 232.667,252.833 232.667,227.167 232,201.5C 225.723,197.948 219.556,194.281 213.5,190.5C 213.666,185.821 213.499,181.155 213,176.5C 212.292,175.619 211.458,174.953 210.5,174.5C 205.328,171.415 200.328,168.081 195.5,164.5C 228.85,157.879 262.516,153.879 296.5,152.5 Z"/></g>
<g><path style="opacity:1" fill="#bbf4ea" d="M 164.5,150.5 C 166.074,150.937 167.241,151.937 168,153.5C 170.064,152.409 172.231,152.242 174.5,153C 181.554,156.858 188.554,160.691 195.5,164.5C 200.328,168.081 205.328,171.415 210.5,174.5C 208.5,176.833 206.5,179.167 204.5,181.5C 203.833,180.833 203.167,180.167 202.5,179.5C 193.651,174.242 184.651,169.242 175.5,164.5C 161.545,171.812 147.878,179.645 134.5,188C 143.46,194.125 152.793,199.625 162.5,204.5C 162.5,204.833 162.5,205.167 162.5,205.5C 159.167,206.5 155.833,207.5 152.5,208.5C 139.217,201.197 126.217,193.53 113.5,185.5C 115.917,182.78 118.917,180.78 122.5,179.5C 123.645,178.224 123.645,176.891 122.5,175.5C 123.188,174.145 124.188,173.145 125.5,172.5C 126.761,175.258 127.594,178.258 128,181.5C 128.561,182.022 129.228,182.355 130,182.5C 141.951,176.05 153.785,169.383 165.5,162.5C 165.833,161.667 166.167,160.833 166.5,160C 165.75,156.837 165.084,153.67 164.5,150.5 Z"/></g>
<g><path style="opacity:0.982" fill="#f9f9f9" d="M 365.5,153.5 C 402.88,156.443 439.547,163.11 475.5,173.5C 470.498,177.003 465.165,180.003 459.5,182.5C 456.057,180.896 452.723,179.062 449.5,177C 447.5,176.333 445.5,176.333 443.5,177C 430.167,184.667 416.833,192.333 403.5,200C 404.056,200.383 404.389,200.883 404.5,201.5C 390.652,197.746 377.319,192.579 364.5,186C 363.748,185.329 363.414,184.496 363.5,183.5C 366.983,173.926 367.317,164.259 364.5,154.5C 365.167,154.5 365.5,154.167 365.5,153.5 Z"/></g>
<g><path style="opacity:1" fill="#384850" d="M 299.5,157.5 C 296.632,172.637 293.298,187.637 289.5,202.5C 286.183,203.823 282.85,205.157 279.5,206.5C 278.584,206.457 277.917,206.124 277.5,205.5C 278.239,205.631 278.906,205.464 279.5,205C 278.539,192.037 278.206,179.204 278.5,166.5C 285.384,163.225 292.384,160.225 299.5,157.5 Z"/></g>
<g><path style="opacity:1" fill="#dff9f4" d="M 202.5,179.5 C 202.631,180.376 202.298,181.043 201.5,181.5C 188.272,188.941 175.272,196.608 162.5,204.5C 152.793,199.625 143.46,194.125 134.5,188C 147.878,179.645 161.545,171.812 175.5,164.5C 184.651,169.242 193.651,174.242 202.5,179.5 Z"/></g>
<g><path style="opacity:1" fill="#273339" d="M 274.5,164.5 C 275.833,165.167 277.167,165.833 278.5,166.5C 278.206,179.204 278.539,192.037 279.5,205C 278.906,205.464 278.239,205.631 277.5,205.5C 275.983,205.489 274.816,204.823 274,203.5C 273.173,190.327 273.34,177.327 274.5,164.5 Z"/></g>
<g><path style="opacity:1" fill="#a6eee2" d="M 210.5,174.5 C 211.458,174.953 212.292,175.619 213,176.5C 213.499,181.155 213.666,185.821 213.5,190.5C 215.436,197.88 212.769,202.546 205.5,204.5C 202.988,203.072 200.322,202.572 197.5,203C 186.971,209.094 176.637,215.427 166.5,222C 167.686,223.412 169.019,224.579 170.5,225.5C 164.943,228.446 159.277,231.112 153.5,233.5C 154.631,225.913 154.798,218.246 154,210.5C 153.283,209.956 152.783,209.289 152.5,208.5C 155.833,207.5 159.167,206.5 162.5,205.5C 162.5,208.167 162.5,210.833 162.5,213.5C 176.878,206.987 190.712,199.321 204,190.5C 204.498,187.518 204.665,184.518 204.5,181.5C 206.5,179.167 208.5,176.833 210.5,174.5 Z"/></g>
<g><path style="opacity:1" fill="#bdf4ea" d="M 459.5,182.5 C 452.833,186.833 446.167,191.167 439.5,195.5C 438.539,197.265 438.205,199.265 438.5,201.5C 434.034,203.566 429.701,205.9 425.5,208.5C 418.777,205.304 411.777,202.97 404.5,201.5C 404.389,200.883 404.056,200.383 403.5,200C 416.833,192.333 430.167,184.667 443.5,177C 445.5,176.333 447.5,176.333 449.5,177C 452.723,179.062 456.057,180.896 459.5,182.5 Z"/></g>
<g><path style="opacity:1" fill="#d2f7f1" d="M 202.5,179.5 C 203.167,180.167 203.833,180.833 204.5,181.5C 204.665,184.518 204.498,187.518 204,190.5C 190.712,199.321 176.878,206.987 162.5,213.5C 162.5,210.833 162.5,208.167 162.5,205.5C 162.5,205.167 162.5,204.833 162.5,204.5C 175.272,196.608 188.272,188.941 201.5,181.5C 202.298,181.043 202.631,180.376 202.5,179.5 Z"/></g>
<g><path style="opacity:1" fill="#fca8a7" d="M 363.5,183.5 C 363.414,184.496 363.748,185.329 364.5,186C 377.319,192.579 390.652,197.746 404.5,201.5C 411.777,202.97 418.777,205.304 425.5,208.5C 425.842,209.338 426.508,209.672 427.5,209.5C 430.496,210.974 431.996,213.307 432,216.5C 431.097,217.701 429.931,218.535 428.5,219C 422.479,219.33 416.479,219.33 410.5,219C 412.01,220.351 413.01,222.018 413.5,224C 413.252,225.749 412.252,226.582 410.5,226.5C 407.573,225.238 404.907,223.571 402.5,221.5C 398.54,214.548 392.54,210.881 384.5,210.5C 377.065,208.057 369.398,206.057 361.5,204.5C 361.334,198.824 361.501,193.157 362,187.5C 362.21,185.942 362.71,184.609 363.5,183.5 Z"/></g>
<g><path style="opacity:1" fill="#2addbf" d="M 113.5,185.5 C 126.217,193.53 139.217,201.197 152.5,208.5C 152.783,209.289 153.283,209.956 154,210.5C 154.798,218.246 154.631,225.913 153.5,233.5C 140.722,226.561 128.056,219.395 115.5,212C 113.393,210.736 112.393,208.903 112.5,206.5C 112.5,201.5 112.5,196.5 112.5,191.5C 112.205,189.265 112.539,187.265 113.5,185.5 Z"/></g>
<g><path style="opacity:1" fill="#f2f0f2" d="M 311.5,194.5 C 313.337,197.519 313.837,200.852 313,204.5C 311.006,208.643 308.839,212.643 306.5,216.5C 305.387,215.054 305.22,213.387 306,211.5C 307.57,205.627 309.403,199.96 311.5,194.5 Z"/></g>
<g><path style="opacity:1" fill="#f5f6f6" d="M 205.5,204.5 C 209.435,207.143 213.435,209.81 217.5,212.5C 206.932,220.04 195.765,226.706 184,232.5C 179.253,230.544 174.753,228.211 170.5,225.5C 169.019,224.579 167.686,223.412 166.5,222C 176.637,215.427 186.971,209.094 197.5,203C 200.322,202.572 202.988,203.072 205.5,204.5 Z"/></g>
<g><path style="opacity:1" fill="#465a64" d="M 213.5,190.5 C 219.556,194.281 225.723,197.948 232,201.5C 232.667,227.167 232.667,252.833 232,278.5C 230.915,279.293 229.748,279.96 228.5,280.5C 227.833,283.833 227.167,287.167 226.5,290.5C 225.692,290.808 225.025,291.308 224.5,292C 220.708,291.259 217.041,290.259 213.5,289C 198.663,297.919 183.663,306.586 168.5,315C 167.619,315.708 166.953,316.542 166.5,317.5C 163.323,318.447 160.323,319.781 157.5,321.5C 156.702,319.922 156.202,318.256 156,316.5C 155.667,292.833 155.333,269.167 155,245.5C 137.022,234.763 118.856,224.43 100.5,214.5C 104.119,211.35 108.119,208.684 112.5,206.5C 112.393,208.903 113.393,210.736 115.5,212C 128.056,219.395 140.722,226.561 153.5,233.5C 159.277,231.112 164.943,228.446 170.5,225.5C 174.753,228.211 179.253,230.544 184,232.5C 195.765,226.706 206.932,220.04 217.5,212.5C 213.435,209.81 209.435,207.143 205.5,204.5C 212.769,202.546 215.436,197.88 213.5,190.5 Z"/></g>
<g><path style="opacity:1" fill="#f9f9f9" d="M 361.5,204.5 C 369.398,206.057 377.065,208.057 384.5,210.5C 378.441,215.198 371.774,218.865 364.5,221.5C 363.391,221.443 362.391,221.11 361.5,220.5C 361.5,215.167 361.5,209.833 361.5,204.5 Z"/></g>
<g><path style="opacity:1" fill="#4f636c" d="M 438.5,201.5 C 435.365,204.901 431.698,207.567 427.5,209.5C 426.508,209.672 425.842,209.338 425.5,208.5C 429.701,205.9 434.034,203.566 438.5,201.5 Z"/></g>
<g><path style="opacity:1" fill="#ced0d1" d="M 497.5,205.5 C 492.408,208.713 487.075,211.379 481.5,213.5C 481.414,212.504 481.748,211.671 482.5,211C 486.007,208.746 489.673,206.746 493.5,205C 495.066,204.235 496.399,204.402 497.5,205.5 Z"/></g>
<g><path style="opacity:1" fill="#37474e" d="M 497.5,205.5 C 498.583,212.351 499.583,219.351 500.5,226.5C 501.1,231.5 501.767,236.5 502.5,241.5C 501.946,243.628 500.613,245.128 498.5,246C 494.797,247.851 491.13,249.685 487.5,251.5C 483.26,250.558 479.927,248.391 477.5,245C 477.667,244.5 477.833,244 478,243.5C 480,244.833 482,246.167 484,247.5C 483.954,244.2 483.788,240.866 483.5,237.5C 482.741,230.843 481.741,224.176 480.5,217.5C 480.511,215.955 480.844,214.622 481.5,213.5C 487.075,211.379 492.408,208.713 497.5,205.5 Z"/></g>
<g><path style="opacity:1" fill="#bdf3ea" d="M 384.5,210.5 C 392.54,210.881 398.54,214.548 402.5,221.5C 395.332,225.583 388.332,229.916 381.5,234.5C 380.201,236.153 380.534,237.653 382.5,239C 388.331,242.081 393.998,245.415 399.5,249C 400.437,249.692 401.103,249.525 401.5,248.5C 413.941,241.777 426.274,234.777 438.5,227.5C 439.332,238.151 439.832,248.818 440,259.5C 440.561,260.022 441.228,260.355 442,260.5C 455.791,252.689 469.625,245.023 483.5,237.5C 483.788,240.866 483.954,244.2 484,247.5C 482,246.167 480,244.833 478,243.5C 477.833,244 477.667,244.5 477.5,245C 479.927,248.391 483.26,250.558 487.5,251.5C 491.13,249.685 494.797,247.851 498.5,246C 500.613,245.128 501.946,243.628 502.5,241.5C 501.767,236.5 501.1,231.5 500.5,226.5C 506.964,223.434 513.298,220.101 519.5,216.5C 528.331,222.417 537.331,228.083 546.5,233.5C 546.586,234.496 546.252,235.329 545.5,236C 483.806,271.512 422.139,307.012 360.5,342.5C 358.692,342.509 357.025,342.009 355.5,341C 323.272,322.392 291.272,303.559 259.5,284.5C 259.953,283.542 260.619,282.708 261.5,282C 268.357,278.408 275.024,274.574 281.5,270.5C 288.663,266.753 295.663,262.753 302.5,258.5C 307.833,255.5 313.167,252.5 318.5,249.5C 322.233,253.24 326.233,256.573 330.5,259.5C 322.098,265.23 313.431,270.563 304.5,275.5C 304.323,277.981 305.323,279.814 307.5,281C 318.663,287.081 329.663,293.414 340.5,300C 342.025,301.009 343.692,301.509 345.5,301.5C 366.688,289.161 388.021,276.994 409.5,265C 411.223,261.592 410.223,259.259 406.5,258C 394.337,251.42 382.337,244.586 370.5,237.5C 364.3,241.267 357.966,244.434 351.5,247C 349.758,242.537 348.092,238.037 346.5,233.5C 352.975,229.949 358.975,225.949 364.5,221.5C 371.774,218.865 378.441,215.198 384.5,210.5 Z"/></g>
<g><path style="opacity:1" fill="#36464e" d="M 226.5,210.5 C 227.826,216.568 227.826,222.734 226.5,229C 205.038,240.967 183.705,253.133 162.5,265.5C 161.193,259.612 161.193,253.779 162.5,248C 184.061,235.726 205.394,223.226 226.5,210.5 Z"/></g>
<g><path style="opacity:1" fill="#37474f" d="M 100.5,214.5 C 118.856,224.43 137.022,234.763 155,245.5C 155.333,269.167 155.667,292.833 156,316.5C 156.202,318.256 156.702,319.922 157.5,321.5C 160.323,319.781 163.323,318.447 166.5,317.5C 166.817,320.572 166.484,323.572 165.5,326.5C 164.167,327.167 162.833,327.833 161.5,328.5C 143.167,318 124.833,307.5 106.5,297C 106.085,294.974 105.085,293.474 103.5,292.5C 103.189,291.522 102.522,290.855 101.5,290.5C 100.503,283.866 100.17,277.2 100.5,270.5C 100.5,269.5 100.5,268.5 100.5,267.5C 100.5,259.833 100.5,252.167 100.5,244.5C 100.5,234.5 100.5,224.5 100.5,214.5 Z"/></g>
<g><path style="opacity:1" fill="#a6adb1" d="M 439.5,195.5 C 439.832,204.525 439.498,213.525 438.5,222.5C 435.838,225.577 433.004,225.91 430,223.5C 428.274,224.648 428.441,225.815 430.5,227C 427.146,229.536 423.479,231.369 419.5,232.5C 421.971,230.335 424.638,228.168 427.5,226C 423.667,227.594 419.667,229.094 415.5,230.5C 415.611,229.883 415.944,229.383 416.5,229C 414.148,228.76 412.148,227.927 410.5,226.5C 412.252,226.582 413.252,225.749 413.5,224C 413.01,222.018 412.01,220.351 410.5,219C 416.479,219.33 422.479,219.33 428.5,219C 429.931,218.535 431.097,217.701 432,216.5C 431.996,213.307 430.496,210.974 427.5,209.5C 431.698,207.567 435.365,204.901 438.5,201.5C 438.205,199.265 438.539,197.265 439.5,195.5 Z"/></g>
<g><path style="opacity:1" fill="#576972" d="M 402.5,221.5 C 404.907,223.571 407.573,225.238 410.5,226.5C 412.148,227.927 414.148,228.76 416.5,229C 415.944,229.383 415.611,229.883 415.5,230.5C 413.94,230.481 412.44,230.148 411,229.5C 408.706,231.063 406.206,232.23 403.5,233C 404.942,233.377 405.942,234.21 406.5,235.5C 401.962,233.967 397.629,231.967 393.5,229.5C 389.722,230.555 386.389,232.388 383.5,235C 387.985,237.038 391.985,239.538 395.5,242.5C 390.5,240.336 385.833,237.669 381.5,234.5C 388.332,229.916 395.332,225.583 402.5,221.5 Z"/></g>
<g><path style="opacity:1" fill="#babfc1" d="M 400.5,224.5 C 405.22,224.225 405.554,225.059 401.5,227C 402.5,227.333 403.5,227.667 404.5,228C 404.167,228.333 403.833,228.667 403.5,229C 401.583,228.973 399.916,228.139 398.5,226.5C 399.243,225.818 399.909,225.151 400.5,224.5 Z"/></g>
<g><path style="opacity:1" fill="#b3b9bc" d="M 415.5,230.5 C 413.502,233.805 410.502,235.471 406.5,235.5C 405.942,234.21 404.942,233.377 403.5,233C 406.206,232.23 408.706,231.063 411,229.5C 412.44,230.148 413.94,230.481 415.5,230.5 Z"/></g>
<g><path style="opacity:1" fill="#cacdce" d="M 418.5,234.5 C 416.938,234.733 415.605,235.4 414.5,236.5C 413.649,234.296 414.649,232.963 417.5,232.5C 418.298,232.957 418.631,233.624 418.5,234.5 Z"/></g>
<g><path style="opacity:1" fill="#31ddbf" d="M 100.5,244.5 C 100.5,252.167 100.5,259.833 100.5,267.5C 99.3793,265.259 98.2126,262.925 97,260.5C 97.2716,264.148 98.4383,267.482 100.5,270.5C 100.17,277.2 100.503,283.866 101.5,290.5C 102.522,290.855 103.189,291.522 103.5,292.5C 101.414,293.609 99.0804,294.276 96.5,294.5C 84.1042,292.373 79.9376,285.373 84,273.5C 81.146,271.402 78.4794,269.069 76,266.5C 73.0905,260.594 74.5905,256.26 80.5,253.5C 77.5786,247.522 76.912,241.356 78.5,235C 85.8342,235.638 91.0009,239.472 94,246.5C 95.897,244.984 98.0637,244.317 100.5,244.5 Z"/></g>
<g><path style="opacity:1" fill="#36464e" d="M 225.5,234.5 C 226.816,237.087 227.483,240.087 227.5,243.5C 227.167,246.5 226.833,249.5 226.5,252.5C 205.167,264.833 183.833,277.167 162.5,289.5C 161.167,283.5 161.167,277.5 162.5,271.5C 183.728,259.392 204.728,247.059 225.5,234.5 Z"/></g>
<g><path style="opacity:1" fill="#28343a" d="M 298.5,233.5 C 305.48,238.484 312.146,243.817 318.5,249.5C 313.167,252.5 307.833,255.5 302.5,258.5C 299.656,254.305 297.989,249.638 297.5,244.5C 297.185,240.629 297.518,236.962 298.5,233.5 Z"/></g>
<g><path style="opacity:1" fill="#273339" d="M 340.5,234.5 C 340.5,235.167 340.5,235.833 340.5,236.5C 337.291,238.265 334.291,240.265 331.5,242.5C 328.236,240.906 325.569,238.573 323.5,235.5C 329.212,235.687 334.879,235.354 340.5,234.5 Z"/></g>
<g><path style="opacity:1" fill="#afb6b9" d="M 406.5,235.5 C 404.197,238.307 401.531,240.641 398.5,242.5C 397.5,242.5 396.5,242.5 395.5,242.5C 391.985,239.538 387.985,237.038 383.5,235C 386.389,232.388 389.722,230.555 393.5,229.5C 397.629,231.967 401.962,233.967 406.5,235.5 Z"/></g>
<g><path style="opacity:1" fill="#a7f0e4" d="M 546.5,233.5 C 549.633,237.662 548.8,240.995 544,243.5C 543.171,261.005 543.338,278.338 544.5,295.5C 543.445,298.073 543.278,300.739 544,303.5C 544.697,301.416 545.864,299.749 547.5,298.5C 545.352,303.278 544.019,308.278 543.5,313.5C 543.34,315.199 543.506,316.866 544,318.5C 545.331,316.004 547.164,314.004 549.5,312.5C 547.088,315.438 545.255,318.771 544,322.5C 543.211,324.712 543.378,326.712 544.5,328.5C 544.5,328.833 544.5,329.167 544.5,329.5C 543.194,331.473 541.527,333.139 539.5,334.5C 538.675,305.238 538.175,275.905 538,246.5C 536.348,247.399 534.848,248.399 533.5,249.5C 532.833,249.5 532.5,249.833 532.5,250.5C 511.498,261.998 490.831,273.998 470.5,286.5C 456.832,293.665 443.499,301.331 430.5,309.5C 426.034,311.566 421.701,313.9 417.5,316.5C 416.29,316.932 415.29,317.599 414.5,318.5C 407.903,321.775 401.57,325.442 395.5,329.5C 391.034,331.566 386.701,333.9 382.5,336.5C 381.29,336.932 380.29,337.599 379.5,338.5C 374.945,341.029 370.445,343.696 366,346.5C 365.667,375.833 365.333,405.167 365,434.5C 363.363,436.606 361.53,437.272 359.5,436.5C 360.498,405.338 360.832,374.004 360.5,342.5C 422.139,307.012 483.806,271.512 545.5,236C 546.252,235.329 546.586,234.496 546.5,233.5 Z"/></g>
<g><path style="opacity:1" fill="#2d3b41" d="M 381.5,234.5 C 385.833,237.669 390.5,240.336 395.5,242.5C 397,244.179 398.833,245.512 401,246.5C 401.464,247.094 401.631,247.761 401.5,248.5C 401.103,249.525 400.437,249.692 399.5,249C 393.998,245.415 388.331,242.081 382.5,239C 380.534,237.653 380.201,236.153 381.5,234.5 Z"/></g>
<g><path style="opacity:1" fill="#b9e6dd" d="M 340.5,236.5 C 341.677,238.679 342.677,241.013 343.5,243.5C 339.298,243.817 335.298,243.483 331.5,242.5C 334.291,240.265 337.291,238.265 340.5,236.5 Z"/></g>
<g><path style="opacity:1" fill="#475b65" d="M 361.5,220.5 C 362.391,221.11 363.391,221.443 364.5,221.5C 358.975,225.949 352.975,229.949 346.5,233.5C 348.092,238.037 349.758,242.537 351.5,247C 357.966,244.434 364.3,241.267 370.5,237.5C 382.337,244.586 394.337,251.42 406.5,258C 410.223,259.259 411.223,261.592 409.5,265C 388.021,276.994 366.688,289.161 345.5,301.5C 345.586,300.504 345.252,299.671 344.5,299C 330.975,291.407 317.641,283.574 304.5,275.5C 313.431,270.563 322.098,265.23 330.5,259.5C 332.819,259.992 334.819,260.992 336.5,262.5C 330.727,266.226 324.727,269.726 318.5,273C 316.745,273.72 315.911,274.887 316,276.5C 324.751,281.793 333.585,286.959 342.5,292C 346.113,292.208 349.446,291.208 352.5,289C 364.999,281.918 377.332,274.585 389.5,267C 380.167,261.333 370.833,255.667 361.5,250C 359.021,249.638 357.021,250.471 355.5,252.5C 349.736,251.619 345.736,248.619 343.5,243.5C 342.677,241.013 341.677,238.679 340.5,236.5C 340.5,235.833 340.5,235.167 340.5,234.5C 339.426,231.041 338.426,227.541 337.5,224C 338.107,217.237 340.107,216.737 343.5,222.5C 344.52,225.605 345.687,228.605 347,231.5C 352.562,228.769 357.395,225.102 361.5,220.5 Z"/></g>
<g><path style="opacity:1" fill="#64757d" d="M 419.5,232.5 C 419.672,233.492 419.338,234.158 418.5,234.5C 418.631,233.624 418.298,232.957 417.5,232.5C 414.649,232.963 413.649,234.296 414.5,236.5C 409.645,238.601 404.979,241.268 400.5,244.5C 399.818,243.757 399.151,243.091 398.5,242.5C 401.531,240.641 404.197,238.307 406.5,235.5C 410.502,235.471 413.502,233.805 415.5,230.5C 419.667,229.094 423.667,227.594 427.5,226C 424.638,228.168 421.971,230.335 419.5,232.5 Z"/></g>
<g><path style="opacity:1" fill="#d0f7f0" d="M 82.5,239.5 C 88.208,244.016 92.0413,249.683 94,256.5C 90.3111,250.661 86.4777,244.994 82.5,239.5 Z"/></g>
<g><path style="opacity:1" fill="#d1d2d4" d="M 369.5,247.5 C 368.022,247.762 366.689,247.429 365.5,246.5C 367.551,244.28 369.884,243.614 372.5,244.5C 371.23,245.288 370.23,246.288 369.5,247.5 Z"/></g>
<g><path style="opacity:1" fill="#d5d7d7" d="M 369.5,247.5 C 371.258,247.123 372.925,246.456 374.5,245.5C 374.833,245.833 375.167,246.167 375.5,246.5C 374.451,248.112 372.951,249.112 371,249.5C 369.97,249.164 369.47,248.497 369.5,247.5 Z"/></g>
<g><path style="opacity:1" fill="#29debf" d="M 539.5,334.5 C 536.268,334.228 534.268,332.562 533.5,329.5C 533.5,321.833 533.5,314.167 533.5,306.5C 533.5,287.5 533.5,268.5 533.5,249.5C 534.848,248.399 536.348,247.399 538,246.5C 538.175,275.905 538.675,305.238 539.5,334.5 Z"/></g>
<g><path style="opacity:1" fill="#d0d3d4" d="M 376.5,247.5 C 378.942,247.354 379.609,248.187 378.5,250C 376.635,251.301 374.635,251.635 372.5,251C 374.093,250.051 375.426,248.885 376.5,247.5 Z"/></g>
<g><path style="opacity:1" fill="#dddddd" d="M 336.5,262.5 C 340.833,263.833 345.167,263.833 349.5,262.5C 350.75,264.932 352.25,267.266 354,269.5C 354.498,266.518 354.665,263.518 354.5,260.5C 361.884,258.445 362.217,255.778 355.5,252.5C 357.021,250.471 359.021,249.638 361.5,250C 370.833,255.667 380.167,261.333 389.5,267C 377.332,274.585 364.999,281.918 352.5,289C 349.446,291.208 346.113,292.208 342.5,292C 333.585,286.959 324.751,281.793 316,276.5C 315.911,274.887 316.745,273.72 318.5,273C 324.727,269.726 330.727,266.226 336.5,262.5 Z"/></g>
<g><path style="opacity:1" fill="#f9f9f9" d="M 532.5,250.5 C 532.83,268.674 532.497,286.674 531.5,304.5C 530.723,301.888 529.056,300.055 526.5,299C 521.833,298.667 517.167,298.333 512.5,298C 507.841,293.995 502.507,292.328 496.5,293C 492.621,296.92 493.621,299.587 499.5,301C 500.252,301.671 500.586,302.504 500.5,303.5C 490.797,297.315 480.797,291.648 470.5,286.5C 490.831,273.998 511.498,261.998 532.5,250.5 Z"/></g>
<g><path style="opacity:1" fill="#d0f4ee" d="M 533.5,249.5 C 533.5,268.5 533.5,287.5 533.5,306.5C 532.5,306.167 531.833,305.5 531.5,304.5C 532.497,286.674 532.83,268.674 532.5,250.5C 532.5,249.833 532.833,249.5 533.5,249.5 Z"/></g>
<g><path style="opacity:1" fill="#d5d6d7" d="M 381.5,250.5 C 383.308,250.491 384.975,250.991 386.5,252C 387.731,253.183 387.731,254.349 386.5,255.5C 384.232,256.544 381.899,256.711 379.5,256C 378.08,253.426 378.747,251.593 381.5,250.5 Z"/></g>
<g><path style="opacity:1" fill="#3e5058" d="M 297.5,244.5 C 297.989,249.638 299.656,254.305 302.5,258.5C 295.663,262.753 288.663,266.753 281.5,270.5C 281.096,264.71 281.596,259.044 283,253.5C 287.302,249.601 292.136,246.601 297.5,244.5 Z"/></g>
<g><path style="opacity:1" fill="#cfd1d2" d="M 393.5,257.5 C 391.634,258.014 389.8,258.68 388,259.5C 387.5,259.167 387,258.833 386.5,258.5C 387.929,257.065 389.595,256.065 391.5,255.5C 392.713,255.747 393.38,256.414 393.5,257.5 Z"/></g>
<g><path style="opacity:1" fill="#36464e" d="M 226.5,257.5 C 227.826,263.568 227.826,269.734 226.5,276C 204.918,288.374 183.418,300.874 162,313.5C 161.191,307.251 161.358,301.084 162.5,295C 184.061,282.726 205.394,270.226 226.5,257.5 Z"/></g>
<g><path style="opacity:1" fill="#d2d4d5" d="M 393.5,257.5 C 396.248,257.402 396.914,258.402 395.5,260.5C 388.635,262.331 387.969,261.331 393.5,257.5 Z"/></g>
<g><path style="opacity:1" fill="#cdd0d1" d="M 395.5,260.5 C 397.239,259.566 398.905,259.566 400.5,260.5C 398.782,263.014 396.449,263.847 393.5,263C 394.381,262.292 395.047,261.458 395.5,260.5 Z"/></g>
<g><path style="opacity:1" fill="#cdf1eb" d="M 100.5,267.5 C 100.5,268.5 100.5,269.5 100.5,270.5C 98.4383,267.482 97.2716,264.148 97,260.5C 98.2126,262.925 99.3793,265.259 100.5,267.5 Z"/></g>
<g><path style="opacity:1" fill="#415058" d="M 354.5,260.5 C 354.665,263.518 354.498,266.518 354,269.5C 352.25,267.266 350.75,264.932 349.5,262.5C 350.93,261.463 352.597,260.796 354.5,260.5 Z"/></g>
<g><path style="opacity:1" fill="#2db59d" d="M 558.5,298.5 C 552.317,302.404 547.317,307.404 543.5,313.5C 544.019,308.278 545.352,303.278 547.5,298.5C 545.864,299.749 544.697,301.416 544,303.5C 543.278,300.739 543.445,298.073 544.5,295.5C 545.795,291.577 547.628,287.91 550,284.5C 556.638,273.931 566.138,269.431 578.5,271C 584.559,274.771 585.059,279.271 580,284.5C 572.89,289.302 565.724,293.968 558.5,298.5 Z"/></g>
<g><path style="opacity:1" fill="#ccede7" d="M 574.5,273.5 C 575.552,273.351 576.552,273.517 577.5,274C 577.167,274.333 576.833,274.667 576.5,275C 572.596,276.139 568.929,277.472 565.5,279C 568.263,276.626 571.263,274.792 574.5,273.5 Z"/></g>
<g><path style="opacity:1" fill="#36dec2" d="M 259.5,284.5 C 291.272,303.559 323.272,322.392 355.5,341C 357.025,342.009 358.692,342.509 360.5,342.5C 360.832,374.004 360.498,405.338 359.5,436.5C 357.83,436.249 356.33,435.582 355,434.5C 354.833,404.828 354.333,375.161 353.5,345.5C 350.133,343.775 346.8,342.108 343.5,340.5C 342.101,339.11 340.434,338.11 338.5,337.5C 337.035,336.263 335.368,335.263 333.5,334.5C 319.834,325.998 305.834,317.998 291.5,310.5C 290.101,309.11 288.434,308.11 286.5,307.5C 285.035,306.263 283.368,305.263 281.5,304.5C 279.337,302.917 277.004,301.584 274.5,300.5C 272.645,299.31 270.812,297.977 269,296.5C 268.176,325.905 268.342,355.239 269.5,384.5C 266.268,384.228 264.268,382.562 263.5,379.5C 263.667,350.831 263.5,322.165 263,293.5C 258.697,291.581 257.53,288.581 259.5,284.5 Z"/></g>
<g><path style="opacity:1" fill="#aad4fc" d="M 470.5,286.5 C 480.797,291.648 490.797,297.315 500.5,303.5C 502.068,305.811 502.902,308.478 503,311.5C 505.905,312.956 508.905,314.289 512,315.5C 511.303,322.804 514.469,327.138 521.5,328.5C 525.784,326.864 529.784,327.197 533.5,329.5C 534.268,332.562 536.268,334.228 539.5,334.5C 541.527,333.139 543.194,331.473 544.5,329.5C 546.686,329.511 547.519,330.511 547,332.5C 485.367,369.068 423.2,404.734 360.5,439.5C 326.514,421.178 293.181,401.844 260.5,381.5C 261.005,380.081 262.005,379.415 263.5,379.5C 264.268,382.562 266.268,384.228 269.5,384.5C 270.794,383.71 271.961,382.71 273,381.5C 273.498,378.518 273.665,375.518 273.5,372.5C 293.74,361.595 313.74,350.261 333.5,338.5C 333.334,347.506 333.5,356.506 334,365.5C 335.79,367.291 337.623,367.625 339.5,366.5C 341.017,366.489 342.184,365.823 343,364.5C 343.5,356.507 343.666,348.507 343.5,340.5C 346.8,342.108 350.133,343.775 353.5,345.5C 354.333,375.161 354.833,404.828 355,434.5C 356.33,435.582 357.83,436.249 359.5,436.5C 361.53,437.272 363.363,436.606 365,434.5C 365.333,405.167 365.667,375.833 366,346.5C 370.445,343.696 374.945,341.029 379.5,338.5C 378.846,342.839 379.846,346.673 382.5,350C 386.167,351.667 389.833,353.333 393.5,355C 398.228,358.726 403.228,362.059 408.5,365C 416.694,366.897 423.861,365.064 430,359.5C 430.944,356.653 430.444,354.153 428.5,352C 423.4,349.917 418.4,347.75 413.5,345.5C 406.531,341.194 400.531,335.861 395.5,329.5C 401.57,325.442 407.903,321.775 414.5,318.5C 414.121,322.576 415.121,326.243 417.5,329.5C 421.423,331.423 425.423,333.256 429.5,335C 434.018,339.09 439.018,342.423 444.5,345C 452.368,346.819 459.201,344.986 465,339.5C 465.769,336.901 465.602,334.401 464.5,332C 458.65,329.778 452.983,327.278 447.5,324.5C 441.229,320.196 435.563,315.196 430.5,309.5C 443.499,301.331 456.832,293.665 470.5,286.5 Z"/></g>
<g><path style="opacity:1" fill="#ccede7" d="M 551.5,292.5 C 553.557,288.933 556.223,285.766 559.5,283C 560.167,282.333 560.833,282.333 561.5,283C 558.297,286.371 554.964,289.538 551.5,292.5 Z"/></g>
<g><path style="opacity:1" fill="#31b69e" d="M 531.5,304.5 C 531.833,305.5 532.5,306.167 533.5,306.5C 533.5,314.167 533.5,321.833 533.5,329.5C 529.784,327.197 525.784,326.864 521.5,328.5C 514.469,327.138 511.303,322.804 512,315.5C 508.905,314.289 505.905,312.956 503,311.5C 502.902,308.478 502.068,305.811 500.5,303.5C 500.586,302.504 500.252,301.671 499.5,301C 493.621,299.587 492.621,296.92 496.5,293C 502.507,292.328 507.841,293.995 512.5,298C 517.167,298.333 521.833,298.667 526.5,299C 529.056,300.055 530.723,301.888 531.5,304.5 Z"/></g>
<g><path style="opacity:1" fill="#2c393f" d="M 304.5,275.5 C 317.641,283.574 330.975,291.407 344.5,299C 345.252,299.671 345.586,300.504 345.5,301.5C 343.692,301.509 342.025,301.009 340.5,300C 329.663,293.414 318.663,287.081 307.5,281C 305.323,279.814 304.323,277.981 304.5,275.5 Z"/></g>
<g><path style="opacity:1" fill="#d0eee9" d="M 551.5,292.5 C 550.66,294.853 549.326,296.853 547.5,298.5C 547.845,295.802 549.178,293.802 551.5,292.5 Z"/></g>
<g><path style="opacity:1" fill="#a7f1e4" d="M 274.5,300.5 C 273.502,324.328 273.169,348.328 273.5,372.5C 273.665,375.518 273.498,378.518 273,381.5C 271.961,382.71 270.794,383.71 269.5,384.5C 268.342,355.239 268.176,325.905 269,296.5C 270.812,297.977 272.645,299.31 274.5,300.5 Z"/></g>
<g><path style="opacity:1" fill="#34dfc1" d="M 558.5,298.5 C 562.718,298.061 567.051,298.561 571.5,300C 572.333,300.833 573.167,301.667 574,302.5C 574.046,307.823 571.546,311.656 566.5,314C 560.542,316.095 554.876,318.761 549.5,322C 547.235,323.758 545.568,325.925 544.5,328.5C 543.378,326.712 543.211,324.712 544,322.5C 545.255,318.771 547.088,315.438 549.5,312.5C 547.164,314.004 545.331,316.004 544,318.5C 543.506,316.866 543.34,315.199 543.5,313.5C 547.317,307.404 552.317,302.404 558.5,298.5 Z"/></g>
<g><path style="opacity:1" fill="#f8f9f9" d="M 274.5,300.5 C 277.004,301.584 279.337,302.917 281.5,304.5C 281.334,314.839 281.5,325.172 282,335.5C 283.637,337.606 285.47,338.272 287.5,337.5C 289.017,337.489 290.184,336.823 291,335.5C 291.5,327.173 291.666,318.84 291.5,310.5C 305.834,317.998 319.834,325.998 333.5,334.5C 333.5,335.833 333.5,337.167 333.5,338.5C 313.74,350.261 293.74,361.595 273.5,372.5C 273.169,348.328 273.502,324.328 274.5,300.5 Z"/></g>
<g><path style="opacity:1" fill="#caf7ef" d="M 557.5,306.5 C 560.475,303.347 564.142,301.847 568.5,302C 564.812,303.513 561.145,305.013 557.5,306.5 Z"/></g>
<g><path style="opacity:1" fill="#3b4b52" d="M 281.5,304.5 C 283.368,305.263 285.035,306.263 286.5,307.5C 286.173,317.681 286.506,327.681 287.5,337.5C 285.47,338.272 283.637,337.606 282,335.5C 281.5,325.172 281.334,314.839 281.5,304.5 Z"/></g>
<g><path style="opacity:1" fill="#d0eee9" d="M 521.5,308.5 C 519.443,307.108 517.109,306.441 514.5,306.5C 505.926,307.997 505.593,307.33 513.5,304.5C 512.494,303.604 512.494,302.938 513.5,302.5C 516.593,304.034 519.26,306.034 521.5,308.5 Z"/></g>
<g><path style="opacity:1" fill="#c4eae3" d="M 525.5,311.5 C 523.596,311.262 522.262,310.262 521.5,308.5C 522.264,306.26 523.098,303.927 524,301.5C 524.248,304.919 524.748,308.253 525.5,311.5 Z"/></g>
<g><path style="opacity:1" fill="#28343a" d="M 286.5,307.5 C 288.434,308.11 290.101,309.11 291.5,310.5C 291.666,318.84 291.5,327.173 291,335.5C 290.184,336.823 289.017,337.489 287.5,337.5C 286.506,327.681 286.173,317.681 286.5,307.5 Z"/></g>
<g><path style="opacity:1" fill="#c8f6ee" d="M 557.5,306.5 C 555.122,308.878 552.455,310.878 549.5,312.5C 551.313,309.353 553.98,307.353 557.5,306.5 Z"/></g>
<g><path style="opacity:1" fill="#f9a5a4" d="M 430.5,309.5 C 435.563,315.196 441.229,320.196 447.5,324.5C 449.785,326.118 451.785,328.118 453.5,330.5C 450.862,334.437 447.196,335.937 442.5,335C 439.833,333.667 437.167,332.333 434.5,331C 428.936,325.927 423.269,321.094 417.5,316.5C 421.701,313.9 426.034,311.566 430.5,309.5 Z"/></g>
<g><path style="opacity:1" fill="#d0eee9" d="M 525.5,311.5 C 528.975,312.802 531.142,315.135 532,318.5C 529.628,316.297 527.461,313.963 525.5,311.5 Z"/></g>
<g><path style="opacity:1" fill="#29353b" d="M 417.5,316.5 C 423.269,321.094 428.936,325.927 434.5,331C 437.167,332.333 439.833,333.667 442.5,335C 447.196,335.937 450.862,334.437 453.5,330.5C 451.785,328.118 449.785,326.118 447.5,324.5C 452.983,327.278 458.65,329.778 464.5,332C 465.602,334.401 465.769,336.901 465,339.5C 459.201,344.986 452.368,346.819 444.5,345C 439.018,342.423 434.018,339.09 429.5,335C 425.423,333.256 421.423,331.423 417.5,329.5C 415.121,326.243 414.121,322.576 414.5,318.5C 415.29,317.599 416.29,316.932 417.5,316.5 Z"/></g>
<g><path style="opacity:1" fill="#faa6a5" d="M 395.5,329.5 C 400.531,335.861 406.531,341.194 413.5,345.5C 414.508,347.339 416.008,348.672 418,349.5C 417.63,352.539 415.796,354.373 412.5,355C 406.383,355.282 401.049,353.282 396.5,349C 391.639,344.968 386.972,340.801 382.5,336.5C 386.701,333.9 391.034,331.566 395.5,329.5 Z"/></g>
<g><path style="opacity:1" fill="#36464e" d="M 333.5,334.5 C 335.368,335.263 337.035,336.263 338.5,337.5C 338.173,347.348 338.506,357.014 339.5,366.5C 337.623,367.625 335.79,367.291 334,365.5C 333.5,356.506 333.334,347.506 333.5,338.5C 333.5,337.167 333.5,335.833 333.5,334.5 Z"/></g>
<g><path style="opacity:1" fill="#2d3b42" d="M 338.5,337.5 C 340.434,338.11 342.101,339.11 343.5,340.5C 343.666,348.507 343.5,356.507 343,364.5C 342.184,365.823 341.017,366.489 339.5,366.5C 338.506,357.014 338.173,347.348 338.5,337.5 Z"/></g>
<g><path style="opacity:1" fill="#29353b" d="M 382.5,336.5 C 386.972,340.801 391.639,344.968 396.5,349C 401.049,353.282 406.383,355.282 412.5,355C 415.796,354.373 417.63,352.539 418,349.5C 416.008,348.672 414.508,347.339 413.5,345.5C 418.4,347.75 423.4,349.917 428.5,352C 430.444,354.153 430.944,356.653 430,359.5C 423.861,365.064 416.694,366.897 408.5,365C 403.228,362.059 398.228,358.726 393.5,355C 389.833,353.333 386.167,351.667 382.5,350C 379.846,346.673 378.846,342.839 379.5,338.5C 380.29,337.599 381.29,336.932 382.5,336.5 Z"/></g>
</svg>
