<svg xmlns="http://www.w3.org/2000/svg" width="80" height="80" fill="none"><mask id="a" width="80" height="80" x="0" y="0" maskUnits="userSpaceOnUse" style="mask-type:alpha"><path fill="#D9D9D9" d="M0 0h80v80H0z"/></mask><g mask="url(#a)"><mask id="b" width="74" height="74" x="3" y="3" maskUnits="userSpaceOnUse" style="mask-type:alpha"><path fill="#D9D9D9" d="M3 3h74v74H3z"/></mask><g mask="url(#b)"><path fill="#B3B3B3" d="M40.537 3 5.96 15.253l5.464 45.615L40.574 77l29.3-16.35 5.461-45.614L40.537 3Z"/><path fill="#A6120D" d="M71.886 17.672 40.456 6.88v66.266l26.34-14.679 5.09-40.795Z"/><path fill="#DD1B16" d="m9.84 17.866 4.681 40.796 25.934 14.483V6.878L9.84 17.866Z"/><path fill="#F2F2F2" d="m49.107 42.157-8.652 4.074h-9.119L27.05 57.026l-7.973.149L40.455 9.286l8.652 32.87Zm-.837-2.051L40.512 24.64 34.15 39.839h6.306l7.815.267Z"/><path fill="#B3B3B3" d="m40.455 9.286.058 15.355 7.22 15.21h-7.261l-.017 6.37 10.041.01 4.693 10.945 7.63.143L40.454 9.286Z"/></g></g></svg>