<svg xmlns="http://www.w3.org/2000/svg" viewBox="0 0 50 50"><defs><style>.cls-1{fill:#009e9d;}.cls-2{fill:#fff;}</style></defs><g id="Layer_2" data-name="Layer 2"><g id="Layer_1-2" data-name="Layer 1"><g id="Web_Application_Testing" data-name="Web Application Testing"><path class="cls-1" d="M0,10A10,10,0,0,1,10,0H40A10,10,0,0,1,50,10V40A10,10,0,0,1,40,50H10A10,10,0,0,1,0,40Z"/><g id="Layer_16" data-name="Layer 16"><rect class="cls-2" x="22.67" y="33.85" width="4.66" height="1.86"/><path class="cls-2" d="M29.19,36.65H20.81a.92.92,0,0,0-.93.93v.93H30.12v-.93A.92.92,0,0,0,29.19,36.65Z"/><circle class="cls-2" cx="25" cy="16.62" r="1.86"/><path class="cls-2" d="M21.4,17.56a3.67,3.67,0,0,0,.39.94.45.45,0,0,1-.05.53l-.72.85.71.71.85-.71a.47.47,0,0,1,.54-.05,3.89,3.89,0,0,0,.94.39.45.45,0,0,1,.34.41l.1,1.11h1l.1-1.11a.45.45,0,0,1,.34-.41,3.89,3.89,0,0,0,.94-.39.48.48,0,0,1,.54,0l.85.72.71-.71L28.26,19a.45.45,0,0,1-.05-.53,3.34,3.34,0,0,0,.39-.94.48.48,0,0,1,.41-.35l1.11-.09v-1L29,16a.48.48,0,0,1-.41-.35,3.34,3.34,0,0,0-.39-.94.45.45,0,0,1,.05-.53l.72-.85-.71-.71-.85.71a.47.47,0,0,1-.54.05,3.89,3.89,0,0,0-.94-.39.45.45,0,0,1-.34-.41l-.1-1.11h-1l-.1,1.11a.45.45,0,0,1-.34.41,3.89,3.89,0,0,0-.94.39.47.47,0,0,1-.54-.05l-.85-.71-.71.71.72.85a.45.45,0,0,1,.05.53,3.34,3.34,0,0,0-.39.94A.48.48,0,0,1,21,16l-1.11.09v1l1.11.09A.48.48,0,0,1,21.4,17.56ZM25,13.82a2.8,2.8,0,1,1-2.79,2.8A2.79,2.79,0,0,1,25,13.82Z"/><path class="cls-2" d="M11.49,31.52a1.4,1.4,0,0,0,1.4,1.4H37.11a1.4,1.4,0,0,0,1.4-1.4v-1.4h-27Zm11.18-.46h4.66V32H22.67Z"/><path class="cls-2" d="M37.11,15.22H30.63a.47.47,0,0,1,.43.46v1.87a.47.47,0,0,1-.43.46l-1.22.1a4.72,4.72,0,0,1-.24.56l.8.94a.47.47,0,0,1,0,.63l-1.32,1.32a.46.46,0,0,1-.63,0l-.93-.79a3.88,3.88,0,0,1-.56.23l-.1,1.22a.47.47,0,0,1-.47.43H24.07a.47.47,0,0,1-.47-.43L23.5,21a3.88,3.88,0,0,1-.56-.23l-.93.79a.45.45,0,0,1-.63,0l-1.32-1.31a.47.47,0,0,1,0-.63l.79-.94a5.48,5.48,0,0,1-.23-.56L19.37,18a.47.47,0,0,1-.43-.46V15.68a.47.47,0,0,1,.43-.46H12.89a1.4,1.4,0,0,0-1.4,1.4V29.19h27V16.62A1.4,1.4,0,0,0,37.11,15.22Zm-13,13h-.93v-1.4h-1.4v1.4h-.93v-3a1.63,1.63,0,0,1,3.26,0ZM26.4,26.4h-.93v1.86h-.94V24.07A.47.47,0,0,1,25,23.6h1.4a1.4,1.4,0,0,1,0,2.8Zm2.79,1.86h-.93V23.6h.93Z"/><path class="cls-2" d="M22.44,24.53a.7.7,0,0,0-.7.7v.7h1.4v-.7A.71.71,0,0,0,22.44,24.53Z"/><path class="cls-2" d="M26.4,24.53h-.93v.94h.93a.47.47,0,0,0,0-.94Z"/></g></g></g></g></svg>