<svg xmlns="http://www.w3.org/2000/svg" viewBox="0 0 50 50"><defs><style>.cls-1{fill:#ffa510;}.cls-2{fill:#fff;}</style></defs><g id="Layer_2" data-name="Layer 2"><g id="Layer_1-2" data-name="Layer 1"><g id="Website_Development" data-name="Website Development"><path class="cls-1" d="M0,10A10,10,0,0,1,10,0H40A10,10,0,0,1,50,10V40A10,10,0,0,1,40,50H10A10,10,0,0,1,0,40Z"/><path class="cls-2" d="M25,30.72H12.17c-.57,0-.59,0-.59-.58V15.67a2.22,2.22,0,0,1,2.31-2.36H36a2.19,2.19,0,0,1,2.33,2.06,1,1,0,0,1,0,.24V30.23c0,.44,0,.49-.5.49ZM25,15.9H14.75c-.54,0-.55,0-.55.53V27.57c0,.52,0,.54.54.54H35.2c.54,0,.56,0,.56-.57V16.48c0-.56,0-.58-.6-.58Z"/><path class="cls-2" d="M20.6,34H29a.37.37,0,0,0,.43-.31v0c.35-1.19,0-1,1.34-1H41c.56,0,.63.11.4.6-.31.67-.61,1.35-.94,2a1.77,1.77,0,0,1-.41.41h0a9.14,9.14,0,0,1-4.6,1c-7.6-.06-15.22,0-22.82,0a2.1,2.1,0,0,1-.65-.14c-.67-.27-1.34-.56-2-.87a.73.73,0,0,1-.34-.33c-.36-.71-.69-1.44-1-2.17-.15-.35-.07-.49.31-.49h11a.38.38,0,0,1,.43.32h0A6.45,6.45,0,0,0,20.6,34Z"/><path class="cls-2" d="M31.13,22c-.91-.8-1.78-1.57-2.67-2.32-.22-.19-.26-.32,0-.55.63-.7.62-.71,1.33-.09,1,.9,2.07,1.81,3.11,2.7.22.19.25.31,0,.52-1.23,1-2.43,2-3.58,3-.2.18-.33.2-.52,0-.62-.72-.63-.72.09-1.35Z"/><path class="cls-2" d="M18.81,22c.91.79,1.77,1.56,2.66,2.31.25.21.25.36,0,.6-.59.65-.59.67-1.24.09l-3.09-2.7-.33-.25.27-.29,3.56-3.1c.22-.19.34-.16.52,0,.62.71.63.71-.08,1.33S19.58,21.31,18.81,22Z"/><path class="cls-2" d="M26.74,19a1.21,1.21,0,0,1-.08.25l-2.13,5.87c-.09.24-.19.32-.45.23-.92-.33-.92-.33-.58-1.26.63-1.73,1.27-3.47,1.89-5.21.11-.32.24-.43.56-.26a4.22,4.22,0,0,0,.6.23A.7.7,0,0,1,26.74,19Z"/></g></g></g></svg>