<svg xmlns="http://www.w3.org/2000/svg" width="80" height="80" fill="none"><mask id="a" width="80" height="80" x="0" y="0" maskUnits="userSpaceOnUse" style="mask-type:alpha"><path fill="#D9D9D9" d="M0 0h80v80H0z"/></mask><g mask="url(#a)"><path fill="#000" d="M76.883 47.669 69.71 16.925c-.411-1.683-1.981-3.365-3.621-3.835L33.372 3.202A4.426 4.426 0 0 0 32.017 3c-1.435 0-2.87.538-3.825 1.346l-23.51 21.46c-1.228 1.143-1.98 3.363-1.569 4.978l7.65 32.895c.41 1.682 1.98 3.365 3.62 3.834l30.6 9.285c.412.134.888.202 1.367.202 1.435 0 2.87-.538 3.825-1.346l25.136-22.94c1.297-1.21 1.98-3.364 1.57-5.045h.002ZM36.719 10.534l22.404 6.794c.888.27.888.673 0 .874l-11.816 2.69c-.887.203-2.118-.202-2.732-.806L36.31 11.34c-.683-.74-.477-1.075.411-.807l-.002.001Zm14.002 39.69c.206.874-.34 1.413-1.229 1.145l-24.249-7.4c-.888-.27-1.025-1.01-.34-1.614L43.48 25.402c.683-.606 1.367-.405 1.57.47l5.67 24.352Zm-39.958-21.73 19.671-18.027a1.73 1.73 0 0 1 2.39.067l9.905 10.494a1.673 1.673 0 0 1-.069 2.354l-19.74 18.03a1.73 1.73 0 0 1-2.39-.067l-9.835-10.494c-.615-.673-.546-1.75.068-2.354v-.002Zm4.782 28.658-5.192-22.535c-.205-.874.136-1.075.752-.404l8.264 8.745c.616.673.888 1.885.616 2.758L16.433 57.15c-.273.874-.683.874-.887 0l-.001.001Zm28.822 13.12-25.682-7.805a1.655 1.655 0 0 1-1.092-2.085l4.303-13.656c.273-.874 1.23-1.346 2.118-1.075l25.614 7.805a1.655 1.655 0 0 1 1.092 2.085l-4.303 13.656c-.205.874-1.162 1.345-2.048 1.075h-.002Zm22.815-18.366L49.97 67.581c-.684.606-1.025.405-.752-.47l3.552-11.435c.273-.875 1.229-1.75 2.118-1.95l11.816-2.691c.957-.135 1.162.202.478.874v-.003Zm1.913-3.364-14.138 3.163c-.888.203-1.776-.335-1.98-1.21l-6.011-25.766a1.62 1.62 0 0 1 1.229-1.95l14.14-3.163c.887-.202 1.776.335 1.98 1.21l6.01 25.766a1.62 1.62 0 0 1-1.228 1.95h-.001Z"/></g></svg>