<svg xmlns="http://www.w3.org/2000/svg" xml:space="preserve" style="enable-background:new 0 0 130 90" viewBox="0 0 130 90"><path d="M72.8 66.8c-.3 0-.7-.2-.8-.5l-7.5-12.4-13.9 3.8c-.4.1-.9-.1-1.1-.5L33.1 26.5c-.3-.5-.1-1.1.4-1.3.1-.1.2-.1.3-.1l13.8-1.9c.4-.1.8.1 1 .5l16.7 27.9 19.4-5.3-6.5-9.1c-.3-.4-.2-1.1.2-1.4.1-.1.2-.1.3-.2l9.1-2.1c.4-.1.8 0 1 .3l7.9 9.8c.3.4.3 1-.2 1.4-.1.1-.2.1-.4.2L88 47.4l7.2 10.2c.3.4.2 1.1-.2 1.4-.1.1-.2.1-.2.1l-21.7 7.6c-.1 0-.2.1-.3.1zm-6.4-13.5 6.8 11.3 19.7-6.9L86 48l-19.6 5.3zM35.5 26.8l15.2 28.7 12.7-3.4-16.1-26.8-11.8 1.5zm45.3 10.4 6.1 8.5 7.5-2-6.5-8.2-7.1 1.7z" style="fill:#ef533f"/></svg>