<svg xmlns="http://www.w3.org/2000/svg" width="80" height="80" fill="none"><mask id="a" width="80" height="80" x="0" y="0" maskUnits="userSpaceOnUse" style="mask-type:alpha"><path fill="#D9D9D9" d="M0 0h80v80H0z"/></mask><g mask="url(#a)"><path fill="#10AA50" d="M56.394 32.144c-3.99-17.604-12.307-22.29-14.43-25.603A37.672 37.672 0 0 1 39.646 2c-.112 1.564-.318 2.55-1.647 3.735-2.67 2.38-14.005 11.617-14.96 31.62-.888 18.65 13.711 30.149 15.64 31.338 1.483.73 3.29.015 4.17-.655 7.038-4.83 16.653-17.706 13.554-35.894"/><path fill="#B8C4C2" d="M40.25 58.762c-.368 4.616-.632 7.298-1.565 9.936 0 0 .613 4.394 1.043 9.05h1.522a84.65 84.65 0 0 1 1.66-9.746c-1.97-.97-2.585-5.19-2.66-9.24Z"/><path fill="#12924F" d="M42.909 68.004c-1.992-.92-2.568-5.228-2.656-9.242.492-6.622.636-13.264.43-19.901-.105-3.482.05-32.253-.858-36.465a35.015 35.015 0 0 0 2.14 4.142c2.122 3.315 10.442 8.002 14.43 25.606 3.107 18.157-6.457 31-13.486 35.86Z"/></g></svg>