<svg xmlns="http://www.w3.org/2000/svg" width="80" height="80" fill="none"><mask id="a" width="80" height="80" x="0" y="0" maskUnits="userSpaceOnUse" style="mask-type:alpha"><path fill="#D9D9D9" d="M0 0h80v80H0z"/></mask><g mask="url(#a)"><path fill="#000" d="M60.017 58.352c.53-4.268.371-4.891 3.663-4.202l.838.072c2.532.11 5.844-.393 7.822-1.264 4.188-1.875 6.672-5.008 2.542-4.184-9.42 1.875-10.104-1.205-10.104-1.205 9.951-14.25 14.113-32.337 10.518-36.763C65.506-1.274 48.554 4.44 48.27 4.59l-.091.016c-1.858-.377-3.911-.598-6.29-.63-4.264-.062-7.497 1.08-9.954 2.876 0 0-30.237-12.023-28.832 15.121.3 5.776 8.572 43.725 18.448 32.243 3.614-4.196 7.102-7.741 7.102-7.741a9.388 9.388 0 0 0 5.977 1.472l.17-.139a6.104 6.104 0 0 0 .068 1.63c-2.542 2.743-1.793 3.224-6.877 4.234-5.143 1.022-2.119 2.844-.15 3.322 2.392.578 7.927 1.396 11.668-3.656l-.15.576c.998.77.93 5.536 1.076 8.94.147 3.403.378 6.584 1.098 8.455.72 1.872 1.565 6.7 8.246 5.348 5.583-1.154 9.853-2.819 10.244-18.276"/><path stroke="#000" stroke-width="5.372" d="M60.017 58.352c.53-4.268.371-4.891 3.663-4.202l.838.072c2.532.11 5.844-.393 7.822-1.264 4.188-1.875 6.672-5.008 2.542-4.184-9.42 1.875-10.104-1.205-10.104-1.205 9.951-14.25 14.113-32.337 10.518-36.763C65.506-1.274 48.554 4.44 48.27 4.59l-.091.016c-1.858-.377-3.911-.598-6.29-.63-4.264-.062-7.497 1.08-9.954 2.876 0 0-30.237-12.023-28.832 15.121.3 5.776 8.572 43.725 18.448 32.243 3.614-4.196 7.102-7.741 7.102-7.741a9.388 9.388 0 0 0 5.977 1.472l.17-.139a6.104 6.104 0 0 0 .068 1.63c-2.542 2.743-1.793 3.224-6.877 4.234-5.143 1.022-2.119 2.844-.15 3.322 2.392.578 7.927 1.396 11.668-3.656l-.15.576c.998.77.93 5.536 1.076 8.94.147 3.403.378 6.584 1.098 8.455.72 1.872 1.565 6.7 8.246 5.348 5.583-1.154 9.853-2.819 10.244-18.276"/><path fill="#336791" d="M74.853 48.803c-9.42 1.875-10.104-1.205-10.104-1.205 9.95-14.25 14.113-32.337 10.521-36.763-9.79-12.08-26.742-6.363-27.026-6.216l-.09.016c-2.071-.4-4.176-.613-6.288-.632-4.263-.063-7.496 1.079-9.954 2.875 0 0-30.24-12.023-28.831 15.121.3 5.776 8.571 43.725 18.447 32.243 3.637-4.221 7.125-7.767 7.125-7.767a9.388 9.388 0 0 0 5.977 1.472l.17-.138a6.132 6.132 0 0 0 .068 1.63c-2.542 2.742-1.792 3.224-6.877 4.234-5.143 1.022-2.118 2.843-.15 3.321 2.393.58 7.927 1.397 11.669-3.655l-.15.576c.997.77 1.694 5.01 1.577 8.855-.117 3.844-.195 6.48.587 8.543.782 2.064 1.564 6.7 8.246 5.348 5.583-1.154 8.474-4.152 8.881-9.141.287-3.549.932-3.026.978-6.197l.522-1.504c.596-4.813.097-6.364 3.536-5.64l.837.072c2.533.11 5.848-.393 7.79-1.264 4.188-1.875 6.672-5.008 2.542-4.184h-.003Z"/><path stroke="#fff" stroke-linecap="round" stroke-linejoin="round" stroke-width="1.79" d="M39.91 51.53c-.26 8.952.065 17.967.971 20.132.906 2.164 2.852 6.448 9.537 5.07 5.583-1.154 7.617-3.39 8.497-8.326l2.063-15.782M31.898 6.651S1.64-5.29 3.049 21.854c.3 5.775 8.572 43.724 18.447 32.242a157.776 157.776 0 0 1 6.864-7.474M48.241 4.471c-1.043.314 16.83-6.307 26.993 6.222 3.585 4.426-.57 22.513-10.52 36.763"/><path stroke="#fff" stroke-linecap="round" stroke-linejoin="bevel" stroke-width="1.79" d="M64.717 47.45s.651 3.082 10.103 1.201c4.13-.824 1.643 2.309-2.542 4.184-3.435 1.541-11.14 1.934-11.267-.19-.326-5.488 4.054-3.821 3.738-5.196-.287-1.239-2.249-2.453-3.54-5.486-1.13-2.642-15.514-22.931 3.99-19.921.717-.142-5.084-17.93-23.337-18.188-18.251-.258-17.675 21.658-17.675 21.658"/><path stroke="#fff" stroke-linejoin="round" stroke-width="1.79" d="M34.803 49.331c-2.542 2.743-1.793 3.224-6.877 4.234-5.143 1.022-2.119 2.844-.15 3.322 2.392.579 7.926 1.396 11.668-3.659 1.14-1.54-.006-3.995-1.57-4.617-.757-.302-1.767-.68-3.065.723l-.006-.003Z"/><path stroke="#fff" stroke-linecap="round" stroke-linejoin="round" stroke-width="1.79" d="M34.637 49.284c-.261-1.614.547-3.53 1.41-5.776 1.298-3.365 4.29-6.731 1.898-17.417-1.783-7.959-13.754-1.658-13.754-.579 0 1.08.54 5.474-.196 10.585-.968 6.675 4.4 12.319 10.58 11.743"/><path fill="#fff" stroke="#fff" stroke-width=".598" d="M31.788 25.351c-.055.368.7 1.353 1.682 1.485.98.132 1.818-.636 1.874-1.007.055-.371-.701-.774-1.682-.906s-1.825.063-1.874.428Z"/><path fill="#fff" stroke="#fff" stroke-width=".297" d="M61.656 24.6c.052.368-.7 1.352-1.681 1.484-.982.133-1.826-.635-1.875-1.006-.049-.372.701-.774 1.682-.906s1.825.063 1.874.428Z"/><path stroke="#fff" stroke-linecap="round" stroke-linejoin="round" stroke-width="1.79" d="M65.163 22.05c.163 2.893-.645 4.86-.75 7.939-.15 4.473 2.21 9.594-1.345 14.722"/></g></svg>