<svg xmlns="http://www.w3.org/2000/svg" width="80" height="80" fill="none"><mask id="a" width="80" height="80" x="0" y="0" maskUnits="userSpaceOnUse" style="mask-type:alpha"><path fill="#D9D9D9" d="M0 0h80v80H0z"/></mask><g mask="url(#a)"><path stroke="#61DAFB" stroke-width="2" d="M40 53.366c20.434 0 37-5.984 37-13.366S60.434 26.634 40 26.634 3 32.618 3 40s16.566 13.366 37 13.366Z"/><path stroke="#61DAFB" stroke-width="2" d="M27.765 46.683C37.982 63.427 51.743 74.008 58.5 70.317c6.757-3.691 3.951-20.256-6.266-37S28.256 5.992 21.5 9.683c-6.757 3.691-3.952 20.257 6.265 37Z"/><path stroke="#61DAFB" stroke-width="2" d="M27.765 33.317c-10.217 16.743-13.022 33.309-6.265 37 6.756 3.69 20.517-6.89 30.734-23.634 10.217-16.744 13.023-33.309 6.266-37-6.757-3.69-20.518 6.89-30.735 23.634Z"/><path fill="#61DAFB" d="M40 46.524c3.808 0 6.895-2.921 6.895-6.524s-3.087-6.524-6.896-6.524c-3.808 0-6.895 2.92-6.895 6.524 0 3.603 3.087 6.524 6.895 6.524Z"/></g></svg>