<svg xmlns="http://www.w3.org/2000/svg" width="80" height="80" fill="none"><mask id="a" width="80" height="80" x="0" y="0" maskUnits="userSpaceOnUse" style="mask-type:alpha"><path fill="#D9D9D9" d="M0 0h80v80H0z"/></mask><g mask="url(#a)"><path fill="url(#b)" d="m76.889 56.614.075-1.03c.022-.408-23.296-23.765-23.296-23.765h-.555s23.636 26.32 23.778 24.795h-.002Z"/><path fill="url(#c)" d="m27.137 48.51-.093.215-.101.224c-.743 1.637 10.406 13.144 11.303 11.746l.122-.189.136-.214c.717-1.149-11.048-12.526-11.367-11.779v-.003Z"/><path fill="url(#d)" d="M42.893 64.692a3.193 3.193 0 0 1-.461.685c-.035.074 10.884 11.506 10.884 11.506h.983S44.05 65.175 42.893 64.692Z"/><path fill="url(#e)" d="M76.98 55.376c-.511 11.95-9.876 21.506-21.318 21.506h-1.547L42.69 65a43.67 43.67 0 0 0 2.591-4.361h10.382c3.283 0 5.955-2.82 5.955-6.288 0-3.466-2.672-6.287-5.955-6.287H49.52c.468-2.612.724-5.306.724-8.062 0-2.797-.26-5.53-.746-8.184h3.816l23.597 24.55c.028-.33.05-.66.067-.99h.003ZM9.208 3H3v16.245h6.208c10.841 0 19.663 9.31 19.663 20.756a21.607 21.607 0 0 1-1.827 8.724L38.37 60.509c3.848-6.066 5.9-13.204 5.892-20.505C44.261 19.6 28.536 3 9.208 3Z"/><path fill="url(#f)" d="M55.662 3H30.525c6.14 3.957 11.223 9.569 14.688 16.245h10.449c3.283 0 5.955 2.82 5.955 6.287 0 3.468-2.672 6.286-5.955 6.286h-2.348L76.91 56.367c.055-.666.09-1.336.09-2.017 0-5.476-1.861-10.5-4.952-14.41C75.138 36.032 77 31.008 77 25.532 77.003 13.108 67.43 3 55.662 3Z"/><path fill="url(#g)" d="M54.115 76.883h-23.41c4.712-3.072 8.786-7.128 11.984-11.884l11.426 11.884ZM38.37 60.506 27.045 48.722c-3.129 7.098-9.946 12.035-17.837 12.035H3V77h6.208c12.145 0 22.873-6.56 29.16-16.497v.003Z"/></g><defs><linearGradient id="b" x1="2560.4" x2="6387.67" y1="499.558" y2="4366.69" gradientUnits="userSpaceOnUse"><stop stop-color="#F9A03C"/><stop offset="1" stop-color="#F7974E"/></linearGradient><linearGradient id="c" x1="-222.368" x2="1540.79" y1="644.788" y2="2274.07" gradientUnits="userSpaceOnUse"><stop stop-color="#F9A03C"/><stop offset="1" stop-color="#F7974E"/></linearGradient><linearGradient id="d" x1="573.815" x2="2164.84" y1="1252.93" y2="2980.78" gradientUnits="userSpaceOnUse"><stop stop-color="#F9A03C"/><stop offset="1" stop-color="#F7974E"/></linearGradient><linearGradient id="e" x1="2149.08" x2="15595.1" y1="-322.821" y2="16489.7" gradientUnits="userSpaceOnUse"><stop stop-color="#F26D58"/><stop offset="1" stop-color="#F9A03C"/></linearGradient><linearGradient id="f" x1="5637.91" x2="14120.6" y1="362.906" y2="5642.29" gradientUnits="userSpaceOnUse"><stop stop-color="#B84E51"/><stop offset="1" stop-color="#F68E48"/></linearGradient><linearGradient id="g" x1="4248.16" x2="4384.1" y1="4898.86" y2="8157.68" gradientUnits="userSpaceOnUse"><stop stop-color="#F9A03C"/><stop offset="1" stop-color="#F7974E"/></linearGradient></defs></svg>