<svg xmlns="http://www.w3.org/2000/svg" width="80" height="80" fill="none"><mask id="a" width="80" height="80" x="0" y="0" maskUnits="userSpaceOnUse" style="mask-type:alpha"><path fill="#D9D9D9" d="M0 0h80v80H0z"/></mask><g mask="url(#a)"><path fill="#F93535" d="M33.04 25.14a.72.72 0 0 0 0-.998l-6.845-6.936a.7.7 0 0 0-.986 0L3.2 39.495a.72.72 0 0 0 0 .998l22.008 22.303a.7.7 0 0 0 .985 0l6.845-6.937a.72.72 0 0 0 0-.998L18.876 40.504a.72.72 0 0 1 0-.998L33.039 25.14Zm21.762-7.937a.7.7 0 0 0-.985 0L31.839 39.466a.72.72 0 0 0 0 .998l6.845 6.948a.7.7 0 0 0 .985 0l14.148-14.334a.7.7 0 0 1 .985 0l6.334 6.418a.72.72 0 0 1 0 .998L46.972 54.849a.72.72 0 0 0 0 .998l6.845 6.937a.7.7 0 0 0 .985 0L76.8 40.493a.72.72 0 0 0 0-1l-21.997-22.29Z"/></g></svg>