<svg xmlns="http://www.w3.org/2000/svg" width="80" height="80" fill="none"><mask id="a" width="80" height="80" x="0" y="0" maskUnits="userSpaceOnUse" style="mask-type:alpha"><path fill="#D9D9D9" d="M0 0h80v80H0z"/></mask><g mask="url(#a)"><path fill="#5382A1" d="M30.391 60.228s-2.798 1.645 1.991 2.201c5.802.67 8.768.573 15.162-.65 0 0 1.68 1.065 4.028 1.988-14.333 6.209-32.439-.36-21.18-3.539ZM28.64 52.127s-3.138 2.347 1.654 2.848c6.198.646 11.093.7 19.562-.949 0 0 1.172 1.2 3.014 1.857-17.33 5.121-36.632.404-24.23-3.757Z"/><path fill="#EE2B2A" d="M43.405 38.383c3.532 4.11-.928 7.808-.928 7.808s8.968-4.679 4.85-10.538c-3.847-5.464-6.797-8.179 9.172-17.539 0 0-25.066 6.327-13.094 20.27Z"/><path fill="#5382A1" d="M62.362 66.22s2.07 1.725-2.28 3.06c-8.274 2.532-34.435 3.297-41.702.1-2.613-1.149 2.286-2.743 3.827-3.077 1.608-.352 2.526-.287 2.526-.287-2.905-2.068-18.779 4.062-8.063 5.817 29.224 4.79 53.272-2.156 45.692-5.612ZM31.737 43.732s-13.308 3.195-4.713 4.355c3.63.49 10.864.38 17.602-.19 5.507-.47 11.037-1.469 11.037-1.469s-1.942.84-3.347 1.81c-13.513 3.592-39.618 1.921-32.103-1.753 6.356-3.105 11.524-2.753 11.524-2.753ZM55.609 57.218c13.736-7.215 7.385-14.148 2.952-13.214-1.087.229-1.571.427-1.571.427s.403-.639 1.174-.915c8.77-3.116 15.515 9.191-2.831 14.066 0 0 .212-.192.276-.364Z"/><path fill="#EE2B2A" d="M47.326 3s7.608 7.691-7.215 19.519c-11.887 9.488-2.71 14.897-.005 21.078-6.939-6.327-12.03-11.897-8.615-17.08 5.014-7.61 18.905-11.3 15.835-23.517Z"/><path fill="#5382A1" d="M33.087 76.767c13.185.853 33.434-.473 33.913-6.779 0 0-.922 2.39-10.897 4.29-11.254 2.14-25.135 1.89-33.368.518 0 0 1.686 1.41 10.352 1.971Z"/></g></svg>