<svg xmlns="http://www.w3.org/2000/svg" width="80" height="80" fill="none"><mask id="a" width="80" height="80" x="0" y="0" maskUnits="userSpaceOnUse" style="mask-type:alpha"><path fill="#D9D9D9" d="M0 0h80v80H0z"/></mask><g mask="url(#a)"><path fill="#00618A" d="M3 55.612h2.438v-9.57l3.774 8.346c.445 1.006 1.055 1.367 2.25 1.367 1.196 0 1.782-.358 2.228-1.367l3.774-8.346v9.573h2.438v-9.557c0-.933-.375-1.383-1.149-1.616-1.852-.575-3.094-.078-3.656 1.165l-3.704 8.236-3.587-8.24c-.54-1.242-1.805-1.74-3.657-1.165-.774.233-1.149.684-1.149 1.616v9.558Zm18.929-7.792h2.437v5.274c-.023.287.092.96 1.428.98.681.011 5.259 0 5.301 0v-6.28h2.443c.01 0-.003 8.563-.002 8.6.013 2.112-2.636 2.57-3.856 2.606h-7.698V57.37h7.711c1.57-.166 1.384-.94 1.384-1.202v-.636h-5.181c-2.411-.021-3.946-1.068-3.965-2.272-.002-.108.052-5.387-.002-5.44Z"/><path fill="#E48E00" d="M35.417 55.611h7.01c.82 0 1.617-.17 2.25-.466 1.056-.481 1.571-1.134 1.571-1.989v-1.771c0-.7-.586-1.352-1.734-1.787-.61-.234-1.36-.358-2.087-.358h-2.953c-.985 0-1.454-.295-1.57-.948-.024-.077-.024-.144-.024-.218v-1.103c0-.062 0-.124.023-.202.117-.497.375-.637 1.242-.718.07 0 .164-.016.235-.016h6.962v-1.616h-6.845c-.984 0-1.5.062-1.969.202-1.455.45-2.088 1.17-2.088 2.413v1.414c0 1.088 1.243 2.02 3.329 2.237.235.016.469.031.703.031h2.532c.094 0 .188 0 .258.016.773.062 1.102.202 1.336.482.145.143.188.28.188.43v1.415c0 .171-.117.389-.352.575-.21.187-.562.31-1.031.342-.094 0-.164.015-.258.015h-6.728v1.621Zm26.04-2.812c0 1.663 1.241 2.595 3.75 2.782.234.018.468.028.703.03h6.353v-1.616h-6.4c-1.43 0-1.97-.357-1.97-1.212v-8.36h-2.437v8.375Zm-13.654.084v-5.761c0-1.464 1.034-2.352 3.077-2.632.218-.031.438-.047.658-.047h4.628c.228 0 .456.016.681.047 2.044.28 3.078 1.167 3.078 2.632v5.761c0 1.188-.44 1.823-1.451 2.237l2.401 2.156h-2.83l-1.943-1.744-1.956.123h-2.608a5.43 5.43 0 0 1-1.433-.202c-1.553-.42-2.301-1.23-2.301-2.57Zm2.632-.144c0 .078.023.156.047.25.144.67.775 1.043 1.734 1.043h2.215l-2.034-1.826h2.83l1.771 1.592c.327-.173.542-.438.614-.778.024-.078.024-.156.024-.234v-5.524c0-.062 0-.144-.024-.218-.144-.623-.775-.98-1.715-.98h-3.676c-1.084 0-1.785.466-1.785 1.198v5.482l-.001-.005Z"/><path fill="#00618A" d="M74.408 41.741c-1.499-.04-2.644.098-3.622.509-.279.117-.722.12-.767.466.152.16.177.397.298.593.234.376.628.88.98 1.144.384.288.78.597 1.193.848.734.445 1.553.699 2.259 1.144.416.262.83.593 1.236.89.2.146.336.374.596.466v-.043c-.138-.173-.173-.412-.298-.593l-.554-.55c-.542-.72-1.23-1.343-1.96-1.865-.583-.416-1.888-.978-2.131-1.653l-.043-.042c.413-.047.897-.196 1.28-.297.64-.17 1.213-.127 1.874-.296l.895-.255v-.17c-.334-.34-.573-.792-.937-1.1-.954-.81-1.996-1.616-3.068-2.29-.595-.373-1.33-.615-1.96-.932-.212-.106-.585-.162-.725-.34-.33-.419-.51-.951-.766-1.436a54.59 54.59 0 0 1-1.535-3.22c-.323-.736-.534-1.46-.937-2.12-1.935-3.163-4.018-5.072-7.244-6.948-.686-.4-1.513-.557-2.386-.763l-1.407-.085c-.286-.119-.584-.467-.852-.636-1.07-.672-3.81-2.132-4.602-.216-.5 1.212.747 2.395 1.193 3.01.313.43.714.913.937 1.398.147.318.173.637.299.974.31.827.579 1.733.98 2.5.202.388.425.797.681 1.144.157.213.427.307.469.636-.263.367-.278.934-.426 1.399-.666 2.088-.415 4.683.553 6.229.298.474.998 1.492 1.96 1.102.843-.342.651-1.398.896-2.33.054-.213.02-.367.128-.51v.043l.767 1.525c.567.91 1.575 1.86 2.429 2.501.442.332.795.907 1.363 1.102v-.043h-.042c-.111-.172-.285-.243-.427-.38a9.746 9.746 0 0 1-.98-1.102c-.777-1.049-1.463-2.196-2.088-3.39-.298-.57-.558-1.2-.81-1.78-.096-.224-.095-.562-.297-.678-.276.426-.682.77-.895 1.271-.341.803-.385 1.782-.511 2.797-.075.027-.042.008-.086.043-.593-.143-.802-.75-1.022-1.272-.558-1.318-.662-3.44-.17-4.957.126-.393.7-1.63.468-1.992-.111-.362-.477-.575-.682-.848a6.666 6.666 0 0 1-.682-1.186c-.457-1.028-.67-2.181-1.15-3.22-.23-.497-.618-1-.938-1.438-.353-.488-.749-.85-1.022-1.437-.098-.21-.23-.546-.085-.763a.334.334 0 0 1 .255-.254c.247-.19.936.063 1.193.17.683.282 1.254.55 1.833.932.278.18.559.537.895.636h.383c.6.137 1.272.043 1.832.212.99.299 1.878.765 2.684 1.27 2.457 1.543 4.465 3.738 5.838 6.36.222.422.317.825.512 1.272.392.898.887 1.83 1.278 2.711.39.88.77 1.768 1.321 2.5.29.385 1.41.592 1.918.805.356.15.94.306 1.278.509.645.387 1.27.848 1.875 1.272.303.212 1.233.676 1.279 1.059l-.001-.012Z"/><path fill="#00618A" fill-rule="evenodd" d="M55.36 25.597a3.047 3.047 0 0 0-.766.085v.043h.042c.15.304.412.5.596.762l.427.89.043-.042c.263-.185.384-.481.383-.933-.106-.11-.122-.25-.214-.381-.122-.176-.361-.276-.511-.424Z" clip-rule="evenodd"/><path fill="#E48E00" fill-rule="evenodd" d="M73.407 53.95c0 1.067.848 1.786 1.797 1.786.948 0 1.796-.719 1.796-1.786 0-1.067-.848-1.786-1.796-1.786-.949 0-1.797.719-1.797 1.786Zm3.19 0c0 .81-.622 1.415-1.394 1.415-.78 0-1.395-.605-1.395-1.415s.614-1.415 1.395-1.415c.771 0 1.394.605 1.394 1.415Zm-.91 1.02h.402l-.589-.896c.316-.033.555-.186.555-.557 0-.415-.263-.586-.77-.586h-.8v2.04h.344v-.882h.321l.537.881Zm-.858-1.168v-.586h.398c.206 0 .455.038.455.277 0 .286-.225.31-.484.31h-.369v-.001Z" clip-rule="evenodd"/></g></svg>