<svg xmlns="http://www.w3.org/2000/svg" width="80" height="80" fill="none"><mask id="a" width="80" height="80" x="0" y="0" maskUnits="userSpaceOnUse" style="mask-type:alpha"><path fill="#D9D9D9" d="M0 0h80v80H0z"/></mask><g mask="url(#a)"><mask id="b" width="74" height="74" x="3" y="3" maskUnits="userSpaceOnUse" style="mask-type:alpha"><path fill="#D9D9D9" d="M3 3h74v74H3z"/></mask><g mask="url(#b)"><path fill="#83CD29" d="M29.755 35.576a.789.789 0 0 1 .793 0l6.593 3.79a.81.81 0 0 1 .396.699v7.604a.79.79 0 0 1-.396.687l-6.593 3.802a.79.79 0 0 1-.793 0l-6.593-3.802a.79.79 0 0 1-.396-.687v-7.604c0-.284.15-.558.396-.7l6.593-3.789ZM69.496 42.27c.024-.014.053-.014.08-.014.026 0 .042 0 .065.013l1.269.74c.047.027.079.077.079.132v1.452a.155.155 0 0 1-.08.132l-1.268.726a.138.138 0 0 1-.145 0l-1.268-.726a.154.154 0 0 1-.08-.132v-1.452c0-.055.032-.105.08-.132l1.268-.74Z"/><path fill="#404137" fill-rule="evenodd" d="M52.756 25.877a.4.4 0 0 0-.396.396v10.099c0 .1-.047.188-.132.237a.276.276 0 0 1-.278 0l-1.651-.95a.792.792 0 0 0-.793 0l-6.593 3.802a.81.81 0 0 0-.396.7v7.604c0 .284.15.544.396.686l6.593 3.803a.79.79 0 0 0 .793 0l6.592-3.803a.79.79 0 0 0 .397-.686V28.807a.805.805 0 0 0-.41-.7l-3.924-2.19a.389.389 0 0 0-.198-.04Zm-42.41 9.491a.746.746 0 0 0-.357.093l-6.593 3.802A.789.789 0 0 0 3 39.95l.013 10.204a.39.39 0 0 0 .198.344.385.385 0 0 0 .397 0l3.91-2.245a.806.806 0 0 0 .41-.686V42.8c0-.284.15-.545.396-.686l1.665-.964a.78.78 0 0 1 .396-.106.78.78 0 0 1 .397.106l1.665.964a.788.788 0 0 1 .396.686v4.766c0 .283.163.541.41.686l3.91 2.245a.397.397 0 0 0 .595-.343l.013-10.205a.785.785 0 0 0-.396-.687l-6.593-3.802a.741.741 0 0 0-.357-.093h-.08Zm59.242.093a.789.789 0 0 0-.396.106l-6.593 3.802a.79.79 0 0 0-.396.686v7.604c0 .286.16.546.41.687l6.539 3.723a.794.794 0 0 0 .78.013l3.963-2.205a.39.39 0 0 0 .013-.686l-6.632-3.802a.426.426 0 0 1-.212-.357v-2.376c0-.142.089-.273.212-.343l2.061-1.189a.396.396 0 0 1 .396 0l2.061 1.188a.395.395 0 0 1 .199.344v1.874a.394.394 0 0 0 .594.344l3.95-2.297a.794.794 0 0 0 .397-.687v-1.835a.792.792 0 0 0-.397-.687l-6.553-3.802a.787.787 0 0 0-.396-.105Zm-19.712 5.677c.034 0 .075.008.105.026l2.26 1.307c.061.035.105.1.105.172v2.613a.203.203 0 0 1-.105.172l-2.26 1.307a.2.2 0 0 1-.198 0l-2.259-1.307a.204.204 0 0 1-.106-.172v-2.614c0-.07.045-.136.106-.171l2.26-1.307a.174.174 0 0 1 .092-.026Z" clip-rule="evenodd"/><path fill="#000" d="M25.951 75.027V58.863h.878v2.542c.104-.113.2-.232.287-.358a4.353 4.353 0 0 1 3.97-2.46c2.002-.059 3.629.681 4.585 2.46a7.894 7.894 0 0 1 .191 7.246c-.89 1.994-3.091 2.985-5.447 2.621a4.409 4.409 0 0 1-3.515-2.316v6.429h-.949Zm.878-10.446.197 1.898c.347 2.16 1.627 3.437 3.635 3.677a4.136 4.136 0 0 0 4.538-2.62 7.021 7.021 0 0 0-.155-5.78 4.042 4.042 0 0 0-4.263-2.351 3.944 3.944 0 0 0-3.52 2.907c-.188.747-.332 1.504-.431 2.268Zm27.75 2.197a4.725 4.725 0 0 1-1.528 2.957 4.739 4.739 0 0 1-3.1 1.221c-3.683.185-5.411-2.256-5.686-5.074a8.119 8.119 0 0 1 .718-4.477 5.008 5.008 0 0 1 5.207-2.788 4.788 4.788 0 0 1 4.244 3.636c.188.887.325 1.784.413 2.686h-9.672c-.18 2.555 1.196 4.609 3.145 5.104 2.427.596 4.502-.454 5.255-2.758.167-.591.472-.675 1.01-.507h-.007Zm-9.411-2.657h8.651c-.054-2.721-1.751-4.7-4.054-4.722-2.599-.042-4.484 1.857-4.597 4.722Zm11.199 2.716h.848a3.39 3.39 0 0 0 1.996 2.925 5.228 5.228 0 0 0 4.532-.119 2.037 2.037 0 0 0 1.196-2 1.843 1.843 0 0 0-1.244-1.845c-.933-.346-1.925-.537-2.875-.841a21.097 21.097 0 0 1-2.894-1.057c-1.531-.746-1.626-3.653.108-4.573a6.113 6.113 0 0 1 5.835-.09 3.068 3.068 0 0 1 1.555 3.129h-.728c0-.035-.066-.066-.066-.102-.09-2.315-2.038-3.039-4.13-2.835a5.291 5.291 0 0 0-1.794.542 1.79 1.79 0 0 0-1.04 1.791 1.786 1.786 0 0 0 1.196 1.684c.913.334 1.883.549 2.828.811l2.283.597a2.697 2.697 0 0 1 1.853 2.43 2.87 2.87 0 0 1-1.548 2.984c-1.997 1.128-5.285.83-6.75-.596a3.976 3.976 0 0 1-1.16-2.835h-.002Zm20.219-4.47h-.796c0-.108-.042-.211-.054-.293a2.593 2.593 0 0 0-2.117-2.495 5.227 5.227 0 0 0-3.353.161 2.037 2.037 0 0 0-1.477 1.94 1.871 1.871 0 0 0 1.434 1.886l3.635.932c.393.094.78.212 1.16.352a2.992 2.992 0 0 1 1.98 2.724 2.978 2.978 0 0 1-1.826 2.834 6.662 6.662 0 0 1-5.38.054 3.729 3.729 0 0 1-2.249-3.618h.777a4.354 4.354 0 0 0 2.587 3.132 4.364 4.364 0 0 0 4.05-.362 2.134 2.134 0 0 0 1.147-1.993 1.843 1.843 0 0 0-1.261-1.833c-.933-.347-1.925-.531-2.876-.842a21.208 21.208 0 0 1-2.911-1.044c-1.495-.735-1.615-3.618.09-4.537a6.027 6.027 0 0 1 5.93-.066 3.123 3.123 0 0 1 1.501 3.062l.009.005Zm-52.08 8.297a1.372 1.372 0 0 1-1.698-.644l-3.091-4.269-.448-.596-3.587 4.871a1.313 1.313 0 0 1-1.615.633l4.622-6.19-4.3-5.594a1.43 1.43 0 0 1 1.704.596l3.203 4.321 3.223-4.304a1.285 1.285 0 0 1 1.602-.597l-1.668 2.21-2.26 2.938a.597.597 0 0 0 0 .889l4.304 5.736h.01Zm19.622-11.848v.841a4.34 4.34 0 0 0-4.305 2.703 4.324 4.324 0 0 0-.31 1.768v6.567h-.855V58.868h.843v2.424c1.034-1.768 2.63-2.424 4.633-2.471l-.006-.005ZM3.001 64.39l.377-1.856c1.034-3.672 5.25-5.2 8.15-2.925 1.697 1.33 2.121 3.217 2.038 5.343H4c-.155 3.796 2.589 6.088 6.098 4.918a3.65 3.65 0 0 0 2.313-2.573c.186-.596.492-.698 1.053-.526a4.843 4.843 0 0 1-2.32 3.54 5.628 5.628 0 0 1-6.547-.835 5.878 5.878 0 0 1-1.47-3.451c0-.21-.07-.407-.12-.596-.005-.355-.007-.7-.007-1.039h.001Zm1.01-.256h8.652c-.054-2.752-1.794-4.704-4.114-4.723-2.582-.035-4.43 1.875-4.544 4.71l.007.013Z"/></g></g></svg>