<svg xmlns="http://www.w3.org/2000/svg" width="80" height="80" fill="none"><mask id="a" width="80" height="80" x="0" y="0" maskUnits="userSpaceOnUse" style="mask-type:alpha"><path fill="#D9D9D9" d="M0 0h80v80H0z"/></mask><g mask="url(#a)"><path fill="#68BD45" d="M70.3 6.913a34.13 34.13 0 0 1-3.95 7.013 37.042 37.042 0 0 0-52.813.273 37.153 37.153 0 0 0-7.374 40.917 37.117 37.117 0 0 0 8.412 11.944l1.37 1.21a37.025 37.025 0 0 0 38.304 5.804A37.069 37.069 0 0 0 69.965 61.49a37.126 37.126 0 0 0 6.828-18.954c1.01-9.449-1.76-21.407-6.493-35.62v-.002ZM19.848 67.275a3.17 3.17 0 0 1-5.27-3.475 3.172 3.172 0 0 1 3.098-1.681 3.168 3.168 0 0 1 2.86 2.83 3.176 3.176 0 0 1-.688 2.326Zm50.298-11.114c-9.15 12.201-28.686 8.084-41.211 8.676 0 0-2.22.13-4.456.498 0 0 .843-.359 1.921-.767 8.796-3.065 12.954-3.655 18.297-6.407 10.06-5.12 20.012-16.333 22.08-27.988-3.828 11.212-15.45 20.854-26.028 24.77-7.25 2.675-20.35 5.28-20.35 5.28l-.527-.282c-8.912-4.337-9.187-23.66 7.02-29.89 7.097-2.737 13.887-1.235 21.55-3.066 8.185-1.946 17.653-8.084 21.506-16.094 4.31 12.815 9.5 32.871.192 45.278l.006-.008Z"/></g></svg>