<?xml version="1.0" encoding="UTF-8"?>
<!DOCTYPE svg PUBLIC "-//W3C//DTD SVG 1.1//EN" "http://www.w3.org/Graphics/SVG/1.1/DTD/svg11.dtd">
<svg xmlns="http://www.w3.org/2000/svg" version="1.1" width="605px" height="528px" style="shape-rendering:geometricPrecision; text-rendering:geometricPrecision; image-rendering:optimizeQuality; fill-rule:evenodd; clip-rule:evenodd" xmlns:xlink="http://www.w3.org/1999/xlink">
<g><path style="opacity:0.976" fill="#4b9efe" d="M 408.5,-0.5 C 411.5,-0.5 414.5,-0.5 417.5,-0.5C 419.151,0.970083 420.985,2.30342 423,3.5C 423.791,4.74499 424.291,6.07833 424.5,7.5C 423.262,6.58761 421.928,6.42094 420.5,7C 338.5,54.3333 256.5,101.667 174.5,149C 167.796,152.68 161.462,156.847 155.5,161.5C 151.653,158.407 147.32,156.074 142.5,154.5C 143.625,152.871 144.959,151.371 146.5,150C 234.059,100.059 321.393,49.8925 408.5,-0.5 Z"/></g>
<g><path style="opacity:1" fill="#2862da" d="M 424.5,7.5 C 425.299,14.7544 425.799,22.0877 426,29.5C 431.88,24.9767 438.38,21.6433 445.5,19.5C 449.194,21.1589 450.861,24.1589 450.5,28.5C 360.031,80.2355 269.698,132.236 179.5,184.5C 178.285,178.299 179.952,173.132 184.5,169C 260.997,125.253 337.33,81.2527 413.5,37C 414.469,32.2633 414.803,27.43 414.5,22.5C 410.684,23.4006 407.017,24.9006 403.5,27C 325.997,72.2525 248.33,117.253 170.5,162C 167.829,163.25 165.663,165.083 164,167.5C 163.333,230.5 163.333,293.5 164,356.5C 164.414,356.957 164.914,357.291 165.5,357.5C 169.701,354.9 174.034,352.566 178.5,350.5C 181.342,351.612 184.008,351.112 186.5,349C 265.895,302.638 345.562,256.804 425.5,211.5C 425.666,216.511 425.499,221.511 425,226.5C 424.333,227.833 423.667,229.167 423,230.5C 418.521,233.647 414.021,236.647 409.5,239.5C 380.5,255.331 351.833,271.664 323.5,288.5C 296.967,303.596 270.634,318.929 244.5,334.5C 215.555,350.976 186.555,367.476 157.5,384C 155.288,384.789 153.288,384.622 151.5,383.5C 152.873,383.657 154.207,383.49 155.5,383C 154.171,309.196 154.171,235.363 155.5,161.5C 161.462,156.847 167.796,152.68 174.5,149C 256.5,101.667 338.5,54.3333 420.5,7C 421.928,6.42094 423.262,6.58761 424.5,7.5 Z"/></g>
<g><path style="opacity:1" fill="#f9fbfe" d="M 179.5,184.5 C 179.829,239.905 179.496,295.238 178.5,350.5C 174.034,352.566 169.701,354.9 165.5,357.5C 164.914,357.291 164.414,356.957 164,356.5C 163.333,293.5 163.333,230.5 164,167.5C 165.663,165.083 167.829,163.25 170.5,162C 248.33,117.253 325.997,72.2525 403.5,27C 407.017,24.9006 410.684,23.4006 414.5,22.5C 414.803,27.43 414.469,32.2633 413.5,37C 337.33,81.2527 260.997,125.253 184.5,169C 179.952,173.132 178.285,178.299 179.5,184.5 Z"/></g>
<g><path style="opacity:1" fill="#ecf1fb" d="M 438.5,25.5 C 439.5,25.5 440.5,25.5 441.5,25.5C 441.981,29.3491 440.314,31.3491 436.5,31.5C 436.253,29.1417 436.919,27.1417 438.5,25.5 Z"/></g>
<g><path style="opacity:0.999" fill="#c0e3fe" d="M 450.5,28.5 C 450.667,83.1677 450.5,137.834 450,192.5C 449.768,195.738 448.268,198.238 445.5,200C 438.643,203.592 431.976,207.426 425.5,211.5C 345.562,256.804 265.895,302.638 186.5,349C 184.008,351.112 181.342,351.612 178.5,350.5C 179.496,295.238 179.829,239.905 179.5,184.5C 269.698,132.236 360.031,80.2355 450.5,28.5 Z"/></g>
<g><path style="opacity:1" fill="#e6ecfb" d="M 427.5,31.5 C 428.833,31.5 430.167,31.5 431.5,31.5C 431.676,35.1921 430.009,37.1921 426.5,37.5C 426.517,35.4352 426.85,33.4352 427.5,31.5 Z"/></g>
<g><path style="opacity:1" fill="#f5f7fd" d="M 417.5,37.5 C 418.5,37.5 419.5,37.5 420.5,37.5C 420.978,40.2776 419.978,42.2776 417.5,43.5C 416.692,43.1924 416.025,42.6924 415.5,42C 416.267,40.5295 416.933,39.0295 417.5,37.5 Z"/></g>
<g><path style="opacity:0.946" fill="#ebebeb" d="M 136.5,54.5 C 141.439,53.3519 144.939,55.0186 147,59.5C 153.84,53.1226 157.84,54.4559 159,63.5C 162.539,60.9703 166.373,59.4703 170.5,59C 171.814,61.9566 171.48,64.79 169.5,67.5C 152.66,78.4233 135.326,88.5899 117.5,98C 114.522,98.8601 113.188,97.6934 113.5,94.5C 113.577,92.701 114.077,91.0344 115,89.5C 118,87.5 121,85.5 124,83.5C 122.19,71.1317 126.357,61.4651 136.5,54.5 Z"/></g>
<g><path style="opacity:1" fill="#e7e8ea" d="M 432.5,57.5 C 377.546,89.2486 322.379,121.249 267,153.5C 266.5,178.164 266.333,202.831 266.5,227.5C 264.321,227.16 262.488,226.16 261,224.5C 260.333,199.833 260.333,175.167 261,150.5C 314.418,119.207 367.918,88.0405 421.5,57C 423.513,55.7428 425.679,54.9095 428,54.5C 430.183,54.5221 431.683,55.5221 432.5,57.5 Z"/></g>
<g><path style="opacity:1" fill="#f9f9f9" d="M 432.5,57.5 C 433.663,81.9966 433.83,106.663 433,131.5C 377.612,163.727 322.112,195.727 266.5,227.5C 266.333,202.831 266.5,178.164 267,153.5C 322.379,121.249 377.546,89.2486 432.5,57.5 Z"/></g>
<g><path style="opacity:1" fill="#5fe4cc" d="M 381.5,92.5 C 382.822,92.33 383.989,92.6634 385,93.5C 385.333,95.1667 385.667,96.8333 386,98.5C 390.033,102.868 394.366,106.868 399,110.5C 399.739,109.426 400.739,108.759 402,108.5C 405.881,110.624 410.048,111.957 414.5,112.5C 416.32,109.344 418.987,107.344 422.5,106.5C 424.079,103.006 425.913,99.6728 428,96.5C 425.887,102.899 423.054,109.065 419.5,115C 415.244,114.245 410.911,113.411 406.5,112.5C 404.431,112.785 403.098,113.952 402.5,116C 400.866,116.494 399.199,116.66 397.5,116.5C 397.756,114.208 397.423,112.041 396.5,110C 392.534,107.036 388.867,103.703 385.5,100C 384.092,99.6848 382.759,100.018 381.5,101C 377.342,113.808 373.009,126.475 368.5,139C 367.5,139.667 366.5,139.667 365.5,139C 363.027,133.696 359.027,129.863 353.5,127.5C 351.972,128.861 350.305,130.028 348.5,131C 345.093,140.118 341.76,149.285 338.5,158.5C 339.818,160.912 339.651,163.246 338,165.5C 336.204,166.767 334.371,166.767 332.5,165.5C 327.833,168.167 323.167,170.833 318.5,173.5C 317.768,176.309 316.101,178.309 313.5,179.5C 312.281,178.737 311.281,177.737 310.5,176.5C 307.47,175.568 304.637,174.235 302,172.5C 293.087,180.121 287.421,189.787 285,201.5C 283.43,204.379 281.263,205.045 278.5,203.5C 268.647,207.5 268.314,207 277.5,202C 286.044,193.105 292.211,182.605 296,170.5C 298.926,166.23 300.759,166.564 301.5,171.5C 304.573,172.199 307.573,173.199 310.5,174.5C 312.167,173.167 313.833,171.833 315.5,170.5C 316.478,170.977 317.311,171.643 318,172.5C 322.917,169.625 327.751,166.625 332.5,163.5C 333.617,160.886 335.284,158.719 337.5,157C 341.152,145.368 345.152,134.034 349.5,123C 350.5,122.333 351.5,122.333 352.5,123C 356.031,127.193 360.198,130.693 365,133.5C 366.214,131.951 367.714,130.785 369.5,130C 373.025,120.425 376.359,110.758 379.5,101C 378.207,97.7394 378.873,94.9061 381.5,92.5 Z"/></g>
<g><path style="opacity:1" fill="#f1f8f7" d="M 350.5,123.5 C 351.928,125.795 351.428,127.795 349,129.5C 348.252,127.16 348.752,125.16 350.5,123.5 Z"/></g>
<g><path style="opacity:1" fill="#f4f9f8" d="M 400.5,110.5 C 402.984,112.028 402.818,113.694 400,115.5C 399.36,113.735 399.527,112.068 400.5,110.5 Z"/></g>
<g><path style="opacity:1" fill="#e5f7f4" d="M 419.5,108.5 C 421.023,111.045 420.357,113.045 417.5,114.5C 417.167,114 416.833,113.5 416.5,113C 417.315,111.357 418.315,109.857 419.5,108.5 Z"/></g>
<g><path style="opacity:1" fill="#eef8f6" d="M 381.5,94.5 C 383.896,95.8275 383.896,97.4942 381.5,99.5C 380.334,97.8327 380.334,96.166 381.5,94.5 Z"/></g>
<g><path style="opacity:1" fill="#edf8f6" d="M 367.5,132.5 C 369.896,133.828 369.896,135.494 367.5,137.5C 366.334,135.833 366.334,134.166 367.5,132.5 Z"/></g>
<g><path style="opacity:1" fill="#e6e8ea" d="M 432.5,199.5 C 432.833,181.488 432.5,163.488 431.5,145.5C 403.608,161.364 375.775,177.364 348,193.5C 347.171,212.005 347.338,230.338 348.5,248.5C 346.064,249.572 343.897,248.905 342,246.5C 341.333,228.167 341.333,209.833 342,191.5C 369.55,174.637 397.384,158.137 425.5,142C 428.636,140.959 431.136,141.793 433,144.5C 433.829,163.005 433.662,181.338 432.5,199.5 Z"/></g>
<g><path style="opacity:1" fill="#f5f7f6" d="M 432.5,199.5 C 431.426,200.885 430.093,202.051 428.5,203C 401.928,218.422 375.261,233.589 348.5,248.5C 347.338,230.338 347.171,212.005 348,193.5C 375.775,177.364 403.608,161.364 431.5,145.5C 432.5,163.488 432.833,181.488 432.5,199.5 Z"/></g>
<g><path style="opacity:1" fill="#2947bc" d="M 142.5,154.5 C 147.32,156.074 151.653,158.407 155.5,161.5C 154.171,235.363 154.171,309.196 155.5,383C 154.207,383.49 152.873,383.657 151.5,383.5C 146.91,382.079 143.744,379.079 142,374.5C 141.5,333.835 141.333,293.168 141.5,252.5C 141.181,219.79 141.514,187.123 142.5,154.5 Z"/></g>
<g><path style="opacity:1" fill="#48e1c5" d="M 425.5,159.5 C 427.652,160.077 427.985,161.244 426.5,163C 417.5,168.167 408.5,173.333 399.5,178.5C 398.246,176.741 398.579,175.241 400.5,174C 409.224,169.645 417.557,164.812 425.5,159.5 Z"/></g>
<g><path style="opacity:1" fill="#f2f9f7" d="M 335.5,160.5 C 337.984,162.028 337.818,163.694 335,165.5C 334.36,163.735 334.527,162.068 335.5,160.5 Z"/></g>
<g><path style="opacity:1" fill="#7cebd9" d="M 243.5,166.5 C 228.031,175.069 212.697,183.902 197.5,193C 195.078,193.135 192.745,192.635 190.5,191.5C 205.401,181.799 220.735,172.632 236.5,164C 239.694,162.919 242.027,163.753 243.5,166.5 Z"/></g>
<g><path style="opacity:1" fill="#2adcbe" d="M 243.5,166.5 C 244.268,167.263 244.768,168.263 245,169.5C 246.586,170.376 248.086,171.376 249.5,172.5C 248.185,174.316 246.685,175.983 245,177.5C 244.904,180.451 244.071,183.118 242.5,185.5C 227.704,193.8 213.037,202.3 198.5,211C 195.743,211.782 193.243,211.282 191,209.5C 190.501,203.509 190.334,197.509 190.5,191.5C 192.745,192.635 195.078,193.135 197.5,193C 212.697,183.902 228.031,175.069 243.5,166.5 Z"/></g>
<g><path style="opacity:1" fill="#eff8f7" d="M 298.5,169.5 C 299.376,169.369 300.043,169.702 300.5,170.5C 299.974,172.23 298.974,173.564 297.5,174.5C 296.348,172.603 296.681,170.936 298.5,169.5 Z"/></g>
<g><path style="opacity:1" fill="#f0f8f7" d="M 314.5,172.5 C 317.047,174.29 316.714,175.956 313.5,177.5C 312.799,175.808 313.133,174.142 314.5,172.5 Z"/></g>
<g><path style="opacity:0.991" fill="#f7a3a3" d="M 504.5,212.5 C 505.092,215.127 505.425,217.794 505.5,220.5C 502.997,225.829 498.83,229.162 493,230.5C 490.624,230.457 489.124,229.291 488.5,227C 489.223,224.447 490.556,222.28 492.5,220.5C 492.376,219.893 492.043,219.56 491.5,219.5C 491.5,218.167 491.5,216.833 491.5,215.5C 483.068,216.736 479.068,213.069 479.5,204.5C 479.5,201.5 479.5,198.5 479.5,195.5C 480.675,195.719 481.675,195.386 482.5,194.5C 482.154,193.304 481.654,193.304 481,194.5C 480.242,190.671 481.242,187.338 484,184.5C 486.889,193.552 493.056,198.885 502.5,200.5C 511.264,196.064 514.097,198.397 511,207.5C 509.267,209.602 507.267,209.935 505,208.5C 504.51,209.793 504.343,211.127 504.5,212.5 Z"/></g>
<g><path style="opacity:0.996" fill="#263238" d="M 504.5,212.5 C 504.343,211.127 504.51,209.793 505,208.5C 507.267,209.935 509.267,209.602 511,207.5C 514.097,198.397 511.264,196.064 502.5,200.5C 493.056,198.885 486.889,193.552 484,184.5C 481.242,187.338 480.242,190.671 481,194.5C 481.654,193.304 482.154,193.304 482.5,194.5C 481.675,195.386 480.675,195.719 479.5,195.5C 479.5,198.5 479.5,201.5 479.5,204.5C 475.238,196.316 475.738,188.316 481,180.5C 492.657,170.75 503.824,171.25 514.5,182C 517.088,180.91 519.421,181.41 521.5,183.5C 520.975,184.192 520.308,184.692 519.5,185C 523.26,186.461 526.093,188.961 528,192.5C 529.438,204.424 529.938,216.424 529.5,228.5C 522.763,228.94 518.263,225.94 516,219.5C 515.667,214.833 515.333,210.167 515,205.5C 512.388,209.219 508.888,211.552 504.5,212.5 Z"/></g>
<g><path style="opacity:1" fill="#41e0c4" d="M 379.5,187.5 C 382.247,187.187 384.914,187.52 387.5,188.5C 383.856,193.312 380.022,197.979 376,202.5C 376.683,197.433 377.849,192.433 379.5,187.5 Z"/></g>
<g><path style="opacity:1" fill="#33dfc1" d="M 375.5,188.5 C 376.497,188.47 377.164,188.97 377.5,190C 375.587,195.821 373.754,201.655 372,207.5C 367.288,212.543 362.955,217.877 359,223.5C 358.282,224.451 357.449,224.617 356.5,224C 353.564,217.288 354.064,210.788 358,204.5C 362.727,197.939 368.56,192.606 375.5,188.5 Z"/></g>
<g><path style="opacity:1" fill="#38dfc2" d="M 388.5,189.5 C 391.83,190.446 393.496,192.78 393.5,196.5C 393.1,199.699 392.1,202.699 390.5,205.5C 385.5,206.833 380.5,206.833 375.5,205.5C 379.857,200.148 384.19,194.814 388.5,189.5 Z"/></g>
<g><path style="opacity:1" fill="#e7e9ea" d="M 244.5,195.5 C 242.213,195.724 240.047,196.391 238,197.5C 224.562,205.401 211.062,213.235 197.5,221C 196.524,227.076 196.19,233.242 196.5,239.5C 194.418,239.528 192.584,238.861 191,237.5C 190.19,230.918 190.357,224.418 191.5,218C 206.663,209.586 221.663,200.919 236.5,192C 240.246,190.778 242.913,191.944 244.5,195.5 Z"/></g>
<g><path style="opacity:1" fill="#f9f9fa" d="M 244.5,195.5 C 244.808,201.425 244.475,207.259 243.5,213C 227.927,222.089 212.261,230.923 196.5,239.5C 196.19,233.242 196.524,227.076 197.5,221C 211.062,213.235 224.562,205.401 238,197.5C 240.047,196.391 242.213,195.724 244.5,195.5 Z"/></g>
<g><path style="opacity:1" fill="#f3f9f8" d="M 282.5,197.5 C 283.94,199.42 283.607,201.087 281.5,202.5C 280.348,200.603 280.681,198.936 282.5,197.5 Z"/></g>
<g><path style="opacity:1" fill="#e6e8ea" d="M 335.5,255.5 C 335.833,237.488 335.5,219.488 334.5,201.5C 312.006,214.336 289.506,227.336 267,240.5C 266.171,259.005 266.338,277.338 267.5,295.5C 267.265,296.097 266.765,296.43 266,296.5C 264.343,295.516 262.677,294.516 261,293.5C 260.333,274.833 260.333,256.167 261,237.5C 284.187,223.907 307.52,210.573 331,197.5C 332.982,197.99 334.649,198.99 336,200.5C 336.829,219.005 336.662,237.338 335.5,255.5 Z"/></g>
<g><path style="opacity:1" fill="#544b4f" d="M 481.5,197.5 C 483.465,197.948 483.798,198.948 482.5,200.5C 481.614,199.675 481.281,198.675 481.5,197.5 Z"/></g>
<g><path style="opacity:1" fill="#f6f9f8" d="M 335.5,255.5 C 313.198,269.323 290.531,282.656 267.5,295.5C 266.338,277.338 266.171,259.005 267,240.5C 289.506,227.336 312.006,214.336 334.5,201.5C 335.5,219.488 335.833,237.488 335.5,255.5 Z"/></g>
<g><path style="opacity:1" fill="#38dfc1" d="M 373.5,207.5 C 378.555,207.728 383.555,208.395 388.5,209.5C 381.956,219.932 372.623,225.432 360.5,226C 359.72,224.927 359.887,223.76 361,222.5C 365.378,217.627 369.545,212.627 373.5,207.5 Z"/></g>
<g><path style="opacity:1" fill="#e7e9ea" d="M 244.5,223.5 C 243.127,223.343 241.793,223.51 240.5,224C 226.082,232.626 211.582,241.126 197,249.5C 196.501,255.491 196.334,261.491 196.5,267.5C 194.278,267.822 192.444,267.155 191,265.5C 190.333,259.5 190.333,253.5 191,247.5C 205.882,237.971 221.048,228.804 236.5,220C 240.246,218.778 242.913,219.944 244.5,223.5 Z"/></g>
<g><path style="opacity:0.985" fill="#03358d" d="M 491.5,219.5 C 492.043,219.56 492.376,219.893 492.5,220.5C 490.556,222.28 489.223,224.447 488.5,227C 489.124,229.291 490.624,230.457 493,230.5C 498.83,229.162 502.997,225.829 505.5,220.5C 512.259,220.795 517.426,223.795 521,229.5C 524.106,237.26 526.273,245.26 527.5,253.5C 523.299,256.346 518.632,258.012 513.5,258.5C 512.135,259.757 512.135,261.757 513.5,264.5C 505.612,266.712 497.445,268.378 489,269.5C 487.833,269.333 486.667,269.167 485.5,269C 483.034,266.521 480.701,264.021 478.5,261.5C 478.167,258.833 477.833,256.167 477.5,253.5C 475.5,253.167 473.5,252.833 471.5,252.5C 469.909,250.367 467.909,248.701 465.5,247.5C 468.267,239.961 471.601,232.628 475.5,225.5C 480.009,221.37 485.342,219.37 491.5,219.5 Z"/></g>
<g><path style="opacity:1" fill="#2bdebf" d="M 328.5,222.5 C 329.828,227.288 330.495,232.454 330.5,238C 330.333,243.167 330.167,248.333 330,253.5C 328.915,254.293 327.748,254.96 326.5,255.5C 325.334,245.183 325.168,234.849 326,224.5C 326.995,223.934 327.828,223.267 328.5,222.5 Z"/></g>
<g><path style="opacity:1" fill="#f9f9fa" d="M 244.5,223.5 C 244.666,228.844 244.499,234.177 244,239.5C 243.692,240.308 243.192,240.975 242.5,241.5C 227.389,250.623 212.056,259.289 196.5,267.5C 196.334,261.491 196.501,255.491 197,249.5C 211.582,241.126 226.082,232.626 240.5,224C 241.793,223.51 243.127,223.343 244.5,223.5 Z"/></g>
<g><path style="opacity:1" fill="#2bdebf" d="M 286.5,234.5 C 287.826,249.005 287.826,263.672 286.5,278.5C 285.5,279.167 284.5,279.833 283.5,280.5C 282.167,265.833 282.167,251.167 283.5,236.5C 284.739,236.058 285.739,235.391 286.5,234.5 Z"/></g>
<g><path style="opacity:1" fill="#42e0c4" d="M 307.5,237.5 C 308.827,241.783 309.493,246.449 309.5,251.5C 309.333,256.167 309.167,260.833 309,265.5C 307.414,266.376 305.914,267.376 304.5,268.5C 303.335,259.184 303.168,249.851 304,240.5C 305.518,239.837 306.685,238.837 307.5,237.5 Z"/></g>
<g><path style="opacity:0.996" fill="#f6fafe" d="M 409.5,239.5 C 420.163,241.832 430.829,244.166 441.5,246.5C 443.417,249.491 444.417,252.824 444.5,256.5C 442.949,262.213 443.449,267.88 446,273.5C 447.33,274.582 448.83,275.249 450.5,275.5C 451.73,279.691 453.064,283.858 454.5,288C 461.185,289.837 467.852,291.671 474.5,293.5C 473.531,308.664 472.531,323.831 471.5,339C 472.651,360.596 474.318,382.096 476.5,403.5C 476.483,405.565 476.15,407.565 475.5,409.5C 464.669,411.064 457.002,416.731 452.5,426.5C 452.97,431.136 454.97,434.969 458.5,438C 475.535,448.375 493.868,451.375 513.5,447C 522.999,445.289 531.166,441.122 538,434.5C 542.323,426.946 540.823,420.779 533.5,416C 529.83,413.497 525.83,411.663 521.5,410.5C 520.52,407.914 520.187,405.247 520.5,402.5C 521.416,387.843 521.583,373.176 521,358.5C 519.896,353.479 518.729,348.479 517.5,343.5C 520.877,320.824 521.21,298.157 518.5,275.5C 519.167,275.5 519.833,275.5 520.5,275.5C 542.847,286.608 562.681,301.275 580,319.5C 593.027,334.219 601.194,351.219 604.5,370.5C 604.5,376.167 604.5,381.833 604.5,387.5C 601.109,407.283 592.609,424.617 579,439.5C 552.598,465.524 521.765,484.69 486.5,497C 435.565,514.954 383.232,525.121 329.5,527.5C 310.833,527.5 292.167,527.5 273.5,527.5C 229.495,525.244 186.162,518.077 143.5,506C 104.985,494.91 69.9847,477.243 38.5,453C 18.4513,436.37 5.45129,415.536 -0.5,390.5C -0.5,382.5 -0.5,374.5 -0.5,366.5C 3.15938,350.18 10.326,335.513 21,322.5C 47.0309,295.162 77.8643,274.995 113.5,262C 122.745,258.529 132.079,255.363 141.5,252.5C 141.333,293.168 141.5,333.835 142,374.5C 143.744,379.079 146.91,382.079 151.5,383.5C 153.288,384.622 155.288,384.789 157.5,384C 186.555,367.476 215.555,350.976 244.5,334.5C 242.867,339.698 242.367,345.031 243,350.5C 253.916,357.71 265.083,364.543 276.5,371C 277.793,371.49 279.127,371.657 280.5,371.5C 281.873,371.657 283.207,371.49 284.5,371C 306.669,357.748 329.003,344.748 351.5,332C 355.125,329.794 356.292,326.627 355,322.5C 354.617,321.944 354.117,321.611 353.5,321.5C 346.062,315.938 338.062,311.105 329.5,307C 327.341,305.941 325.674,304.441 324.5,302.5C 323.617,297.897 323.283,293.23 323.5,288.5C 351.833,271.664 380.5,255.331 409.5,239.5 Z"/></g>
<g><path style="opacity:0.91" fill="#3e4d55" d="M 465.5,248.5 C 466.506,249.396 466.506,250.062 465.5,250.5C 464.448,250.351 463.448,250.517 462.5,251C 464.002,251.583 465.335,252.416 466.5,253.5C 461.554,253.728 456.721,252.728 452,250.5C 451.544,249.256 452.044,248.423 453.5,248C 451.68,247.8 450.347,246.966 449.5,245.5C 451.707,245.973 453.874,245.307 456,243.5C 459.75,244.289 462.917,245.956 465.5,248.5 Z"/></g>
<g><path style="opacity:0.997" fill="#dedede" d="M 449.5,245.5 C 450.347,246.966 451.68,247.8 453.5,248C 452.044,248.423 451.544,249.256 452,250.5C 456.721,252.728 461.554,253.728 466.5,253.5C 465.335,252.416 464.002,251.583 462.5,251C 463.448,250.517 464.448,250.351 465.5,250.5C 467.302,251.458 469.302,252.125 471.5,252.5C 473.5,252.833 475.5,253.167 477.5,253.5C 477.833,256.167 478.167,258.833 478.5,261.5C 479.219,263.764 479.552,266.097 479.5,268.5C 474.79,268.393 470.123,268.226 465.5,268C 463.637,269.418 463.137,271.251 464,273.5C 469.401,279.343 475.901,281.01 483.5,278.5C 484.501,283.839 485.501,289.172 486.5,294.5C 486.5,295.167 486.5,295.833 486.5,296.5C 482.327,296.123 478.327,295.123 474.5,293.5C 467.852,291.671 461.185,289.837 454.5,288C 453.064,283.858 451.73,279.691 450.5,275.5C 456.31,275.867 458.643,273.367 457.5,268C 450.434,267.094 446.101,263.261 444.5,256.5C 444.417,252.824 443.417,249.491 441.5,246.5C 441.62,245.414 442.287,244.747 443.5,244.5C 445.453,245.156 447.453,245.489 449.5,245.5 Z"/></g>
<g><path style="opacity:1" fill="#e7e9ea" d="M 244.5,251.5 C 242.436,251.687 240.436,252.187 238.5,253C 225.073,261.431 211.406,269.431 197.5,277C 196.174,283.266 196.174,289.432 197.5,295.5C 197.265,296.097 196.765,296.43 196,296.5C 194.343,295.516 192.677,294.516 191,293.5C 190.333,287.5 190.333,281.5 191,275.5C 205.882,265.971 221.048,256.804 236.5,248C 240.246,246.778 242.913,247.944 244.5,251.5 Z"/></g>
<g><path style="opacity:1" fill="#29debf" d="M 274.5,247.5 C 275.83,253.295 276.496,259.462 276.5,266C 276.333,272.167 276.167,278.333 276,284.5C 274.915,285.293 273.748,285.96 272.5,286.5C 271.334,274.18 271.167,261.847 272,249.5C 272.995,248.934 273.828,248.267 274.5,247.5 Z"/></g>
<g><path style="opacity:1" fill="#45e0c4" d="M 317.5,248.5 C 318.5,248.5 319.5,248.5 320.5,248.5C 320.665,251.85 320.498,255.183 320,258.5C 318.736,260.607 316.903,261.607 314.5,261.5C 313.836,256.607 314.836,252.273 317.5,248.5 Z"/></g>
<g><path style="opacity:1" fill="#44e0c4" d="M 295.5,250.5 C 296.5,250.5 297.5,250.5 298.5,250.5C 298.666,257.508 298.5,264.508 298,271.5C 296.758,272.872 295.258,273.872 293.5,274.5C 292.335,267.189 292.169,259.856 293,252.5C 293.995,251.934 294.828,251.267 295.5,250.5 Z"/></g>
<g><path style="opacity:1" fill="#c2858d" d="M 465.5,247.5 C 467.909,248.701 469.909,250.367 471.5,252.5C 469.302,252.125 467.302,251.458 465.5,250.5C 466.506,250.062 466.506,249.396 465.5,248.5C 465.5,248.167 465.5,247.833 465.5,247.5 Z"/></g>
<g><path style="opacity:1" fill="#f9f9fa" d="M 244.5,251.5 C 244.666,256.844 244.499,262.177 244,267.5C 229.089,277.71 213.589,287.043 197.5,295.5C 196.174,289.432 196.174,283.266 197.5,277C 211.406,269.431 225.073,261.431 238.5,253C 240.436,252.187 242.436,251.687 244.5,251.5 Z"/></g>
<g><path style="opacity:0.985" fill="#faa6a7" d="M 527.5,253.5 C 529.059,259.753 529.559,266.087 529,272.5C 526.458,274.182 523.625,275.182 520.5,275.5C 519.833,275.5 519.167,275.5 518.5,275.5C 517.5,275.5 516.5,275.5 515.5,275.5C 507.196,276.775 498.863,277.775 490.5,278.5C 488.167,278.5 485.833,278.5 483.5,278.5C 475.901,281.01 469.401,279.343 464,273.5C 463.137,271.251 463.637,269.418 465.5,268C 470.123,268.226 474.79,268.393 479.5,268.5C 479.552,266.097 479.219,263.764 478.5,261.5C 480.701,264.021 483.034,266.521 485.5,269C 486.667,269.167 487.833,269.333 489,269.5C 497.445,268.378 505.612,266.712 513.5,264.5C 514.742,262.611 514.742,260.611 513.5,258.5C 518.632,258.012 523.299,256.346 527.5,253.5 Z"/></g>
<g><path style="opacity:1" fill="#fea9a8" d="M 444.5,256.5 C 446.101,263.261 450.434,267.094 457.5,268C 458.643,273.367 456.31,275.867 450.5,275.5C 448.83,275.249 447.33,274.582 446,273.5C 443.449,267.88 442.949,262.213 444.5,256.5 Z"/></g>
<g><path style="opacity:1" fill="#e7e9ea" d="M 244.5,279.5 C 242.436,279.687 240.436,280.187 238.5,281C 224.853,288.968 211.187,296.968 197.5,305C 196.174,311.266 196.174,317.432 197.5,323.5C 195.064,324.572 192.897,323.905 191,321.5C 190.333,315.5 190.333,309.5 191,303.5C 205.917,293.956 221.084,284.79 236.5,276C 240.246,274.778 242.913,275.944 244.5,279.5 Z"/></g>
<g><path style="opacity:1" fill="#2761da" d="M 515.5,275.5 C 516.5,275.5 517.5,275.5 518.5,275.5C 521.21,298.157 520.877,320.824 517.5,343.5C 518.729,348.479 519.896,353.479 521,358.5C 521.583,373.176 521.416,387.843 520.5,402.5C 519.527,404.948 519.194,407.615 519.5,410.5C 516.5,410.5 513.5,410.5 510.5,410.5C 509.89,409.609 509.557,408.609 509.5,407.5C 504.246,375.111 499.579,342.778 495.5,310.5C 495.235,306.147 494.735,301.813 494,297.5C 491.528,296.399 489.028,295.399 486.5,294.5C 485.501,289.172 484.501,283.839 483.5,278.5C 485.833,278.5 488.167,278.5 490.5,278.5C 499.146,280.367 507.479,279.367 515.5,275.5 Z"/></g>
<g><path style="opacity:1" fill="#243e93" d="M 515.5,275.5 C 507.479,279.367 499.146,280.367 490.5,278.5C 498.863,277.775 507.196,276.775 515.5,275.5 Z"/></g>
<g><path style="opacity:1" fill="#f9f9fa" d="M 244.5,279.5 C 244.666,284.844 244.499,290.177 244,295.5C 229.089,305.71 213.589,315.043 197.5,323.5C 196.174,317.432 196.174,311.266 197.5,305C 211.187,296.968 224.853,288.968 238.5,281C 240.436,280.187 242.436,279.687 244.5,279.5 Z"/></g>
<g><path style="opacity:1" fill="#d6d8df" d="M 301.5,285.5 C 306.411,286.876 306.744,289.376 302.5,293C 293.5,298.167 284.5,303.333 275.5,308.5C 273.717,307.652 273.217,306.319 274,304.5C 274.785,302.714 275.951,301.214 277.5,300C 285.73,295.392 293.73,290.559 301.5,285.5 Z"/></g>
<g><path style="opacity:1" fill="#273339" d="M 323.5,288.5 C 323.283,293.23 323.617,297.897 324.5,302.5C 323.358,304.433 321.692,305.933 319.5,307C 296.585,320.04 273.752,333.207 251,346.5C 250.333,347.167 250.333,347.833 251,348.5C 260.515,354.538 270.349,359.871 280.5,364.5C 280.5,366.833 280.5,369.167 280.5,371.5C 279.127,371.657 277.793,371.49 276.5,371C 265.083,364.543 253.916,357.71 243,350.5C 242.367,345.031 242.867,339.698 244.5,334.5C 270.634,318.929 296.967,303.596 323.5,288.5 Z"/></g>
<g><path style="opacity:1" fill="#2961da" d="M 474.5,293.5 C 478.327,295.123 482.327,296.123 486.5,296.5C 488.03,297.067 489.53,297.733 491,298.5C 493.436,304.705 493.936,311.038 492.5,317.5C 490.959,324.625 489.959,331.958 489.5,339.5C 488.425,346.519 488.758,353.519 490.5,360.5C 489.271,374.564 487.604,388.564 485.5,402.5C 482.609,403.403 479.609,403.736 476.5,403.5C 474.318,382.096 472.651,360.596 471.5,339C 472.531,323.831 473.531,308.664 474.5,293.5 Z"/></g>
<g><path style="opacity:1" fill="#2a3847" d="M 486.5,294.5 C 489.028,295.399 491.528,296.399 494,297.5C 494.735,301.813 495.235,306.147 495.5,310.5C 494.833,314.167 494.167,317.833 493.5,321.5C 492.566,320.432 492.232,319.099 492.5,317.5C 493.936,311.038 493.436,304.705 491,298.5C 489.53,297.733 488.03,297.067 486.5,296.5C 486.5,295.833 486.5,295.167 486.5,294.5 Z"/></g>
<g><path style="opacity:1" fill="#37474e" d="M 324.5,302.5 C 325.674,304.441 327.341,305.941 329.5,307C 338.062,311.105 346.062,315.938 353.5,321.5C 353.489,323.017 352.823,324.184 351.5,325C 330.833,337 310.167,349 289.5,361C 286.691,362.741 283.691,363.908 280.5,364.5C 270.349,359.871 260.515,354.538 251,348.5C 250.333,347.833 250.333,347.167 251,346.5C 273.752,333.207 296.585,320.04 319.5,307C 321.692,305.933 323.358,304.433 324.5,302.5 Z"/></g>
<g><path style="opacity:1" fill="#f2f7fe" d="M 495.5,310.5 C 499.579,342.778 504.246,375.111 509.5,407.5C 501.769,406.491 494.102,406.491 486.5,407.5C 486.167,407.5 485.833,407.5 485.5,407.5C 485.5,405.833 485.5,404.167 485.5,402.5C 487.604,388.564 489.271,374.564 490.5,360.5C 488.758,353.519 488.425,346.519 489.5,339.5C 491.197,333.693 492.531,327.693 493.5,321.5C 494.167,317.833 494.833,314.167 495.5,310.5 Z"/></g>
<g><path style="opacity:1" fill="#2fc8ad" d="M 105.5,408.5 C 106.352,405.777 107.519,403.11 109,400.5C 111.023,395.309 110.856,390.309 108.5,385.5C 108.459,370.001 104.959,355.335 98,341.5C 99.9598,348.057 101.96,354.724 104,361.5C 105.631,368.747 106.464,376.08 106.5,383.5C 104.926,383.063 103.759,382.063 103,380.5C 102.781,375.485 102.781,370.485 103,365.5C 99.3475,362.237 95.1808,360.237 90.5,359.5C 90.9382,359.565 91.2716,359.399 91.5,359C 87.3333,352.833 83.1667,346.667 79,340.5C 76.5306,336.106 75.5306,331.439 76,326.5C 78.6326,321.268 82.7992,319.435 88.5,321C 100.407,326.624 108.24,335.79 112,348.5C 116.452,367.107 116.619,385.773 112.5,404.5C 110.15,405.861 107.816,407.194 105.5,408.5 Z"/></g>
<g><path style="opacity:1" fill="#475b65" d="M 353.5,321.5 C 354.117,321.611 354.617,321.944 355,322.5C 356.292,326.627 355.125,329.794 351.5,332C 329.003,344.748 306.669,357.748 284.5,371C 283.207,371.49 281.873,371.657 280.5,371.5C 280.5,369.167 280.5,366.833 280.5,364.5C 283.691,363.908 286.691,362.741 289.5,361C 310.167,349 330.833,337 351.5,325C 352.823,324.184 353.489,323.017 353.5,321.5 Z"/></g>
<g><path style="opacity:1" fill="#3c5380" d="M 492.5,317.5 C 492.232,319.099 492.566,320.432 493.5,321.5C 492.531,327.693 491.197,333.693 489.5,339.5C 489.959,331.958 490.959,324.625 492.5,317.5 Z"/></g>
<g><path style="opacity:1" fill="#dbf5f0" d="M 86.5,325.5 C 91.4201,329.016 94.5867,333.682 96,339.5C 93.0607,334.603 89.894,329.936 86.5,325.5 Z"/></g>
<g><path style="opacity:1" fill="#2fdec0" d="M 90.5,359.5 C 95.1808,360.237 99.3475,362.237 103,365.5C 102.781,370.485 102.781,375.485 103,380.5C 103.759,382.063 104.926,383.063 106.5,383.5C 106.833,384.5 107.5,385.167 108.5,385.5C 110.856,390.309 111.023,395.309 109,400.5C 107.519,403.11 106.352,405.777 105.5,408.5C 101.611,410.697 97.7779,413.03 94,415.5C 93.6667,412.833 93.3333,410.167 93,407.5C 92.8214,410.553 92.3214,413.553 91.5,416.5C 87.1667,419 82.8333,421.5 78.5,424C 73.1861,424.058 69.3528,421.558 67,416.5C 66.5643,409.083 66.8977,401.75 68,394.5C 65.961,392.126 63.6277,390.126 61,388.5C 59.8877,386.61 59.0544,384.61 58.5,382.5C 61.7171,376.562 65.0505,370.728 68.5,365C 67.473,361.631 65.973,358.464 64,355.5C 63.3333,353.167 63.3333,350.833 64,348.5C 67.6195,346.093 71.4528,345.927 75.5,348C 79.1317,350.63 82.465,353.63 85.5,357C 87.0779,358.094 88.7446,358.928 90.5,359.5 Z"/></g>
<g><path style="opacity:1" fill="#d2f3ed" d="M 108.5,385.5 C 107.5,385.167 106.833,384.5 106.5,383.5C 106.464,376.08 105.631,368.747 104,361.5C 101.96,354.724 99.9598,348.057 98,341.5C 104.959,355.335 108.459,370.001 108.5,385.5 Z"/></g>
<g><path style="opacity:1" fill="#c7f6ed" d="M 71.5,350.5 C 72.4959,350.414 73.3292,350.748 74,351.5C 75.2893,353.055 75.956,354.721 76,356.5C 73.8733,354.886 72.3733,352.886 71.5,350.5 Z"/></g>
<g><path style="opacity:1" fill="#dbf9f3" d="M 78.5,359.5 C 81.367,362.233 82.867,365.566 83,369.5C 81.2138,366.264 79.7138,362.93 78.5,359.5 Z"/></g>
<g><path style="opacity:1" fill="#dffaf5" d="M 69.5,380.5 C 74.5348,381.071 79.5348,381.904 84.5,383C 80.8225,383.453 77.1559,383.286 73.5,382.5C 71.6672,382.415 70.3339,381.748 69.5,380.5 Z"/></g>
<g><path style="opacity:1" fill="#dffaf5" d="M 85.5,374.5 C 89.854,383.254 92.0206,392.587 92,402.5C 91.0482,396.74 89.7149,391.074 88,385.5C 87.2496,384.874 86.4162,384.374 85.5,384C 86.428,383.612 87.0946,382.945 87.5,382C 86.5212,379.567 85.8545,377.067 85.5,374.5 Z"/></g>
<g><path style="opacity:1" fill="#f8a5a4" d="M 485.5,402.5 C 485.5,404.167 485.5,405.833 485.5,407.5C 483.193,412.985 479.86,417.818 475.5,422C 473.275,423.131 470.942,423.964 468.5,424.5C 467.287,424.253 466.62,423.586 466.5,422.5C 470.24,418.689 473.24,414.356 475.5,409.5C 476.15,407.565 476.483,405.565 476.5,403.5C 479.609,403.736 482.609,403.403 485.5,402.5 Z"/></g>
<g><path style="opacity:1" fill="#abd4fb" d="M 520.5,402.5 C 520.187,405.247 520.52,407.914 521.5,410.5C 525.83,411.663 529.83,413.497 533.5,416C 540.823,420.779 542.323,426.946 538,434.5C 531.166,441.122 522.999,445.289 513.5,447C 493.868,451.375 475.535,448.375 458.5,438C 454.97,434.969 452.97,431.136 452.5,426.5C 457.002,416.731 464.669,411.064 475.5,409.5C 473.24,414.356 470.24,418.689 466.5,422.5C 459.343,427.115 460.009,430.115 468.5,431.5C 471.702,430.901 474.702,429.734 477.5,428C 480.547,424.075 483.714,420.241 487,416.5C 487.301,413.493 487.135,410.493 486.5,407.5C 494.102,406.491 501.769,406.491 509.5,407.5C 509.557,408.609 509.89,409.609 510.5,410.5C 510.118,418.93 506.785,425.93 500.5,431.5C 496.836,433.013 495.836,435.513 497.5,439C 502.403,439.937 507.07,439.27 511.5,437C 514.547,433.075 517.714,429.241 521,425.5C 521.927,422.137 521.427,419.137 519.5,416.5C 519.5,414.5 519.5,412.5 519.5,410.5C 519.194,407.615 519.527,404.948 520.5,402.5 Z"/></g>
<g><path style="opacity:1" fill="#2e3940" d="M 485.5,407.5 C 485.833,407.5 486.167,407.5 486.5,407.5C 487.135,410.493 487.301,413.493 487,416.5C 483.714,420.241 480.547,424.075 477.5,428C 474.702,429.734 471.702,430.901 468.5,431.5C 460.009,430.115 459.343,427.115 466.5,422.5C 466.62,423.586 467.287,424.253 468.5,424.5C 470.942,423.964 473.275,423.131 475.5,422C 479.86,417.818 483.193,412.985 485.5,407.5 Z"/></g>
<g><path style="opacity:1" fill="#f5a3a4" d="M 510.5,410.5 C 513.5,410.5 516.5,410.5 519.5,410.5C 519.5,412.5 519.5,414.5 519.5,416.5C 517.193,421.985 513.86,426.818 509.5,431C 507.487,432.257 505.321,433.091 503,433.5C 501.624,433.316 500.791,432.649 500.5,431.5C 506.785,425.93 510.118,418.93 510.5,410.5 Z"/></g>
<g><path style="opacity:1" fill="#2b373d" d="M 519.5,416.5 C 521.427,419.137 521.927,422.137 521,425.5C 517.714,429.241 514.547,433.075 511.5,437C 507.07,439.27 502.403,439.937 497.5,439C 495.836,435.513 496.836,433.013 500.5,431.5C 500.791,432.649 501.624,433.316 503,433.5C 505.321,433.091 507.487,432.257 509.5,431C 513.86,426.818 517.193,421.985 519.5,416.5 Z"/></g>
</svg>
