<?xml version="1.0" encoding="UTF-8"?>
<!DOCTYPE svg PUBLIC "-//W3C//DTD SVG 1.1//EN" "http://www.w3.org/Graphics/SVG/1.1/DTD/svg11.dtd">
<svg xmlns="http://www.w3.org/2000/svg" version="1.1" width="599px" height="480px" style="shape-rendering:geometricPrecision; text-rendering:geometricPrecision; image-rendering:optimizeQuality; fill-rule:evenodd; clip-rule:evenodd" xmlns:xlink="http://www.w3.org/1999/xlink">
<g><path style="opacity:1" fill="#2448ba" d="M 453.5,-0.5 C 454.833,-0.5 456.167,-0.5 457.5,-0.5C 458.314,4.11909 458.647,8.78575 458.5,13.5C 372.799,63.6837 286.799,113.35 200.5,162.5C 200.334,157.156 200.501,151.823 201,146.5C 201.833,145.667 202.667,144.833 203.5,144C 287.06,96.0591 370.393,47.8924 453.5,-0.5 Z"/></g>
<g><path style="opacity:1" fill="#d0e5fb" d="M 445.5,9.5 C 446.5,9.5 447.5,9.5 448.5,9.5C 449.467,13.8514 447.8,16.1847 443.5,16.5C 443.166,13.812 443.832,11.4786 445.5,9.5 Z"/></g>
<g><path style="opacity:0.999" fill="#2addbf" d="M 458.5,13.5 C 458.667,79.1675 458.5,144.834 458,210.5C 457.648,212.247 457.148,213.914 456.5,215.5C 413.167,240.167 369.833,264.833 326.5,289.5C 325.452,283.404 322.786,278.071 318.5,273.5C 317.833,271.833 317.167,270.167 316.5,268.5C 329.806,260.845 343.139,253.178 356.5,245.5C 357.833,223.833 357.833,202.167 356.5,180.5C 342.606,188.274 328.939,196.274 315.5,204.5C 314.836,202.022 314.503,199.355 314.5,196.5C 314.604,193.231 315.27,190.231 316.5,187.5C 327.998,181.921 338.998,175.588 349.5,168.5C 352.343,167.828 354.843,166.495 357,164.5C 357.667,142.5 357.667,120.5 357,98.5C 355.482,99.1634 354.315,100.163 353.5,101.5C 335.832,110.998 318.499,120.998 301.5,131.5C 301.019,134.782 300.019,137.949 298.5,141C 293.5,143.833 288.5,146.667 283.5,149.5C 282.686,147.234 282.186,144.9 282,142.5C 280.581,143.46 279.081,144.293 277.5,145C 276.304,145.654 276.304,146.154 277.5,146.5C 281.395,143.995 282.561,145.328 281,150.5C 270.995,156.363 261.162,162.363 251.5,168.5C 251.5,178.167 251.5,187.833 251.5,197.5C 246.831,202.838 246.831,208.171 251.5,213.5C 252.01,217.813 251.343,221.813 249.5,225.5C 251.08,227.717 252.08,230.384 252.5,233.5C 254.567,235.745 256.9,236.079 259.5,234.5C 259.5,235.167 259.5,235.833 259.5,236.5C 248.448,242.443 237.615,248.777 227,255.5C 226.333,277.167 226.333,298.833 227,320.5C 245.333,309.833 263.667,299.167 282,288.5C 282.169,275.993 282.669,263.66 283.5,251.5C 287.798,252.802 290.798,255.469 292.5,259.5C 292.524,264.923 293.19,270.257 294.5,275.5C 294.794,286.501 295.128,297.501 295.5,308.5C 264.392,325.89 233.392,343.557 202.5,361.5C 200.91,359.854 199.91,357.854 199.5,355.5C 200.756,353.274 200.756,350.941 199.5,348.5C 200.686,347.295 200.686,345.961 199.5,344.5C 200.833,334.833 200.833,325.167 199.5,315.5C 199.5,315.167 199.5,314.833 199.5,314.5C 200.742,312.611 200.742,310.611 199.5,308.5C 200.806,302.599 200.806,296.599 199.5,290.5C 200.498,261.005 200.831,231.338 200.5,201.5C 200.5,188.5 200.5,175.5 200.5,162.5C 286.799,113.35 372.799,63.6837 458.5,13.5 Z"/></g>
<g><path style="opacity:1" fill="#cadff9" d="M 433.5,16.5 C 434.833,16.5 436.167,16.5 437.5,16.5C 437.573,20.7202 435.573,23.0536 431.5,23.5C 431.166,20.812 431.832,18.4786 433.5,16.5 Z"/></g>
<g><path style="opacity:1" fill="#c8def8" d="M 422.5,22.5 C 424.252,22.4176 425.252,23.2509 425.5,25C 425.016,27.4747 423.683,29.3081 421.5,30.5C 420.119,30.0004 419.453,29.0004 419.5,27.5C 420.092,25.5775 421.092,23.9108 422.5,22.5 Z"/></g>
<g><path style="opacity:1" fill="#fafefd" d="M 427.5,123.5 C 428.315,122.163 429.482,121.163 431,120.5C 431.167,110 431.333,99.5 431.5,89C 431.499,78.1447 430.832,67.6447 429.5,57.5C 430.172,56.7326 431.005,56.0659 432,55.5C 432.667,77.5 432.667,99.5 432,121.5C 430.67,122.582 429.17,123.249 427.5,123.5 Z"/></g>
<g><path style="opacity:1" fill="#3fdfc3" d="M 429.5,57.5 C 430.832,67.6447 431.499,78.1447 431.5,89C 431.333,99.5 431.167,110 431,120.5C 429.482,121.163 428.315,122.163 427.5,123.5C 412.331,133.255 396.664,142.255 380.5,150.5C 379.417,150.539 378.417,150.873 377.5,151.5C 376.179,130.102 376.179,108.768 377.5,87.5C 394.499,76.9981 411.832,66.9981 429.5,57.5 Z"/></g>
<g><path style="opacity:0.968" fill="#d9eeff" d="M 209.5,66.5 C 212.602,66.154 215.435,66.8207 218,68.5C 218.936,72.1135 219.436,75.7802 219.5,79.5C 221.199,79.3796 222.865,79.0463 224.5,78.5C 227.138,79.6956 227.971,81.6956 227,84.5C 226.208,86.5873 225.041,88.4207 223.5,90C 211.001,97.0815 198.668,104.415 186.5,112C 183.464,114.006 180.131,114.84 176.5,114.5C 175.723,107.269 178.723,102.269 185.5,99.5C 186.318,92.5027 189.985,87.836 196.5,85.5C 198.18,77.1855 202.513,70.8522 209.5,66.5 Z"/></g>
<g><path style="opacity:1" fill="#a7d5fb" d="M 406.5,81.5 C 408.924,81.1924 411.257,81.5258 413.5,82.5C 412.289,86.3324 409.623,88.3324 405.5,88.5C 404.154,85.9004 404.488,83.5671 406.5,81.5 Z"/></g>
<g><path style="opacity:1" fill="#a5d5fa" d="M 414.5,82.5 C 421.412,84.2244 422.079,87.2244 416.5,91.5C 414.833,90.5 413.5,89.1667 412.5,87.5C 413.456,85.9246 414.123,84.258 414.5,82.5 Z"/></g>
<g><path style="opacity:1" fill="#f4fdfb" d="M 401.5,84.5 C 402.649,84.7911 403.316,85.6244 403.5,87C 402.069,91.0986 399.402,93.7653 395.5,95C 394.833,94.3333 394.167,93.6667 393.5,93C 396.371,90.2972 399.038,87.4639 401.5,84.5 Z"/></g>
<g><path style="opacity:1" fill="#cbf7ef" d="M 377.5,87.5 C 376.179,108.768 376.179,130.102 377.5,151.5C 378.417,150.873 379.417,150.539 380.5,150.5C 379.594,151.965 378.261,152.965 376.5,153.5C 376.167,142.5 375.833,131.5 375.5,120.5C 375.501,109.146 376.168,98.1458 377.5,87.5 Z"/></g>
<g><path style="opacity:1" fill="#a2d5f8" d="M 420.5,89.5 C 421.482,92.9619 421.815,96.6286 421.5,100.5C 420.07,100.421 418.736,100.754 417.5,101.5C 416.167,98.5 416.167,95.5 417.5,92.5C 418.855,91.8118 419.855,90.8118 420.5,89.5 Z"/></g>
<g><path style="opacity:1" fill="#afd8fc" d="M 405.5,90.5 C 413.394,90.565 416.227,94.565 414,102.5C 411.941,112.914 405.775,118.08 395.5,118C 392.564,111.288 393.064,104.788 397,98.5C 399.729,95.6007 402.562,92.934 405.5,90.5 Z"/></g>
<g><path style="opacity:1" fill="#f7fdfc" d="M 391.5,95.5 C 393.196,95.6854 394.529,96.5187 395.5,98C 393.529,100.143 392.196,102.643 391.5,105.5C 390.311,106.429 388.978,106.762 387.5,106.5C 388.053,102.505 389.386,98.8386 391.5,95.5 Z"/></g>
<g><path style="opacity:1" fill="#f6fdfc" d="M 349.5,168.5 C 351.508,166.732 353.674,165.066 356,163.5C 356.667,142.5 356.667,121.5 356,100.5C 355.329,101.252 354.496,101.586 353.5,101.5C 354.315,100.163 355.482,99.1634 357,98.5C 357.667,120.5 357.667,142.5 357,164.5C 354.843,166.495 352.343,167.828 349.5,168.5 Z"/></g>
<g><path style="opacity:1" fill="#41dfc3" d="M 349.5,168.5 C 338.998,175.588 327.998,181.921 316.5,187.5C 314.587,184.665 313.587,181.332 313.5,177.5C 312.508,174.221 312.341,170.888 313,167.5C 314.965,170.792 317.131,171.125 319.5,168.5C 319.33,167.178 319.663,166.011 320.5,165C 319.5,164 318.5,163 317.5,162C 315.833,162.333 314.167,162.667 312.5,163C 315.604,159.547 316.27,155.713 314.5,151.5C 313.761,151.631 313.094,151.464 312.5,151C 313.891,149.98 315.391,149.147 317,148.5C 318.354,145.495 319.354,142.495 320,139.5C 319.282,138.549 318.449,138.383 317.5,139C 315.623,141.251 314.123,143.751 313,146.5C 314,137.599 310.5,134.932 302.5,138.5C 301.526,136.257 301.192,133.924 301.5,131.5C 318.499,120.998 335.832,110.998 353.5,101.5C 354.496,101.586 355.329,101.252 356,100.5C 356.667,121.5 356.667,142.5 356,163.5C 353.674,165.066 351.508,166.732 349.5,168.5 Z"/></g>
<g><path style="opacity:1" fill="#a5d5fa" d="M 416.5,102.5 C 417.978,102.238 419.311,102.571 420.5,103.5C 419.194,107.446 417.361,111.112 415,114.5C 413.978,113.646 413.145,112.646 412.5,111.5C 414.122,108.592 415.456,105.592 416.5,102.5 Z"/></g>
<g><path style="opacity:1" fill="#ecf5fe" d="M 407.5,95.5 C 408.043,95.56 408.376,95.8933 408.5,96.5C 407.037,98.7293 406.203,101.063 406,103.5C 406.689,102.643 407.522,101.977 408.5,101.5C 409.641,103.421 409.808,105.421 409,107.5C 406.978,108.991 405.312,108.658 404,106.5C 402.667,108.5 401.333,110.5 400,112.5C 401.919,106.654 404.419,100.987 407.5,95.5 Z"/></g>
<g><path style="opacity:1" fill="#a6d5fa" d="M 410.5,113.5 C 411.812,114.145 412.812,115.145 413.5,116.5C 410.85,119.651 408.016,122.651 405,125.5C 404.333,123.5 404.333,121.5 405,119.5C 407.04,117.63 408.873,115.63 410.5,113.5 Z"/></g>
<g><path style="opacity:1" fill="#a3d5f8" d="M 395.5,122.5 C 394.416,124.319 393.082,125.985 391.5,127.5C 386.797,125.082 386.131,122.249 389.5,119C 388.551,118.383 387.718,118.549 387,119.5C 385.517,116.298 385.183,112.964 386,109.5C 387.356,108.62 388.856,108.286 390.5,108.5C 389.774,114.11 391.441,118.776 395.5,122.5 Z"/></g>
<g><path style="opacity:0.981" fill="#4fa0ff" d="M 510.5,117.5 C 512.411,117.574 513.578,118.574 514,120.5C 514.961,139.232 514.628,157.899 513,176.5C 500.749,184.377 488.249,191.877 475.5,199C 474.207,199.49 472.873,199.657 471.5,199.5C 471.827,194.456 471.494,189.456 470.5,184.5C 467.579,185.407 464.579,185.74 461.5,185.5C 463.629,180.85 466.795,176.85 471,173.5C 471.188,162.454 471.688,151.454 472.5,140.5C 485.23,132.808 497.897,125.141 510.5,117.5 Z"/></g>
<g><path style="opacity:1" fill="#a0d5f7" d="M 395.5,122.5 C 397.804,121.837 400.137,121.17 402.5,120.5C 403.833,122.5 403.833,124.5 402.5,126.5C 399.656,128.103 396.656,128.603 393.5,128C 394.861,126.416 395.528,124.582 395.5,122.5 Z"/></g>
<g><path style="opacity:1" fill="#a3d5f9" d="M 332.5,124.5 C 334.5,124.5 336.5,124.5 338.5,124.5C 338.275,128.056 339.108,128.39 341,125.5C 346.735,128.203 346.902,131.203 341.5,134.5C 339.614,133.15 338.114,131.483 337,129.5C 334.618,130.554 332.118,131.221 329.5,131.5C 328.909,128.325 329.909,125.991 332.5,124.5 Z"/></g>
<g><path style="opacity:1" fill="#f6fdfc" d="M 327.5,127.5 C 328.793,129.364 328.793,131.364 327.5,133.5C 325.684,134.815 324.017,136.315 322.5,138C 319.909,138.301 319.075,137.134 320,134.5C 322.396,131.933 324.896,129.6 327.5,127.5 Z"/></g>
<g><path style="opacity:1" fill="#f3f8ff" d="M 506.5,128.5 C 508.344,129.204 508.844,130.537 508,132.5C 504.624,136.271 500.458,138.604 495.5,139.5C 495.343,138.127 495.51,136.793 496,135.5C 499.651,133.267 503.151,130.934 506.5,128.5 Z"/></g>
<g><path style="opacity:1" fill="#a2d5f8" d="M 345.5,132.5 C 346.777,133.694 347.444,135.36 347.5,137.5C 348.56,141.946 346.894,143.946 342.5,143.5C 341.807,139.247 342.807,135.581 345.5,132.5 Z"/></g>
<g><path style="opacity:1" fill="#afd8fb" d="M 331.5,133.5 C 334.505,133.253 337.005,134.253 339,136.5C 341.038,147.104 337.538,155.271 328.5,161C 325.833,161.667 323.167,161.667 320.5,161C 317.034,149.085 320.7,139.918 331.5,133.5 Z"/></g>
<g><path style="opacity:1" fill="#c4e7fb" d="M 301.5,131.5 C 301.192,133.924 301.526,136.257 302.5,138.5C 310.5,134.932 314,137.599 313,146.5C 314.123,143.751 315.623,141.251 317.5,139C 318.449,138.383 319.282,138.549 320,139.5C 319.354,142.495 318.354,145.495 317,148.5C 315.391,149.147 313.891,149.98 312.5,151C 313.094,151.464 313.761,151.631 314.5,151.5C 313.791,152.404 312.791,152.737 311.5,152.5C 311.826,148.116 311.492,143.783 310.5,139.5C 297.272,146.941 284.272,154.608 271.5,162.5C 266.979,165.353 262.479,168.353 258,171.5C 257.501,176.823 257.334,182.156 257.5,187.5C 258.5,187.5 259.5,187.5 260.5,187.5C 259.432,188.434 258.099,188.768 256.5,188.5C 256.5,193.5 256.5,198.5 256.5,203.5C 256.167,204.833 255.833,204.833 255.5,203.5C 255.832,192.48 255.499,181.48 254.5,170.5C 253.482,169.807 252.482,169.141 251.5,168.5C 261.162,162.363 270.995,156.363 281,150.5C 282.561,145.328 281.395,143.995 277.5,146.5C 276.304,146.154 276.304,145.654 277.5,145C 279.081,144.293 280.581,143.46 282,142.5C 282.186,144.9 282.686,147.234 283.5,149.5C 288.5,146.667 293.5,143.833 298.5,141C 300.019,137.949 301.019,134.782 301.5,131.5 Z"/></g>
<g><path style="opacity:1" fill="#d6edfe" d="M 432.5,161.5 C 430.167,160.833 427.833,160.167 425.5,159.5C 424.5,159.5 423.5,159.5 422.5,159.5C 419.113,174.596 415.28,189.596 411,204.5C 408.103,198.373 404.936,192.373 401.5,186.5C 397.207,198.547 393.207,210.714 389.5,223C 389.833,223.5 390.167,224 390.5,224.5C 403.421,216.455 416.587,208.788 430,201.5C 431.889,187.798 430.055,174.631 424.5,162C 424.57,161.235 424.903,160.735 425.5,160.5C 427.833,165.167 430.167,169.833 432.5,174.5C 432.666,183.506 432.5,192.506 432,201.5C 413.637,213.096 394.803,223.762 375.5,233.5C 375.333,212.164 375.5,190.831 376,169.5C 394.249,158.959 412.416,148.293 430.5,137.5C 431.196,145.557 431.862,153.557 432.5,161.5 Z"/></g>
<g><path style="opacity:1" fill="#f3f8ff" d="M 486.5,137.5 C 488.252,137.418 489.252,138.251 489.5,140C 488.343,143.827 486.343,147.16 483.5,150C 477.609,150.362 476.109,147.862 479,142.5C 480.079,140.606 481.413,140.273 483,141.5C 484.376,140.295 485.542,138.962 486.5,137.5 Z"/></g>
<g><path style="opacity:1" fill="#d9eefe" d="M 314.5,151.5 C 316.27,155.713 315.604,159.547 312.5,163C 314.167,162.667 315.833,162.333 317.5,162C 318.5,163 319.5,164 320.5,165C 319.663,166.011 319.33,167.178 319.5,168.5C 317.131,171.125 314.965,170.792 313,167.5C 312.341,170.888 312.508,174.221 313.5,177.5C 312.842,178.398 312.176,179.398 311.5,180.5C 310.712,179.23 309.712,178.23 308.5,177.5C 307.61,171.605 305.943,165.938 303.5,160.5C 298.872,175.341 294.706,190.341 291,205.5C 287.956,200.377 285.289,195.044 283,189.5C 282.107,188.289 281.274,188.289 280.5,189.5C 276.602,201.258 272.935,213.091 269.5,225C 269.57,225.765 269.903,226.265 270.5,226.5C 269.564,227.974 268.23,228.974 266.5,229.5C 263.715,223.987 261.215,218.321 259,212.5C 258.238,208.668 258.738,205.002 260.5,201.5C 260.167,201.167 259.833,200.833 259.5,200.5C 258.265,201.34 257.265,202.34 256.5,203.5C 256.5,198.5 256.5,193.5 256.5,188.5C 258.099,188.768 259.432,188.434 260.5,187.5C 270.174,182.489 274.341,174.489 273,163.5C 272.617,162.944 272.117,162.611 271.5,162.5C 284.272,154.608 297.272,146.941 310.5,139.5C 311.492,143.783 311.826,148.116 311.5,152.5C 312.791,152.737 313.791,152.404 314.5,151.5 Z"/></g>
<g><path style="opacity:1" fill="#edf6fe" d="M 332.5,138.5 C 333.239,138.369 333.906,138.536 334.5,139C 331.102,144.181 328.269,149.681 326,155.5C 325.346,156.696 324.846,156.696 324.5,155.5C 325.5,153.5 326.5,151.5 327.5,149.5C 326.443,149.094 325.109,149.094 323.5,149.5C 322.907,146.404 323.907,144.071 326.5,142.5C 327.799,143.09 328.632,144.09 329,145.5C 330.18,143.14 331.347,140.807 332.5,138.5 Z"/></g>
<g><path style="opacity:1" fill="#a2d5f8" d="M 341.5,145.5 C 342.833,145.5 344.167,145.5 345.5,145.5C 345.02,150.126 343.187,154.126 340,157.5C 338.978,156.646 338.145,155.646 337.5,154.5C 339.585,151.817 340.918,148.817 341.5,145.5 Z"/></g>
<g><path style="opacity:0.978" fill="#d9eeff" d="M 155.5,161.5 C 146.451,166.108 137.617,171.108 129,176.5C 120.355,171.096 111.522,166.096 102.5,161.5C 110.926,155.868 119.759,150.868 129,146.5C 138.241,150.868 147.074,155.868 155.5,161.5 Z"/></g>
<g><path style="opacity:1" fill="#f5f9ff" d="M 488.5,154.5 C 489.5,154.5 490.5,154.5 491.5,154.5C 491.528,156.582 490.861,158.416 489.5,160C 485.856,162.656 481.856,164.489 477.5,165.5C 477.351,164.448 477.517,163.448 478,162.5C 481.299,159.449 484.799,156.782 488.5,154.5 Z"/></g>
<g><path style="opacity:1" fill="#f5f9ff" d="M 505.5,156.5 C 506.5,156.5 507.5,156.5 508.5,156.5C 508.607,158.903 507.607,160.736 505.5,162C 497.5,166.667 489.5,171.333 481.5,176C 480.207,176.49 478.873,176.657 477.5,176.5C 477.393,174.097 478.393,172.264 480.5,171C 488.896,166.14 497.23,161.307 505.5,156.5 Z"/></g>
<g><path style="opacity:1" fill="#a2d5f8" d="M 335.5,157.5 C 338.076,157.722 338.91,159.055 338,161.5C 335.629,164.206 332.963,166.539 330,168.5C 329.333,166.5 329.333,164.5 330,162.5C 332.328,161.336 334.162,159.67 335.5,157.5 Z"/></g>
<g><path style="opacity:1" fill="#acd5fd" d="M 425.5,159.5 C 425.5,159.833 425.5,160.167 425.5,160.5C 424.903,160.735 424.57,161.235 424.5,162C 430.055,174.631 431.889,187.798 430,201.5C 416.587,208.788 403.421,216.455 390.5,224.5C 390.167,224 389.833,223.5 389.5,223C 393.207,210.714 397.207,198.547 401.5,186.5C 404.936,192.373 408.103,198.373 411,204.5C 415.28,189.596 419.113,174.596 422.5,159.5C 423.5,159.5 424.5,159.5 425.5,159.5 Z"/></g>
<g><path style="opacity:1" fill="#2a4ebb" d="M 425.5,159.5 C 427.833,160.167 430.167,160.833 432.5,161.5C 435.34,161.898 438.007,162.731 440.5,164C 438.884,164.615 437.551,165.615 436.5,167C 448.461,176.641 447.794,177.475 434.5,169.5C 433.83,171.291 433.163,172.958 432.5,174.5C 430.167,169.833 427.833,165.167 425.5,160.5C 425.5,160.167 425.5,159.833 425.5,159.5 Z"/></g>
<g><path style="opacity:1" fill="#fcfdff" d="M 102.5,161.5 C 111.522,166.096 120.355,171.096 129,176.5C 137.617,171.108 146.451,166.108 155.5,161.5C 157.027,161.427 158.027,162.094 158.5,163.5C 150.339,168.804 142.006,173.97 133.5,179C 141.338,183.753 149.338,188.253 157.5,192.5C 158.833,193.167 158.833,193.833 157.5,194.5C 155.902,195.485 154.235,195.651 152.5,195C 144.732,190.367 136.899,185.867 129,181.5C 120.323,186.587 111.49,191.254 102.5,195.5C 101.391,195.443 100.391,195.11 99.5,194.5C 107.434,188.857 115.767,183.691 124.5,179C 115.994,173.97 107.661,168.804 99.5,163.5C 99.9731,162.094 100.973,161.427 102.5,161.5 Z"/></g>
<g><path style="opacity:1" fill="#acd5fc" d="M 308.5,177.5 C 307.957,177.56 307.624,177.893 307.5,178.5C 308.513,180.527 309.513,182.527 310.5,184.5C 310.666,190.509 310.499,196.509 310,202.5C 296.52,210.149 283.353,218.149 270.5,226.5C 269.903,226.265 269.57,225.765 269.5,225C 272.935,213.091 276.602,201.258 280.5,189.5C 281.274,188.289 282.107,188.289 283,189.5C 285.289,195.044 287.956,200.377 291,205.5C 294.706,190.341 298.872,175.341 303.5,160.5C 305.943,165.938 307.61,171.605 308.5,177.5 Z"/></g>
<g><path style="opacity:1" fill="#abd5fd" d="M 391.5,161.5 C 394.798,171.072 392.131,178.905 383.5,185C 381.655,186.128 379.655,186.628 377.5,186.5C 377.171,180.794 377.505,175.128 378.5,169.5C 382.873,166.772 387.206,164.105 391.5,161.5 Z"/></g>
<g><path style="opacity:0.991" fill="#d9eefe" d="M 99.5,163.5 C 107.661,168.804 115.994,173.97 124.5,179C 115.767,183.691 107.434,188.857 99.5,194.5C 99.1667,194.5 98.8333,194.5 98.5,194.5C 90.2038,188.679 81.5372,183.346 72.5,178.5C 81.2403,173.107 90.2403,168.107 99.5,163.5 Z"/></g>
<g><path style="opacity:1" fill="#abd5fd" d="M 271.5,162.5 C 272.117,162.611 272.617,162.944 273,163.5C 274.341,174.489 270.174,182.489 260.5,187.5C 259.5,187.5 258.5,187.5 257.5,187.5C 257.334,182.156 257.501,176.823 258,171.5C 262.479,168.353 266.979,165.353 271.5,162.5 Z"/></g>
<g><path style="opacity:1" fill="#a5d5fa" d="M 319.5,168.5 C 321.104,167.713 321.771,166.38 321.5,164.5C 323.792,164.756 325.959,164.423 328,163.5C 328.75,169.59 325.917,172.257 319.5,171.5C 319.5,170.5 319.5,169.5 319.5,168.5 Z"/></g>
<g><path style="opacity:1" fill="#f4f8ff" d="M 505.5,166.5 C 506.5,166.5 507.5,166.5 508.5,166.5C 508.822,168.722 508.155,170.556 506.5,172C 497.054,177.721 487.388,182.887 477.5,187.5C 477.383,185.516 478.05,183.85 479.5,182.5C 488.231,177.141 496.897,171.808 505.5,166.5 Z"/></g>
<g><path style="opacity:1" fill="#abd4fc" d="M 251.5,168.5 C 252.482,169.141 253.482,169.807 254.5,170.5C 255.499,181.48 255.832,192.48 255.5,203.5C 252.224,202.878 250.891,200.878 251.5,197.5C 251.5,187.833 251.5,178.167 251.5,168.5 Z"/></g>
<g><path style="opacity:1" fill="#fafefd" d="M 229.5,172.5 C 230.239,172.369 230.906,172.536 231.5,173C 230.421,173.956 229.255,174.789 228,175.5C 227.522,196.774 227.355,217.774 227.5,238.5C 226.334,217.174 226.167,195.841 227,174.5C 227.995,173.934 228.828,173.267 229.5,172.5 Z"/></g>
<g><path style="opacity:1" fill="#f6aaaa" d="M 308.5,177.5 C 309.712,178.23 310.712,179.23 311.5,180.5C 312.176,179.398 312.842,178.398 313.5,177.5C 313.587,181.332 314.587,184.665 316.5,187.5C 315.27,190.231 314.604,193.231 314.5,196.5C 314.503,199.355 314.836,202.022 315.5,204.5C 315.5,207.5 315.5,210.5 315.5,213.5C 315.631,214.376 315.298,215.043 314.5,215.5C 312.49,213.829 310.157,213.162 307.5,213.5C 307.5,211.833 307.5,210.167 307.5,208.5C 307.5,207.833 307.5,207.167 307.5,206.5C 308.848,205.399 310.348,204.399 312,203.5C 312.667,197.5 312.667,191.5 312,185.5C 311.617,184.944 311.117,184.611 310.5,184.5C 309.513,182.527 308.513,180.527 307.5,178.5C 307.624,177.893 307.957,177.56 308.5,177.5 Z"/></g>
<g><path style="opacity:0.986" fill="#abd5fd" d="M 72.5,178.5 C 81.5372,183.346 90.2038,188.679 98.5,194.5C 98.5,208.167 98.5,221.833 98.5,235.5C 96.8008,235.66 95.1341,235.494 93.5,235C 86.9965,230.914 80.3299,227.081 73.5,223.5C 72.5481,221.955 72.2148,220.288 72.5,218.5C 72.5,205.167 72.5,191.833 72.5,178.5 Z"/></g>
<g><path style="opacity:0.995" fill="#c0e3fe" d="M 185.5,178.5 C 185.5,187.167 185.5,195.833 185.5,204.5C 185.829,210.537 185.496,216.537 184.5,222.5C 182.971,223.763 181.305,224.763 179.5,225.5C 163.031,234.569 146.698,243.902 130.5,253.5C 129.389,238.884 128.722,224.551 128.5,210.5C 137.026,205.985 145.526,201.318 154,196.5C 154.219,197.938 154.719,199.271 155.5,200.5C 155.833,200.333 156.167,200.167 156.5,200C 158.699,197.672 160.365,195.005 161.5,192C 169.689,187.741 177.689,183.241 185.5,178.5 Z"/></g>
<g><path style="opacity:1" fill="#d9eefe" d="M 158.5,163.5 C 167.76,168.107 176.76,173.107 185.5,178.5C 177.689,183.241 169.689,187.741 161.5,192C 160.365,195.005 158.699,197.672 156.5,200C 156.167,200.167 155.833,200.333 155.5,200.5C 154.719,199.271 154.219,197.938 154,196.5C 145.526,201.318 137.026,205.985 128.5,210.5C 120.167,205.833 111.833,201.167 103.5,196.5C 102.833,196.5 102.5,196.167 102.5,195.5C 111.49,191.254 120.323,186.587 129,181.5C 136.899,185.867 144.732,190.367 152.5,195C 154.235,195.651 155.902,195.485 157.5,194.5C 158.833,193.833 158.833,193.167 157.5,192.5C 149.338,188.253 141.338,183.753 133.5,179C 142.006,173.97 150.339,168.804 158.5,163.5 Z"/></g>
<g><path style="opacity:1" fill="#d4ecfd" d="M 316.5,268.5 C 315.167,267.833 315.167,267.167 316.5,266.5C 329.523,259.57 342.356,252.236 355,244.5C 357.092,229.89 355.092,215.89 349,202.5C 344.209,217.324 339.876,232.324 336,247.5C 333.243,242.318 330.743,236.985 328.5,231.5C 327.675,230.614 326.675,230.281 325.5,230.5C 324.739,234.784 323.405,238.784 321.5,242.5C 320.652,238.108 319.652,233.775 318.5,229.5C 318.5,227.833 318.5,226.167 318.5,224.5C 324.204,224.854 326.037,222.187 324,216.5C 322.086,212.815 319.253,211.815 315.5,213.5C 315.5,210.5 315.5,207.5 315.5,204.5C 328.939,196.274 342.606,188.274 356.5,180.5C 357.833,202.167 357.833,223.833 356.5,245.5C 343.139,253.178 329.806,260.845 316.5,268.5 Z"/></g>
<g><path style="opacity:1" fill="#acd5fd" d="M 103.5,196.5 C 111.833,201.167 120.167,205.833 128.5,210.5C 128.722,224.551 129.389,238.884 130.5,253.5C 146.698,243.902 163.031,234.569 179.5,225.5C 179.5,226.5 179.5,227.5 179.5,228.5C 164.896,236.137 150.563,244.304 136.5,253C 134.086,254.885 131.419,255.552 128.5,255C 120.251,250.293 112.084,245.459 104,240.5C 103.5,225.837 103.333,211.17 103.5,196.5 Z"/></g>
<g><path style="opacity:1" fill="#fda9a8" d="M 251.5,197.5 C 250.891,200.878 252.224,202.878 255.5,203.5C 255.833,204.833 256.167,204.833 256.5,203.5C 257.265,202.34 258.265,201.34 259.5,200.5C 259.833,200.833 260.167,201.167 260.5,201.5C 258.738,205.002 258.238,208.668 259,212.5C 261.215,218.321 263.715,223.987 266.5,229.5C 266.328,230.492 266.662,231.158 267.5,231.5C 267.572,233.311 268.405,234.644 270,235.5C 274.154,236.94 278.32,238.274 282.5,239.5C 287.74,241.476 293.073,243.143 298.5,244.5C 299.215,250.707 297.215,255.707 292.5,259.5C 290.798,255.469 287.798,252.802 283.5,251.5C 280.924,250.512 278.257,249.512 275.5,248.5C 274.791,247.596 273.791,247.263 272.5,247.5C 269.823,245.54 266.823,244.04 263.5,243C 261.266,241.362 259.933,239.195 259.5,236.5C 259.5,235.833 259.5,235.167 259.5,234.5C 257.584,227.134 254.918,220.134 251.5,213.5C 246.831,208.171 246.831,202.838 251.5,197.5 Z"/></g>
<g><path style="opacity:0.2" fill="#dbeffe" d="M 200.5,201.5 C 200.831,231.338 200.498,261.005 199.5,290.5C 197.18,278.53 190.513,270.197 179.5,265.5C 179.5,253.167 179.5,240.833 179.5,228.5C 179.5,227.5 179.5,226.5 179.5,225.5C 181.305,224.763 182.971,223.763 184.5,222.5C 185.496,216.537 185.829,210.537 185.5,204.5C 190.407,203.181 195.407,202.181 200.5,201.5 Z"/></g>
<g><path style="opacity:1" fill="#acd5fc" d="M 316.5,266.5 C 316.958,262.462 317.624,258.462 318.5,254.5C 320.615,250.888 321.615,246.888 321.5,242.5C 323.405,238.784 324.739,234.784 325.5,230.5C 326.675,230.281 327.675,230.614 328.5,231.5C 330.743,236.985 333.243,242.318 336,247.5C 339.876,232.324 344.209,217.324 349,202.5C 355.092,215.89 357.092,229.89 355,244.5C 342.356,252.236 329.523,259.57 316.5,266.5 Z"/></g>
<g><path style="opacity:1" fill="#c9e6f9" d="M 310.5,184.5 C 311.117,184.611 311.617,184.944 312,185.5C 312.667,191.5 312.667,197.5 312,203.5C 310.348,204.399 308.848,205.399 307.5,206.5C 295.326,213.421 282.993,220.088 270.5,226.5C 283.353,218.149 296.52,210.149 310,202.5C 310.499,196.509 310.666,190.509 310.5,184.5 Z"/></g>
<g><path style="opacity:1" fill="#37dcbf" d="M 307.5,206.5 C 307.5,207.167 307.5,207.833 307.5,208.5C 304.953,209.934 302.619,211.6 300.5,213.5C 296.146,215.859 293.813,219.526 293.5,224.5C 292.743,228.772 292.91,233.105 294,237.5C 296.041,238.423 298.208,238.756 300.5,238.5C 300.5,240.167 300.5,241.833 300.5,243.5C 299.508,243.328 298.842,243.662 298.5,244.5C 293.073,243.143 287.74,241.476 282.5,239.5C 282.666,234.156 282.499,228.823 282,223.5C 277.26,226.424 272.426,229.09 267.5,231.5C 266.662,231.158 266.328,230.492 266.5,229.5C 268.23,228.974 269.564,227.974 270.5,226.5C 282.993,220.088 295.326,213.421 307.5,206.5 Z"/></g>
<g><path style="opacity:1" fill="#b8cbe8" d="M 307.5,208.5 C 307.5,210.167 307.5,211.833 307.5,213.5C 305.167,213.5 302.833,213.5 300.5,213.5C 302.619,211.6 304.953,209.934 307.5,208.5 Z"/></g>
<g><path style="opacity:1" fill="#0d2477" d="M 318.5,229.5 C 315.246,237.794 309.246,240.794 300.5,238.5C 299.962,236.883 299.629,235.216 299.5,233.5C 303,233.505 304.5,231.838 304,228.5C 302.542,227.253 301.042,227.253 299.5,228.5C 298.679,225.553 298.179,222.553 298,219.5C 296.483,221.24 294.983,222.906 293.5,224.5C 293.813,219.526 296.146,215.859 300.5,213.5C 302.833,213.5 305.167,213.5 307.5,213.5C 310.157,213.162 312.49,213.829 314.5,215.5C 315.298,215.043 315.631,214.376 315.5,213.5C 319.253,211.815 322.086,212.815 324,216.5C 326.037,222.187 324.204,224.854 318.5,224.5C 318.5,226.167 318.5,227.833 318.5,229.5 Z"/></g>
<g><path style="opacity:1" fill="#b6d7f7" d="M 251.5,213.5 C 254.918,220.134 257.584,227.134 259.5,234.5C 256.9,236.079 254.567,235.745 252.5,233.5C 252.08,230.384 251.08,227.717 249.5,225.5C 251.343,221.813 252.01,217.813 251.5,213.5 Z"/></g>
<g><path style="opacity:0.2" fill="#dbeffe" d="M 456.5,215.5 C 465.169,217.391 473.502,220.057 481.5,223.5C 462.112,233.363 443.112,244.03 424.5,255.5C 424.167,256 423.833,256.5 423.5,257C 424.546,261.11 425.213,265.277 425.5,269.5C 422.691,273.906 421.358,278.573 421.5,283.5C 422.167,283.167 422.833,282.833 423.5,282.5C 424.167,293.167 424.833,303.833 425.5,314.5C 443.771,325.553 462.271,336.219 481,346.5C 481.765,346.43 482.265,346.097 482.5,345.5C 500.5,335.167 518.5,324.833 536.5,314.5C 537.166,310.647 537.833,306.647 538.5,302.5C 542.833,300 547.167,297.5 551.5,295C 546.6,286.686 541.6,278.519 536.5,270.5C 527.146,264.734 517.646,259.067 508,253.5C 508.017,257.475 508.184,261.475 508.5,265.5C 508.344,269.135 507.178,269.468 505,266.5C 502.667,261.833 500.333,257.167 498,252.5C 497.28,250.745 496.113,249.911 494.5,250C 492.245,262.112 490.078,274.278 488,286.5C 485.325,280.475 482.158,274.808 478.5,269.5C 475.891,278.914 473.558,288.247 471.5,297.5C 464.5,293.5 457.5,289.5 450.5,285.5C 449.014,279.575 448.514,273.575 449,267.5C 450.993,266.086 453.16,265.086 455.5,264.5C 470.906,254.954 486.572,245.621 502.5,236.5C 502.833,236.167 503.167,235.833 503.5,235.5C 499.934,234.149 496.601,234.649 493.5,237C 489.633,239.698 485.633,242.198 481.5,244.5C 479.833,242.5 478.167,240.5 476.5,238.5C 475.272,242.241 473.938,245.908 472.5,249.5C 463.721,254.957 454.721,259.957 445.5,264.5C 447.295,259.894 446.628,255.727 443.5,252C 442.552,251.517 441.552,251.351 440.5,251.5C 455.167,242.5 469.833,233.5 484.5,224.5C 518.579,236.11 548.412,254.444 574,279.5C 587.037,294.238 595.204,311.238 598.5,330.5C 598.5,334.833 598.5,339.167 598.5,343.5C 593.995,367.66 582.328,387.827 563.5,404C 538.249,424.299 510.249,439.966 479.5,451C 429.689,467.633 378.689,477.133 326.5,479.5C 307.833,479.5 289.167,479.5 270.5,479.5C 220.468,477.16 171.468,468.326 123.5,453C 86.7232,441.206 54.2232,422.373 26,396.5C 12.4281,382.687 3.59473,366.354 -0.5,347.5C -0.5,339.833 -0.5,332.167 -0.5,324.5C 4.18744,306.287 13.0208,290.287 26,276.5C 38.2692,264.716 51.7692,254.716 66.5,246.5C 67.1666,253.012 67.8333,259.679 68.5,266.5C 87.4381,277.886 106.605,288.886 126,299.5C 140.458,291.356 154.958,283.356 169.5,275.5C 169.5,276.167 169.5,276.833 169.5,277.5C 163.872,280.481 158.539,283.814 153.5,287.5C 150.802,287.845 148.802,289.178 147.5,291.5C 140.193,295.12 132.86,298.787 125.5,302.5C 117.328,297.58 108.995,292.913 100.5,288.5C 98.9991,287.248 97.3325,286.248 95.5,285.5C 86.9808,280.652 78.4808,275.652 70,270.5C 69.5002,281.161 69.3335,291.828 69.5,302.5C 64.7602,292.028 56.5935,286.028 45,284.5C 36.0864,285.496 33.5864,289.996 37.5,298C 44.8171,301.775 52.4838,304.775 60.5,307C 53.8508,307.16 47.8508,309.16 42.5,313C 38.6327,316.418 38.6327,319.751 42.5,323C 49.0765,322.387 55.0765,320.054 60.5,316C 63.1013,315.08 65.7679,314.413 68.5,314C 69.6053,311.88 69.6053,309.713 68.5,307.5C 69.3382,307.158 69.6716,306.492 69.5,305.5C 70.2014,308.563 70.868,311.73 71.5,315C 78.6982,319.432 86.0315,323.598 93.5,327.5C 95.6351,329.071 97.9684,330.404 100.5,331.5C 108.664,336.417 116.997,341.083 125.5,345.5C 136.451,340.674 147.118,334.674 157.5,327.5C 161.569,327.536 165.069,328.869 168,331.5C 168.303,335.894 168.97,340.227 170,344.5C 170.785,346.286 171.951,347.786 173.5,349C 180.38,350.58 187.38,351.58 194.5,352C 196.346,353.03 198.013,354.196 199.5,355.5C 199.91,357.854 200.91,359.854 202.5,361.5C 233.392,343.557 264.392,325.89 295.5,308.5C 297.679,330.416 300.679,352.083 304.5,373.5C 304.5,373.833 304.5,374.167 304.5,374.5C 298.025,375.158 292.525,377.825 288,382.5C 286,385.833 286,389.167 288,392.5C 291.968,395.902 296.468,398.402 301.5,400C 313.371,402.49 325.038,401.823 336.5,398C 346.66,393.356 347.993,387.023 340.5,379C 331.116,374.041 321.116,372.208 310.5,373.5C 310.5,373.167 310.5,372.833 310.5,372.5C 311.964,360.997 313.297,349.33 314.5,337.5C 313.292,333.211 312.292,328.878 311.5,324.5C 311.799,320.367 312.632,316.367 314,312.5C 316.035,319.287 319.201,325.453 323.5,331C 334.529,338.51 345.529,346.01 356.5,353.5C 359.521,356.206 361.521,359.539 362.5,363.5C 358.94,365.316 358.773,367.316 362,369.5C 367.259,367.915 369.759,364.415 369.5,359C 369.536,356.37 369.036,353.87 368,351.5C 366.644,350.62 365.144,350.286 363.5,350.5C 362.5,349.833 361.5,349.167 360.5,348.5C 355.162,339.981 348.828,332.148 341.5,325C 338.978,323.659 336.311,322.826 333.5,322.5C 331.294,311.472 328.961,300.472 326.5,289.5C 369.833,264.833 413.167,240.167 456.5,215.5 Z"/></g>
<g><path style="opacity:1" fill="#f6a5a5" d="M 300.5,238.5 C 298.208,238.756 296.041,238.423 294,237.5C 292.91,233.105 292.743,228.772 293.5,224.5C 294.983,222.906 296.483,221.24 298,219.5C 298.179,222.553 298.679,225.553 299.5,228.5C 301.042,227.253 302.542,227.253 304,228.5C 304.5,231.838 303,233.505 299.5,233.5C 299.629,235.216 299.962,236.883 300.5,238.5 Z"/></g>
<g><path style="opacity:0.983" fill="#c0e2fe" d="M 481.5,223.5 C 482.791,223.263 483.791,223.596 484.5,224.5C 469.833,233.5 455.167,242.5 440.5,251.5C 437.821,253.601 434.988,255.601 432,257.5C 431.585,261.848 431.751,266.181 432.5,270.5C 434.527,270.662 436.527,270.495 438.5,270C 440.996,268.334 443.329,266.5 445.5,264.5C 454.721,259.957 463.721,254.957 472.5,249.5C 473.938,245.908 475.272,242.241 476.5,238.5C 478.167,240.5 479.833,242.5 481.5,244.5C 485.633,242.198 489.633,239.698 493.5,237C 496.601,234.649 499.934,234.149 503.5,235.5C 503.167,235.833 502.833,236.167 502.5,236.5C 486.572,245.621 470.906,254.954 455.5,264.5C 453.16,265.086 450.993,266.086 449,267.5C 448.514,273.575 449.014,279.575 450.5,285.5C 441.585,280.888 433.252,275.554 425.5,269.5C 425.213,265.277 424.546,261.11 423.5,257C 423.833,256.5 424.167,256 424.5,255.5C 443.112,244.03 462.112,233.363 481.5,223.5 Z"/></g>
<g><path style="opacity:1" fill="#d8ecfc" d="M 282.5,239.5 C 278.32,238.274 274.154,236.94 270,235.5C 268.405,234.644 267.572,233.311 267.5,231.5C 272.426,229.09 277.26,226.424 282,223.5C 282.499,228.823 282.666,234.156 282.5,239.5 Z"/></g>
<g><path style="opacity:0.999" fill="#c1e3fe" d="M 98.5,194.5 C 98.8333,194.5 99.1667,194.5 99.5,194.5C 100.391,195.11 101.391,195.443 102.5,195.5C 102.5,196.167 102.833,196.5 103.5,196.5C 103.333,211.17 103.5,225.837 104,240.5C 112.084,245.459 120.251,250.293 128.5,255C 131.419,255.552 134.086,254.885 136.5,253C 150.563,244.304 164.896,236.137 179.5,228.5C 179.5,240.833 179.5,253.167 179.5,265.5C 174.925,265.453 171.592,267.453 169.5,271.5C 154.239,279.878 139.072,288.544 124,297.5C 123.667,283.167 123.333,268.833 123,254.5C 114.667,249.5 106.333,244.5 98,239.5C 97.8328,253.512 97.3328,267.512 96.5,281.5C 95.8333,281.167 95.1667,280.833 94.5,280.5C 93.8333,265.833 93.1667,251.167 92.5,236.5C 83.9375,231.726 75.6041,226.726 67.5,221.5C 68.9649,220.263 70.6316,219.263 72.5,218.5C 72.2148,220.288 72.5481,221.955 73.5,223.5C 80.3299,227.081 86.9965,230.914 93.5,235C 95.1341,235.494 96.8008,235.66 98.5,235.5C 98.5,221.833 98.5,208.167 98.5,194.5 Z"/></g>
<g><path style="opacity:1" fill="#cbf7ef" d="M 249.5,225.5 C 246.056,228.796 242.056,230.963 237.5,232C 241.155,229.173 245.155,227.007 249.5,225.5 Z"/></g>
<g><path style="opacity:1" fill="#f5a9ac" d="M 318.5,229.5 C 319.652,233.775 320.652,238.108 321.5,242.5C 321.615,246.888 320.615,250.888 318.5,254.5C 317.926,249.351 315.759,245.018 312,241.5C 308.159,242.209 304.326,242.875 300.5,243.5C 300.5,241.833 300.5,240.167 300.5,238.5C 309.246,240.794 315.246,237.794 318.5,229.5 Z"/></g>
<g><path style="opacity:1" fill="#d7edfe" d="M 259.5,236.5 C 259.933,239.195 261.266,241.362 263.5,243C 266.823,244.04 269.823,245.54 272.5,247.5C 269.136,261.956 265.303,276.289 261,290.5C 258.227,285.287 255.727,279.954 253.5,274.5C 252.726,273.289 251.893,273.289 251,274.5C 246.821,286.356 243.488,298.356 241,310.5C 254.497,303.086 267.83,295.419 281,287.5C 281.667,280.833 281.667,274.167 281,267.5C 278.726,261.3 276.893,254.966 275.5,248.5C 278.257,249.512 280.924,250.512 283.5,251.5C 282.669,263.66 282.169,275.993 282,288.5C 263.667,299.167 245.333,309.833 227,320.5C 226.333,298.833 226.333,277.167 227,255.5C 237.615,248.777 248.448,242.443 259.5,236.5 Z"/></g>
<g><path style="opacity:1" fill="#acd5fd" d="M 67.5,221.5 C 75.6041,226.726 83.9375,231.726 92.5,236.5C 93.1667,251.167 93.8333,265.833 94.5,280.5C 95.1667,280.833 95.8333,281.167 96.5,281.5C 97.3328,267.512 97.8328,253.512 98,239.5C 106.333,244.5 114.667,249.5 123,254.5C 123.333,268.833 123.667,283.167 124,297.5C 139.072,288.544 154.239,279.878 169.5,271.5C 169.5,272.833 169.5,274.167 169.5,275.5C 154.958,283.356 140.458,291.356 126,299.5C 106.605,288.886 87.4381,277.886 68.5,266.5C 67.8333,259.679 67.1666,253.012 66.5,246.5C 66.1739,237.983 66.5073,229.65 67.5,221.5 Z"/></g>
<g><path style="opacity:1" fill="#08368d" d="M 318.5,254.5 C 317.624,258.462 316.958,262.462 316.5,266.5C 315.167,267.167 315.167,267.833 316.5,268.5C 317.167,270.167 317.833,271.833 318.5,273.5C 310.92,279.231 302.92,279.898 294.5,275.5C 293.19,270.257 292.524,264.923 292.5,259.5C 297.215,255.707 299.215,250.707 298.5,244.5C 298.842,243.662 299.508,243.328 300.5,243.5C 304.326,242.875 308.159,242.209 312,241.5C 315.759,245.018 317.926,249.351 318.5,254.5 Z"/></g>
<g><path style="opacity:1" fill="#abd5fd" d="M 240.5,248.5 C 243.488,248.155 244.821,249.488 244.5,252.5C 243.526,263.459 237.86,270.459 227.5,273.5C 227.334,267.824 227.501,262.157 228,256.5C 232.316,253.934 236.483,251.267 240.5,248.5 Z"/></g>
<g><path style="opacity:1" fill="#acd5fd" d="M 272.5,247.5 C 273.791,247.263 274.791,247.596 275.5,248.5C 276.893,254.966 278.726,261.3 281,267.5C 281.667,274.167 281.667,280.833 281,287.5C 267.83,295.419 254.497,303.086 241,310.5C 243.488,298.356 246.821,286.356 251,274.5C 251.893,273.289 252.726,273.289 253.5,274.5C 255.727,279.954 258.227,285.287 261,290.5C 265.303,276.289 269.136,261.956 272.5,247.5 Z"/></g>
<g><path style="opacity:1" fill="#acd5fc" d="M 508.5,265.5 C 509.949,271.631 510.949,277.964 511.5,284.5C 501.753,291.051 491.587,297.051 481,302.5C 477.55,301.194 474.384,299.527 471.5,297.5C 473.558,288.247 475.891,278.914 478.5,269.5C 482.158,274.808 485.325,280.475 488,286.5C 490.078,274.278 492.245,262.112 494.5,250C 496.113,249.911 497.28,250.745 498,252.5C 500.333,257.167 502.667,261.833 505,266.5C 507.178,269.468 508.344,269.135 508.5,265.5 Z"/></g>
<g><path style="opacity:1" fill="#acd5fd" d="M 440.5,251.5 C 441.552,251.351 442.552,251.517 443.5,252C 446.628,255.727 447.295,259.894 445.5,264.5C 443.329,266.5 440.996,268.334 438.5,270C 436.527,270.495 434.527,270.662 432.5,270.5C 431.751,266.181 431.585,261.848 432,257.5C 434.988,255.601 437.821,253.601 440.5,251.5 Z"/></g>
<g><path style="opacity:1" fill="#2544ba" d="M 536.5,270.5 C 528.659,275.923 520.326,280.59 511.5,284.5C 510.949,277.964 509.949,271.631 508.5,265.5C 508.184,261.475 508.017,257.475 508,253.5C 517.646,259.067 527.146,264.734 536.5,270.5 Z"/></g>
<g><path style="opacity:1" fill="#acd5fd" d="M 455.5,264.5 C 463.15,261.297 466.317,263.964 465,272.5C 462.532,278.645 458.032,281.645 451.5,281.5C 450.974,277.65 450.307,273.816 449.5,270C 451.282,267.94 453.282,266.107 455.5,264.5 Z"/></g>
<g><path style="opacity:0.999" fill="#31d09c" d="M 179.5,265.5 C 190.513,270.197 197.18,278.53 199.5,290.5C 200.806,296.599 200.806,302.599 199.5,308.5C 199.128,304.703 197.794,301.37 195.5,298.5C 197.442,303.663 198.775,308.997 199.5,314.5C 199.5,314.833 199.5,315.167 199.5,315.5C 196.901,315.451 194.734,314.451 193,312.5C 192.07,307.401 190.737,302.401 189,297.5C 186.594,294.689 183.761,294.023 180.5,295.5C 176.83,289.492 173.163,283.492 169.5,277.5C 169.5,276.833 169.5,276.167 169.5,275.5C 169.5,274.167 169.5,272.833 169.5,271.5C 171.592,267.453 174.925,265.453 179.5,265.5 Z"/></g>
<g><path style="opacity:0.999" fill="#abd5fd" d="M 95.5,285.5 C 96.1491,299.873 95.4824,313.873 93.5,327.5C 86.0315,323.598 78.6982,319.432 71.5,315C 70.868,311.73 70.2014,308.563 69.5,305.5C 69.5,304.5 69.5,303.5 69.5,302.5C 69.3335,291.828 69.5002,281.161 70,270.5C 78.4808,275.652 86.9808,280.652 95.5,285.5 Z"/></g>
<g><path style="opacity:1" fill="#cef4e7" d="M 176.5,270.5 C 180.165,273.333 183.332,276.666 186,280.5C 187.289,282.055 187.956,283.721 188,285.5C 183.664,280.8 179.831,275.8 176.5,270.5 Z"/></g>
<g><path style="opacity:1" fill="#4c9efe" d="M 425.5,269.5 C 433.252,275.554 441.585,280.888 450.5,285.5C 457.5,289.5 464.5,293.5 471.5,297.5C 474.384,299.527 477.55,301.194 481,302.5C 491.587,297.051 501.753,291.051 511.5,284.5C 520.326,280.59 528.659,275.923 536.5,270.5C 541.6,278.519 546.6,286.686 551.5,295C 547.167,297.5 542.833,300 538.5,302.5C 537.833,306.647 537.166,310.647 536.5,314.5C 536.665,310.818 536.499,307.152 536,303.5C 522.814,311.426 509.48,319.093 496,326.5C 495.228,326.355 494.561,326.022 494,325.5C 490,318.833 486,312.167 482,305.5C 481.173,319.006 481.34,332.34 482.5,345.5C 482.265,346.097 481.765,346.43 481,346.5C 462.271,336.219 443.771,325.553 425.5,314.5C 424.833,303.833 424.167,293.167 423.5,282.5C 422.833,282.833 422.167,283.167 421.5,283.5C 421.358,278.573 422.691,273.906 425.5,269.5 Z"/></g>
<g><path style="opacity:1" fill="#2861d9" d="M 318.5,273.5 C 322.786,278.071 325.452,283.404 326.5,289.5C 328.961,300.472 331.294,311.472 333.5,322.5C 336.311,322.826 338.978,323.659 341.5,325C 348.828,332.148 355.162,339.981 360.5,348.5C 359.889,350.775 358.555,352.441 356.5,353.5C 345.529,346.01 334.529,338.51 323.5,331C 319.201,325.453 316.035,319.287 314,312.5C 312.632,316.367 311.799,320.367 311.5,324.5C 312.292,328.878 313.292,333.211 314.5,337.5C 313.297,349.33 311.964,360.997 310.5,372.5C 308.621,373.341 306.621,373.675 304.5,373.5C 300.679,352.083 297.679,330.416 295.5,308.5C 295.128,297.501 294.794,286.501 294.5,275.5C 302.92,279.898 310.92,279.231 318.5,273.5 Z"/></g>
<g><path style="opacity:0.999" fill="#bce3fb" d="M 169.5,277.5 C 173.163,283.492 176.83,289.492 180.5,295.5C 177.813,295.664 175.146,295.497 172.5,295C 167.284,289.727 160.951,287.227 153.5,287.5C 158.539,283.814 163.872,280.481 169.5,277.5 Z"/></g>
<g><path style="opacity:0.997" fill="#40e3ad" d="M 69.5,302.5 C 69.5,303.5 69.5,304.5 69.5,305.5C 69.6716,306.492 69.3382,307.158 68.5,307.5C 69.6053,309.713 69.6053,311.88 68.5,314C 65.7679,314.413 63.1013,315.08 60.5,316C 55.0765,320.054 49.0765,322.387 42.5,323C 38.6327,319.751 38.6327,316.418 42.5,313C 47.8508,309.16 53.8508,307.16 60.5,307C 52.4838,304.775 44.8171,301.775 37.5,298C 33.5864,289.996 36.0864,285.496 45,284.5C 56.5935,286.028 64.7602,292.028 69.5,302.5 Z"/></g>
<g><path style="opacity:0.997" fill="#bee1fe" d="M 95.5,285.5 C 97.3325,286.248 98.9991,287.248 100.5,288.5C 100.5,302.833 100.5,317.167 100.5,331.5C 97.9684,330.404 95.6351,329.071 93.5,327.5C 95.4824,313.873 96.1491,299.873 95.5,285.5 Z"/></g>
<g><path style="opacity:1" fill="#38e2aa" d="M 153.5,287.5 C 160.951,287.227 167.284,289.727 172.5,295C 175.146,295.497 177.813,295.664 180.5,295.5C 183.761,294.023 186.594,294.689 189,297.5C 190.737,302.401 192.07,307.401 193,312.5C 194.734,314.451 196.901,315.451 199.5,315.5C 200.833,325.167 200.833,334.833 199.5,344.5C 198.674,341.515 197.341,338.849 195.5,336.5C 196.826,340.49 198.16,344.49 199.5,348.5C 200.756,350.941 200.756,353.274 199.5,355.5C 198.013,354.196 196.346,353.03 194.5,352C 187.38,351.58 180.38,350.58 173.5,349C 171.951,347.786 170.785,346.286 170,344.5C 168.97,340.227 168.303,335.894 168,331.5C 165.069,328.869 161.569,327.536 157.5,327.5C 152.404,324.633 150.571,320.3 152,314.5C 152.837,312.162 153.67,309.828 154.5,307.5C 152.96,303.787 150.793,300.453 148,297.5C 147.505,295.527 147.338,293.527 147.5,291.5C 148.802,289.178 150.802,287.845 153.5,287.5 Z"/></g>
<g><path style="opacity:0.999" fill="#abd5fd" d="M 100.5,288.5 C 108.995,292.913 117.328,297.58 125.5,302.5C 125.5,316.833 125.5,331.167 125.5,345.5C 116.997,341.083 108.664,336.417 100.5,331.5C 100.5,317.167 100.5,302.833 100.5,288.5 Z"/></g>
<g><path style="opacity:0.999" fill="#bfe3fe" d="M 147.5,291.5 C 147.338,293.527 147.505,295.527 148,297.5C 150.793,300.453 152.96,303.787 154.5,307.5C 153.67,309.828 152.837,312.162 152,314.5C 150.571,320.3 152.404,324.633 157.5,327.5C 147.118,334.674 136.451,340.674 125.5,345.5C 125.5,331.167 125.5,316.833 125.5,302.5C 132.86,298.787 140.193,295.12 147.5,291.5 Z"/></g>
<g><path style="opacity:1" fill="#d2f5e9" d="M 195.5,298.5 C 193.496,296.162 192.329,293.495 192,290.5C 193.993,292.818 195.159,295.484 195.5,298.5 Z"/></g>
<g><path style="opacity:1" fill="#cef8ea" d="M 58.5,297.5 C 53.7852,294.813 48.7852,292.646 43.5,291C 49.4621,290.982 54.4621,293.148 58.5,297.5 Z"/></g>
<g><path style="opacity:1" fill="#c3e1fe" d="M 445.5,289.5 C 449.809,290.485 453.809,292.319 457.5,295C 459.155,296.444 459.822,298.278 459.5,300.5C 455.619,299.226 451.952,297.393 448.5,295C 446.393,293.736 445.393,291.903 445.5,289.5 Z"/></g>
<g><path style="opacity:1" fill="#d2f9ec" d="M 58.5,297.5 C 60.7488,298.08 62.4154,299.413 63.5,301.5C 61.2512,300.92 59.5846,299.587 58.5,297.5 Z"/></g>
<g><path style="opacity:1" fill="#caf7e8" d="M 171.5,305.5 C 169.456,304.969 167.789,303.802 166.5,302C 168.772,302.077 170.438,303.243 171.5,305.5 Z"/></g>
<g><path style="opacity:1" fill="#d1f4e8" d="M 195.5,298.5 C 197.794,301.37 199.128,304.703 199.5,308.5C 200.742,310.611 200.742,312.611 199.5,314.5C 198.775,308.997 197.442,303.663 195.5,298.5 Z"/></g>
<g><path style="opacity:1" fill="#c9f7e7" d="M 63.5,301.5 C 65.8598,302.865 67.5265,304.865 68.5,307.5C 66.086,306.089 64.4194,304.089 63.5,301.5 Z"/></g>
<g><path style="opacity:1" fill="#2761da" d="M 536.5,314.5 C 518.5,324.833 500.5,335.167 482.5,345.5C 481.34,332.34 481.173,319.006 482,305.5C 486,312.167 490,318.833 494,325.5C 494.561,326.022 495.228,326.355 496,326.5C 509.48,319.093 522.814,311.426 536,303.5C 536.499,307.152 536.665,310.818 536.5,314.5 Z"/></g>
<g><path style="opacity:1" fill="#cef8e9" d="M 180.5,314.5 C 177.167,311.833 174.167,308.833 171.5,305.5C 174.394,306.882 176.894,308.882 179,311.5C 179.085,307.529 180.085,303.862 182,300.5C 181.019,305.027 180.519,309.693 180.5,314.5 Z"/></g>
<g><path style="opacity:1" fill="#cef8ea" d="M 62.5,309.5 C 64.1789,309.892 65.8455,310.392 67.5,311C 64.1667,311.667 60.8333,311.667 57.5,311C 59.3817,310.802 61.0484,310.302 62.5,309.5 Z"/></g>
<g><path style="opacity:1" fill="#cbf7e8" d="M 180.5,314.5 C 183.073,315.879 184.573,317.879 185,320.5C 184.167,319.667 183.333,318.833 182.5,318C 175.875,316.955 169.208,316.289 162.5,316C 168.681,315.828 174.681,315.328 180.5,314.5 Z"/></g>
<g><path style="opacity:1" fill="#b5f4df" d="M 195.5,336.5 C 190.879,335.885 186.212,335.218 181.5,334.5C 185.167,333.833 188.833,333.167 192.5,332.5C 191.36,330.922 190.86,329.256 191,327.5C 193.06,330.286 194.56,333.286 195.5,336.5 Z"/></g>
<g><path style="opacity:1" fill="#d0f8eb" d="M 195.5,336.5 C 197.341,338.849 198.674,341.515 199.5,344.5C 200.686,345.961 200.686,347.295 199.5,348.5C 198.16,344.49 196.826,340.49 195.5,336.5 Z"/></g>
<g><path style="opacity:1" fill="#f7a6a7" d="M 360.5,348.5 C 361.5,349.167 362.5,349.833 363.5,350.5C 365.078,354.711 365.578,359.044 365,363.5C 363.608,365.842 362.775,365.842 362.5,363.5C 361.521,359.539 359.521,356.206 356.5,353.5C 358.555,352.441 359.889,350.775 360.5,348.5 Z"/></g>
<g><path style="opacity:1" fill="#1e2e7d" d="M 363.5,350.5 C 365.144,350.286 366.644,350.62 368,351.5C 369.036,353.87 369.536,356.37 369.5,359C 369.759,364.415 367.259,367.915 362,369.5C 358.773,367.316 358.94,365.316 362.5,363.5C 362.775,365.842 363.608,365.842 365,363.5C 365.578,359.044 365.078,354.711 363.5,350.5 Z"/></g>
<g><path style="opacity:1" fill="#add6fd" d="M 158.5,429.5 C 158.325,427.379 158.659,425.379 159.5,423.5C 163.806,421.012 168.139,418.512 172.5,416C 171.069,415.535 169.903,414.701 169,413.5C 164.833,407.167 160.667,400.833 156.5,394.5C 157.333,394.167 158.167,393.833 159,393.5C 167.928,395.277 176.761,397.11 185.5,399C 179,391.167 172.5,383.333 166,375.5C 165.409,374.517 165.743,373.85 167,373.5C 181.159,377.106 194.659,382.273 207.5,389C 212.767,391.479 212.434,393.479 206.5,395C 205.304,395.654 205.304,396.154 206.5,396.5C 208.996,395.42 211.33,394.086 213.5,392.5C 214.833,394.5 214.833,396.5 213.5,398.5C 195.274,409.111 176.941,419.444 158.5,429.5 Z"/></g>
<g><path style="opacity:1" fill="#f2a3a7" d="M 310.5,372.5 C 310.5,372.833 310.5,373.167 310.5,373.5C 310.5,374.833 310.5,376.167 310.5,377.5C 309.513,382.506 306.846,386.172 302.5,388.5C 301.287,388.253 300.62,387.586 300.5,386.5C 301.5,386.5 302.5,386.5 303.5,386.5C 304.162,382.534 304.495,378.534 304.5,374.5C 304.5,374.167 304.5,373.833 304.5,373.5C 306.621,373.675 308.621,373.341 310.5,372.5 Z"/></g>
<g><path style="opacity:0.995" fill="#abd4fc" d="M 310.5,373.5 C 321.116,372.208 331.116,374.041 340.5,379C 347.993,387.023 346.66,393.356 336.5,398C 325.038,401.823 313.371,402.49 301.5,400C 296.468,398.402 291.968,395.902 288,392.5C 286,389.167 286,385.833 288,382.5C 292.525,377.825 298.025,375.158 304.5,374.5C 304.495,378.534 304.162,382.534 303.5,386.5C 302.5,386.5 301.5,386.5 300.5,386.5C 297.827,386.684 297.16,387.851 298.5,390C 301.423,391.71 304.423,391.877 307.5,390.5C 311.044,387.17 312.877,383.17 313,378.5C 312.329,377.748 311.496,377.414 310.5,377.5C 310.5,376.167 310.5,374.833 310.5,373.5 Z"/></g>
<g><path style="opacity:1" fill="#162c7d" d="M 310.5,377.5 C 311.496,377.414 312.329,377.748 313,378.5C 312.877,383.17 311.044,387.17 307.5,390.5C 304.423,391.877 301.423,391.71 298.5,390C 297.16,387.851 297.827,386.684 300.5,386.5C 300.62,387.586 301.287,388.253 302.5,388.5C 306.846,386.172 309.513,382.506 310.5,377.5 Z"/></g>
<g><path style="opacity:1" fill="#acd5fd" d="M 118.5,383.5 C 124.952,382.986 129.285,385.653 131.5,391.5C 130.138,396.526 126.805,399.193 121.5,399.5C 115.659,398.177 110.325,395.677 105.5,392C 109.898,389.143 114.232,386.309 118.5,383.5 Z"/></g>
<g><path style="opacity:0.992" fill="#c3e4fe" d="M 118.5,383.5 C 114.232,386.309 109.898,389.143 105.5,392C 110.325,395.677 115.659,398.177 121.5,399.5C 120.737,400.268 119.737,400.768 118.5,401C 129.833,407.667 141.167,414.333 152.5,421C 154.65,422.411 156.984,423.245 159.5,423.5C 158.659,425.379 158.325,427.379 158.5,429.5C 139.647,419.488 121.147,408.821 103,397.5C 102.242,395.231 102.409,393.064 103.5,391C 108.333,388.167 113.167,385.333 118,382.5C 118.399,382.728 118.565,383.062 118.5,383.5 Z"/></g>
</svg>
